<?xml version="1.0" encoding="utf-8"?>
<!-- Generator: Adobe Illustrator 21.0.2, SVG Export Plug-In . SVG Version: 6.00 Build 0)  -->
<svg version="1.1" id="Layer_1" xmlns="http://www.w3.org/2000/svg" xmlns:xlink="http://www.w3.org/1999/xlink" x="0px" y="0px"
	 viewBox="0 0 1920 1080" style="enable-background:new 0 0 1920 1080;" xml:space="preserve">
<style type="text/css">
	.st0{fill:#C6D9D3;}
	.st1{fill:#B1CCCB;}
	.st2{fill:#69919B;}
	.st3{fill:#496B7B;}
	.st4{fill:#192A2E;}
</style>
<path class="st0" d="M1805.3,151.2c-4.8-2.9-10.1-5.3-14.4-8.6c-3.8-1.9,0-3.4-10.1-5.8l-7.2,4.3c-10.1,4.8-22.1,0-31.7-7.7
	c-10.1-7.2-19.2-17.3-32.2-24c-6.2-3.4-14.9-5.3-22.6-2.4c-2.9,0.5-4.8,2.4-7.2,3.8c-1-1.9-2.9-3.8-2.4-4.8
	c-2.9-6.7-6.7-13-9.6-19.7c-1.4-3.4-2.9-6.7-3.8-10.1l-1.4-5.3l-0.5-1.4c-2.9-0.5,6.7,0.5-6.7-1v0.5l-0.5,0.5l-1.4,2.4
	c-3.4,6.2-8.6,12-12.5,19.2c-1.4,1.9-1.9,3.8-2.9,5.8l-0.5-0.5c-4.3-6.7-8.6-13.4-13.4-20.2l-6.7-9.6l-1-1.4l-0.5-0.5
	c-13.4,0-3.8,0.5-7.2,0.5l-1.4,2.4c-1,1.4-1.9,2.9-3.4,4.3c-10.1,12-24.5,20.6-35,35.5c-10.1,15.4-12,33.6-18.7,48.5
	c-6.2,14.9-20.6,26.4-33.6,37.4c-13.9,10.6-29.3,21.1-46.1,25.4c-3.8,1-8.2,1.4-11,0.5c-14.4,4.3-7.7,8.6-13,13
	c-4.3,8.6-7.7,17.8-11,26.4l-4.3,13l-3.4-1.9c-8.2-4.8-16.8-9.1-24.5-14.4c-16.3-10.1-32.2-21.6-47.5-34.1
	c-30.7-24.5-59.5-53.3-82.6-86.9l-1-1.4l-0.5-0.5c6.2,1-8.6-1.4-7.2-1l-1,0.5l-2.9,2.9l-5.8,5.3l-11,11
	c-7.2,7.2-14.9,14.9-22.6,21.6c-15.4,13.9-32.2,25-52.8,28.8c-10.1,2.4-21.1,4.3-31.7,8.2c-5.3,1.4-10.6,4.3-15.4,6.7l-5.3,3.4l0,0
	c-1.4-2.4-2.4-4.3-2.9-5.8c1,0,0.5,0,0,0l0,0l-0.5-2.9c1.9,0.5-16.8-5.3-9.1-2.9l-0.5,0.5l-0.5,1l-1,1.9c-2.9,4.8-5.8,9.6-8.2,14.4
	c-4.8,10.1-8.6,20.6-12,31.2l-2.4,8.2l-0.5,1.4c-4.3-1-8.2-1.9-12-3.8c-9.6-3.8-18.2-9.1-25.9-16.3c-25.9-4.3-41.3-5.3-60-17.8
	c-4.3-2.4-8.6-5.3-12.5-8.6c-1.9-1.4-3.4-3.4-5.3-4.8c-9.1-5.8-6.7-1.9-10.6-3.4c-9.6-0.5-18.2-5.8-26.9-11
	c-4.3-2.9-8.2-6.2-12.5-9.1l-1-0.5c5.8-0.5-8.2,0-6.7,0.5l-0.5,0.5l-1.4,1.4l-2.9,2.9l-5.8,5.3c-7.2,7.2-14.9,14.4-22.6,20.2
	c-15.4,12.5-34.1,21.6-52.8,25c-19.2,2.9-39.8,0.5-60.5,7.2c-5.3,1-9.6,4.8-14.4,7.2l-5.8,5.3c-6.7-7.2-15.4-12.5-24.5-15.8
	c-19.7-6.7-39.4-6.2-57.6-8.6c-36-3.8-67.7-29.3-103.7-36c-17.3-5.8-36-7.2-49.9-14.9c-13.9-6.2-31.2-22.6-50.4-14.4
	C408,232.8,342.2,239,287.5,254.4c-109,36.5-196.3,67.2-258.7,82.6c-10.6,2.9-19.7,5.3-28.8,7.2v1037.8h1920V189.1
	c-1.4-0.5-2.9-1-4.3-1.9C1886.9,173.7,1846.6,168,1805.3,151.2z"/>
<path class="st1" d="M1601.8,381.6c-65.8,20.6-133,44.6-181,92.6c-13.4,1-26.9,1.9-40.3,2.4c-34.6,5.3-75.8-1.4-110.4,11
	c-11.5,4.3-22.6,10.6-32.2,20.2c-72,9.6-148.8,0-220.8,9.6c-4.8,14.4-4.8,28.8-14.4,38.4c-72-57.6-158.4-91.2-243.8-117.6
	c-10.1-3.4-20.2-7.2-29.8-12c-9.6-9.6-19.2-18.2-29.3-25c-13.4-8.6-32.6-18.2-47-27.8c-28.8-10.6-60.5-13.4-90.2-16.3
	c-10.1-1-20.2-1.9-29.8-2.9c-24,0-48,9.6-72,4.8c-62.4-9.6-120-33.6-182.4-38.4c-86.4-9.6-168,14.4-248.6,4.8
	c-12-2.4-22.1-5.3-29.8-7.7v994.1h1920V172.3c-27.8,10.1-58.6,25.9-90.2,47c-10.6,7.2-21.1,14.9-32.2,23c-11,5.8-21.1,12-31.7,18.7
	c-10.1,6.7-20.2,13.9-29.8,21.1c-37,28.8-75.4,52.8-110.9,85C1617.6,372,1609.9,376.8,1601.8,381.6z"/>
<path class="st2" d="M1918.1,308.1c0-0.5,0.5-1.4,0.5-2.4c0-2.4-0.5-3.8-1.4-3.8c-0.5,0-1,1-1.4,2.4c-0.5,0-0.5,0-1,0l0,0v-0.5l0,0
	c0.5,0,0.5-0.5,1-1.4c0-1,0-1.9-0.5-1.9c-0.5,0-1,0.5-1,1.4v0.5c0,0,0,0-0.5,0s-0.5,0.5-0.5,1c-0.5,0-1,0.5-1,1c0-0.5-0.5-0.5-1-0.5
	l0,0l0,0c-0.5,0-0.5,0.5-0.5,1c0,0.5,0,0.5,0,1l0,0c0,0,0,0-0.5,0c0,0,0,0,0-0.5c0-1-0.5-1.4-1-1.4c-0.5,0-0.5,1-0.5,1.9
	c0,0.5,0.5,0.5,0.5,0.5c0,0.5,0,0.5,0,1c0,0,0,0-0.5,0c0-0.5,0-1-0.5-1c0-1,0-1.9-0.5-2.4c-0.5,0-1,1-1,2.4c0,0,0,0-0.5,0
	s-1,0.5-0.5,1.4c0,0,0,0,0,0.5l0,0c0-0.5,0-0.5-0.5-0.5c0-0.5-0.5-1-0.5-1c-0.5,0-1,0.5-0.5,1.4l0.5,0.5h-0.5l0,0c0-0.5-0.5-1-1-1
	c-0.5,0-1,0.5-0.5,1.4l0,0c-0.5,0-1,0.5-1.4,0.5c0-0.5-0.5-1-1-1c0,0-0.5,0-0.5,0.5c0,0,0-0.5-0.5-0.5c-0.5,0-0.5,0.5-1,1.4
	c0,0-0.5,0-0.5-0.5c0,0,0,0-0.5-0.5c0,0-0.5-0.5-1.4-1c-1,0-0.5,0-1-1c-1-0.5-1.4-0.5-1.4-0.5c0-1-1-1.9-1.9-1.4l0,0l0,0l0,0
	c-0.5,0.5-1,1,0.5,1v0.5c-0.5,0-1,0-1.4-0.5c0,0,0.5,0,0.5-1s0-1.9-0.5-1.9c-0.5,0-0.5,0.5-1,1c0,0-0.5,0-0.5,0.5
	c0-1-0.5-1.9-0.5-1.9c-0.5,0-0.5,1-0.5,2.4v0.5l0,0c0-0.5,0-0.5,0-1c0-1.4-0.5-2.4-1-2.4c-0.5,0-0.5,1.4-0.5,2.4c0,0.5,0,0.5,0,1
	c-0.5,0-1.4,0-1.9,0.5c0,0-0.5,0-1,0l0,0h-0.5c0,0,0,0,0,0.5c0-0.5,0-0.5-0.5-0.5s-1,0.5-1,1.9l0,0c0,0,0,0,0-0.5c0-1-0.5-1.9-1-1.9
	c-0.5,0-0.5,1-0.5,2.4l0,0c-0.5,0-0.5,0-1,0c0-0.5,0-0.5,0-0.5c0-0.5-0.5-0.5-1-0.5c0-1,0-1.9,0-1.9c-0.5,0-1,1-1.4,2.4l0,0
	c0-1-0.5-2.4-0.5-2.4s-1,1-0.5,1.9c-0.5,0-0.5,0-1,0c0-1-0.5-1.4-0.5-1.9c-0.5,0-0.5,0.5-1,1.4c-0.5,0-1,0-1.4,0
	c0-0.5-0.5-0.5-0.5-0.5l-0.5,0.5h-0.5c0-1-0.5-1.4-1-1.4c-0.5,0-0.5,0.5-0.5,1.4h-0.5l0,0c-0.5,0-0.5-0.5-1,0l0,0
	c-0.5,0-1.4,0-1.9,0l-0.5-0.5c0,0-0.5,0-0.5,0.5c0,0,0,0-0.5,0c0,0,0-0.5,0.5-1c0-1,0-1.4-0.5-1.4c-0.5,0-1,0.5-1,1.4c0,0.5,0,1,0,1
	c-1,0-2.4,0.5-3.4,0.5c0-0.5-0.5-1-0.5-1c-0.5,0-0.5,0.5-0.5,1.4l0,0c0-0.5,0-0.5-0.5-0.5c0,0,0,0-0.5,0c0,0,0-0.5-0.5-0.5
	s-1,0.5-1,1.4l0,0c0-1,0-1.4-0.5-1.4c0,0-0.5,0-0.5,1c0,0,0-0.5-0.5-0.5c0,0-0.5,0-0.5,0.5c0-0.5,0-0.5-0.5-0.5c-0.5,0-1,1-1.4,1.9
	v0.5l0,0v-0.5c0-1.4-0.5-2.4-1-2.4c-0.5,0-0.5,1-0.5,2.4c0,0.5,0,0.5,0,1c0,0,0,0-0.5,0c0,0,0-0.5,0-1c0-1,0-2.4-0.5-2.4
	c-0.5,0-1,0.5-1,1.9c-0.5,0-0.5,0.5-0.5,1c0,0.5,0,0.5,0,1c0,0,0,0-0.5,0l0,0c0-1-0.5-1.4-0.5-1.4l0,0c0,0,0-0.5-0.5-0.5
	c0,0-0.5,0.5-0.5,1l0,0c0,0,0,0-0.5,0c0,0,0-0.5-0.5-0.5c-0.5,0-0.5,0.5-1,1.4l0,0c0-0.5,0-0.5-0.5-1c0,0-0.5,0-0.5,0.5
	c0-0.5,0-1-0.5-1c0,0-0.5,0-1,0.5c-0.5,0-1,0.5-1,1.4l0,0c-0.5-0.5-1-1-1-1v0.5l0,0l0,0c0-0.5,0-1.4-0.5-1.4c-0.5,0-0.5,0-0.5,1
	c0,0,0-0.5-0.5-0.5c0,0-0.5,0-0.5,0.5c0-0.5-0.5-0.5-0.5-0.5c-0.5,0-0.5,0.5-0.5,0.5c0-0.5-0.5-0.5-0.5-0.5c-0.5,0-0.5,0.5-1,1.4
	h-0.5l0,0c0-0.5,0-0.5-0.5-0.5h-0.5c0-0.5-0.5-1-0.5-1c-0.5,0-0.5,0.5-0.5,1c0-1-0.5-1.4-0.5-1.4c-0.5,0-0.5,1-0.5,1.9
	c0,0,0,0-0.5,0c0,0-0.5,0-0.5,0.5c0-1-0.5-1.9-0.5-1.9s-0.5,0-0.5,0.5c0,0,0-0.5-0.5-0.5c-0.5,0-0.5,0.5-0.5,1.4c0-0.5-0.5-1-0.5-1
	c-0.5,0-0.5,0.5-0.5,1.4c0,0,0,0,0,0.5c-0.5,0-1.4,0-1.9,0c0-1.4,0-2.4-0.5-2.4c-0.5,0-1,1-1,2.4l0,0l0,0c0-1-0.5-1.9-0.5-1.9
	c-0.5,0-0.5,1-0.5,1.9l0,0h-0.5c0-1-0.5-1.9-0.5-1.9c-0.5,0-0.5,0.5-0.5,1.4l-0.5-0.5l0,0c0-0.5-0.5-1-0.5-1c-0.5,0-0.5,0.5-1,1
	c0-0.5-0.5-1-0.5-1s-0.5,0-0.5,0.5l0,0c0,0-0.5,0.5-0.5,1l0,0c-0.5,0-0.5,0.5-0.5,1h-0.5c-0.5-0.5-0.5-1-1-1l-0.5,0.5
	c-0.5-0.5-0.5-0.5-1-0.5c0,0-0.5,0-0.5,0.5c0-0.5-0.5-1-0.5-1c-0.5,0-0.5,0.5-0.5,1c0,0.5,0,0.5,0,1c-0.5,0-0.5,0-1,0
	c0-1,0-1.9-0.5-1.9c0,0,0,0-0.5,0c0-0.5-0.5-1-0.5-0.5c0-0.5-0.5,1-0.5,2.4c-0.5,0-1,0-1.4,0c0,0,0-0.5-0.5-0.5c0-1-0.5-1.4-0.5-1.4
	c-0.5,0-0.5,0.5-0.5,1.4c0-0.5-0.5-0.5-0.5-0.5s-0.5,0.5-0.5,1h-0.5c0,0,0-0.5-0.5-0.5c0,0-0.5,0-0.5,0.5l0,0c-0.5-1-1-1.9-1-1.9
	c-0.5,0-0.5,1-0.5,1.9c-0.5,0-1,0-1.4,0c0-1-0.5-1.9-0.5-1.9l-0.5,0.5c0-0.5-0.5-1-0.5-1c-0.5,0-0.5,1-0.5,2.4l0,0
	c0-1.9-0.5-2.9-1-2.9s-0.5,1.4-0.5,2.9l0,0c0-1-0.5-1.9-1-1.9c-0.5,0-0.5,1-0.5,1.9l0,0c0-1.4-0.5-2.4-1-2.4l0,0
	c0-1.4,0-2.9-0.5-2.9c-0.5,0-1,1.4-1,3.8c0,0.5,0,0.5,0,1l0,0c0-0.5,0-1-0.5-1c0,0-0.5,0.5-0.5,1c-0.5-1-0.5-1.4-1-1.4l0,0
	c0-0.5-0.5-1-0.5-1c-0.5,0-0.5,1-0.5,2.4c0-1.9-0.5-3.4-1-2.9c-0.5,0-0.5,1-0.5,2.9c0,0.5,0,1,0,1.4c0,0-0.5,0-0.5,0.5
	c-0.5-1-0.5-1.9-1-1.9c-0.5,0-0.5,1.4-0.5,2.9l0,0c0-1.9-0.5-3.4-1-2.9c0,0-0.5,0.5-0.5,1c0,0,0-0.5-0.5-0.5c-0.5,0-0.5,1.9-0.5,3.8
	l0,0c0,0,0,0-0.5,0.5c0-0.5,0-1,0-1.4c0-1,0-1.9-0.5-1.9c0-0.5-0.5-1-0.5-1c-0.5,0-0.5,1-0.5,2.9c0,0.5,0,1,0,1.4s0,1,0,1.9
	c-0.5,0.5-0.5,0.5-1,1l0,0c0-0.5,0-0.5,0-1c0,0,0-0.5,0-1c0-1.4,0.5-2.4,0-2.9c0,0-1,0.5-1,1.4c0,0,0-0.5-0.5-0.5c0,0-0.5,0.5-0.5,1
	l0,0c0,0-0.5,0.5-1,1c0-0.5,0-1-0.5-1s-0.5,0.5-1,1c-0.5,0-1.4,1-1.9,2.9l0,0c0-0.5-0.5-1-0.5-1s-0.5,0.5-0.5,1v0.5
	c0-0.5,0-0.5,0-0.5c-0.5,0-1,1-1,1.9c0-0.5-0.5-1.4-0.5-1.4c-0.5,0-1,1-1,2.4c0,0.5,0,0.5,0,1c0,0.5-0.5,0.5-0.5,1c0-0.5,0-1,0-1.4
	c0-1.4,0-2.9-0.5-2.9c0,0-0.5,0.5-0.5,1c-0.5,0-1,1-1,2.4c0-0.5,0-1,0-1c-0.5,0-0.5,0.5-1,1.9l0,0l0,0c0-1,0-1.9,0-1.9
	s-0.5,0-0.5,0.5c0,0,0-0.5-0.5-0.5c0,0-0.5,0.5-0.5,1c0-0.5-0.5-1-0.5-1c-0.5,0-0.5,0.5-1,1.4c0-0.5,0-0.5-0.5-0.5
	c-0.5,0-0.5,0.5-1,1.4l0,0c-0.5,0-1,1-1,1.9v0.5c0,0,0,0,0,0.5l0,0c0.5-1.4,0.5-2.9,0-2.9c-0.5,0-1,1-1.4,2.9c0,0.5,0,1,0,1l0,0
	c0,0,0,0,0-0.5c0-1.4-0.5-2.4-0.5-2.4s-0.5,0-0.5,0.5c0,0,0-0.5-0.5-0.5c-0.5,0-1,1-1,2.4v0.5h-0.5c0-1.4,0-2.4-0.5-2.9
	c-0.5,0-1,1.4-1,3.4c0,0,0,0-0.5,0c0-0.5,0-1-0.5-1c-0.5,0-1,0.5-1,1.4l0,0c0-0.5-0.5-1-0.5-1s-0.5,0-0.5,0.5c0-0.5,0-0.5-0.5-0.5
	c0,0-0.5,0.5-1,1v-0.5c0,0-1,0.5-1.4,1.4v-0.5c-0.5,0-1,0.5-1.4,1.9c0,0,0-0.5-0.5-0.5c-0.5,0-0.5,0.5-1,1l0,0
	c0.5-1.4,0.5-2.9,0-3.4c-0.5,0-1,1-1.4,2.4c-0.5,0-1,0.5-1.4,1.9v0.5c0-0.5,0-1-0.5-1.4c-0.5,0-1,0.5-1,1.4c0,0.5,0,1,0,1h-0.5h-0.5
	c0-0.5,0-0.5,0-1c1-1.4,1.4-2.9,1-3.4c0-0.5-1,1-1.9,2.4l0,0c-0.5,0-0.5,0.5-0.5,1.9c-0.5,0-0.5,0-1,0c0,0,0-0.5,0-1
	c0-1,0-1.4-0.5-1.4c-0.5,0-1,0.5-1,1.4v0.5h-0.5c0-1.4,0-2.4,0-2.4c-0.5,0-1,1-1,1.9c0,0,0,0,0-0.5c0-1-0.5-1.9-1-1.9
	c-0.5,0-0.5,1-0.5,1.9v0.5l0,0c0-0.5,0-1-0.5-1l0,0c-0.5-1-1-1.9-1-1.9c-0.5,0-0.5,1.4,0,2.4v0.5c-0.5,0-1.4,0-1.9,0
	c0-1.4,0-2.9-0.5-2.9s-0.5,1-1,2.4l-0.5-0.5c0,0,0,0-0.5,0v-0.5c0-1-0.5-1.4-1-1.4c-0.5,0-0.5,1-0.5,1.9c0,0.5,0,0.5,0,1
	c-0.5,0-1,0-1.4,0c-0.5-1-1-1.9-1-1.9c0-0.5,0-1-0.5-1s-1,1-1,2.4c0-0.5-0.5-0.5-0.5-0.5c-0.5,0-0.5,0.5-0.5,0.5l0,0
	c-0.5,0-0.5,0-1,0c0.5-1.9,0-3.8,0-3.8c-0.5,0-1,1.4-1.4,3.8h-0.5v-0.5c0-1.4,0-2.9-0.5-2.9c0-0.5,0-0.5-0.5-0.5c-0.5,0-1,1.4-1,2.9
	c0,0.5,0,0.5,0,1h-0.5c0-1,0-1.9-0.5-1.9l0,0v-0.5c-0.5,0-1,1-1.4,2.4h-0.5c0-1,0-1.9-0.5-1.9l0,0c0-0.5-0.5-1-0.5-1s-0.5,0-0.5,0.5
	c0-0.5,0-0.5-0.5-1c0,0-0.5,0.5-0.5,1c0-0.5,0-1,0-1h-0.5c0,0,0,0-0.5,0c0,0-0.5,0.5-0.5,1c0,0.5-0.5,1-0.5,1.4c0,0,0,0,0,0.5l0,0
	c0-1-0.5-1.9-0.5-1.9l-0.5,0.5c-0.5-0.5-0.5-1-1-1c-0.5,0-0.5,1,0,1.9l0,0c0,0-0.5,0-0.5,0.5c0-1.4,0-2.4,0-2.4s-0.5,0.5-0.5,1
	c0-0.5,0-1-0.5-1c0,0-0.5,0.5-0.5,1c0-0.5,0-1-0.5-1c-0.5,0-1,1.4-1,3.4l0,0c0-1.4-0.5-2.9-1-2.9c-0.5,0-0.5,1.4-0.5,2.9h-0.5
	c0.5-1.4,0.5-2.4,0-2.9c-0.5,0-1,1-1.4,2.4l0,0c0,0-0.5,0-0.5,0.5c-0.5,0-0.5,0-1,0c0-0.5,0-0.5-0.5-0.5c0,0-0.5,0-0.5,0.5h-0.5
	c0-1.4,0-2.4,0-2.9c-0.5,0-1,1-1,2.9c0,0,0,0-0.5,0c0-0.5,0-1.4-0.5-1.4c-0.5,0-0.5,0.5-1,1.4l0,0c0-1,0-1.9-0.5-1.9
	c0,0-0.5,0-0.5,0.5l0,0c-0.5,0-0.5,0.5-0.5,1c0,0.5,0,0.5,0.5,0.5l0,0h-1c0.5-1.9,1-3.8,0.5-3.8c-0.5,0-1,0.5-1.4,1.9l0,0
	c0,0-0.5,0.5-0.5,1c0-0.5,0-1,0-1s-0.5,0.5-1,1l0,0c0,0-0.5,0.5-1,1c0-1-0.5-1.4-0.5-1.4s-0.5,0.5-0.5,1c0-1,0-1.9-0.5-1.9
	c-0.5,0-1,1.4-1,2.9l0,0c0,0,0,0-0.5,0c0-0.5,0-1.4,0-1.4l0,0c0-1,0-1.9-0.5-1.9s-1,0.5-1,1.4c0-0.5,0-1-0.5-1c-0.5,0-1,1-1,1.9
	c0-1,0-1.9-0.5-1.9c0,0-0.5,0.5-0.5,1c0-1,0-1.9-0.5-1.9c0,0-0.5,0.5-0.5,1l0,0l0,0c0-0.5,0-0.5,0-0.5c-0.5,0-1,0.5-1.4,1.9
	c0-0.5,0-1-0.5-1.4c0,0-0.5,0-0.5,0.5v-0.5c0,0-0.5,0-0.5,0.5c0-1,0-1.4-0.5-1.4c0,0,0,0-0.5,0c0-1.4,0-2.4,0-2.4
	c-0.5,0-1,1.4-1.4,2.9c0,0,0,0-0.5,0c0-1.4,0-2.4-0.5-2.4c0,0-0.5,0-0.5,0.5c0-0.5,0-0.5-0.5-0.5l0,0c0-0.5,0-0.5-0.5-0.5
	c0,0-0.5,0.5-1,1.4c-0.5,0-0.5,1-0.5,1.9l0,0c0-1.4,0-2.9-0.5-2.9c-0.5,0-0.5,1-1,2.4c0,0,0,0,0,0.5h-0.5c0-1,0-1.4-0.5-1.4
	c0,0-0.5,0.5-0.5,1h-0.5l0,0l0,0l0,0c0-1.4,0-2.9-0.5-2.9c0,0-0.5,0.5-0.5,1c0-1,0-1.9-0.5-1.9c-0.5,0-0.5,1-1,2.9
	c0,0,0,0.5-0.5,0.5c0-1,0-1.4-0.5-1.4c0,0-0.5,0.5-0.5,1l0,0c-0.5,0-1,1.4-1,3.8l0,0c0,0-0.5,0.5-0.5,1c0-0.5,0-0.5-0.5-0.5
	c-0.5,0-0.5,1-0.5,1.9c-0.5,0.5-1,1-1.4,1.4l0,0c0-1.9,0-3.4-0.5-3.8c-0.5,0-1,1.4-1,3.4c0,0.5,0,1,0,1.9l0,0c0,0,0,0,0-0.5
	c0-2.4,0-4.8-0.5-4.8c-0.5,0-0.5,1-1,2.4c0-0.5,0-0.5-0.5-0.5c-0.5,0-0.5,1-1,2.4c0-1.9,0-2.9-0.5-2.9c-0.5,0-0.5,1-1,2.9v-0.5
	c-0.5,0-1,1.9-1,4.8c0-1,0-1.9-0.5-1.9c-0.5,0-0.5,1-1,1.9c0,0-0.5,0.5-0.5,1l0,0c0,0,0,0-0.5,0.5c0-1,0-1.4-0.5-1.4
	c-0.5,0-1,1.4-1.4,3.8c0,0.5,0,1,0,1.9c-0.5,0-0.5,0.5-1,0.5c0-1,0-1.4,0.5-2.4c0.5-2.4,1-4.3,0.5-4.8c-0.5,0-1.4,1.9-1.9,4.8
	c0,0.5,0,0.5,0,1c0-0.5,0-1-0.5-1c-0.5,0-1,1-1,2.4l0,0c0,0-0.5,0-0.5,0.5c0-0.5,0-0.5-0.5-0.5c-0.5,0-0.5,1-1,2.4
	c0-0.5-0.5-1-0.5-1c-0.5,0-0.5,1-1,2.4c0-1,0-1.9-0.5-1.9c0,0-0.5,0.5-0.5,1l0,0c-0.5,0-0.5,1-1,1.9c0,0,0,0-0.5-0.5h-0.5l0,0
	c-0.5,0-0.5,0.5-1,1.9c0,0,0,0-0.5,0.5c0-1.4-0.5-2.9-0.5-2.9c-0.5,0-1,1.4-1,3.8c0,0,0,0-0.5,0c0-1.4-0.5-2.4-0.5-2.4
	s-0.5,1-0.5,1.9c0-0.5,0-0.5-0.5-0.5c-0.5,0-1,1-1,2.4c0,0,0,0,0,0.5l-0.5-0.5c-0.5,0-1,0.5-1,0.5v0.5c-0.5,0.5-1,0.5-1.4,1v-0.5
	l0,0c0.5,0,1-1,1-1.4c0-1,0-1.4-0.5-1.9c-0.5,0-1,0.5-1,1.4v0.5l0,0c-0.5,0-0.5,0.5-1,1.4c0,0,0,0-0.5,0c0-1,0-1.9-0.5-2.4
	c0,0-0.5,0-0.5,0.5l0,0c0,0,0,0-0.5,0c0-1,0-1.4-0.5-1.4c-0.5,0-0.5,1-1,1.9c0-1-0.5-1.4-0.5-1.4c-0.5,0-1,1.4-1,3.4
	c0,1,0,1.9,0.5,2.9c-0.5,0-0.5,0.5-1,0.5c-0.5-2.9,0-4.8-0.5-5.3c0,0,0,0-0.5,0.5c0-0.5,0-0.5-0.5-0.5c-0.5,0-0.5,1.9-0.5,4.3
	c0,0.5,0,1.4,0,1.9l0,0c0-0.5,0-1,0-1.9c0-2.4,0-4.3-0.5-4.3c0,0,0,0.5-0.5,0.5c-0.5,0-0.5,1-0.5,2.4c0-0.5-0.5-1-0.5-1
	s-0.5,0-0.5,0.5c0-0.5,0-0.5-0.5-0.5c-0.5,0-0.5,0.5-1,1.4c0-0.5-0.5-1-0.5-1c-0.5,0-0.5,0.5-0.5,1.4c0-1.4-0.5-1.9-0.5-1.9
	s-0.5,1-0.5,1.9l0,0c-0.5,0-1,1-1,2.4c0,0,0,0.5-0.5,0.5c0-0.5,0-0.5,0-0.5c-0.5,0-0.5,0.5-1,1.4c0,0.5-0.5,1-0.5,1.9
	c0,0-0.5,0.5-0.5,1c0-1,0-1.4-0.5-1.4c-0.5,0-0.5,1-1,2.4c0-0.5,0-1-0.5-1c0,0-0.5,0.5-0.5,1c0-0.5,0-1,0-1.4c0-1.4,0-2.4-0.5-2.4
	c0,0-0.5,0.5-0.5,1l0,0c0,0-0.5,0.5-0.5,1c0-1,0-1.4-0.5-1.4s-1,1.4-1.4,3.8l0,0c0,0,0,0.5-0.5,0.5c0,0,0,0-0.5-0.5
	c-0.5,0-0.5,0.5-0.5,1l0,0c0,0-0.5,0-0.5,0.5l0,0c0,0-0.5,0-0.5,0.5c0-1,0-1.4-0.5-1.4c-0.5,0-1,1.4-1,2.9c0,0-0.5,0.5-0.5,1l0,0
	l0,0c0-1,0-1.4-0.5-1.4c0,0-0.5,0.5-0.5,1l0,0c-0.5,0-0.5,1-1,1.9l0,0c-0.5,0-0.5,0.5-0.5,1c0-0.5-0.5-0.5-0.5-0.5s-0.5,0-0.5,0.5
	c0,0-0.5,0.5-0.5,1c0-0.5,0-0.5-0.5-0.5c0,0,0,0-0.5,0c0-0.5,0-0.5-0.5-0.5c0,0-0.5,0.5-1,1c0,0,0-0.5-0.5-0.5c-0.5,0-1,1.4-1,2.9
	c0,1,0,1.4,0,1.9c0,0,0,0-0.5,0V383c0-1.4,0-2.9-0.5-2.9c-0.5,0-0.5,1-1,1.9l0,0c0,0,0,0-0.5,0c0-0.5-0.5-1-0.5-1
	c-0.5,0-0.5,1.4-0.5,2.4c0,1,0,1.4,0,1.9l-0.5,0.5l0,0c0-1.4,0-2.4-0.5-2.4c0,0-0.5,0.5-0.5,1c0-0.5,0-1-0.5-1c-0.5,0-1,1-1,1.9l0,0
	c-0.5,0-0.5,1-0.5,1.9c0,0.5,0,0.5,0,1l-0.5,0.5c0-0.5,0-1,0-1.9c0.5-2.4,0.5-4.3,0-4.3c0,0-0.5,0-0.5,1c0-1,0-1,0-1
	c-0.5,0-1,1.9-1.4,5.3c0,0.5,0,0.5,0,1l0,0c0-1.4,0-2.4-0.5-2.4c0,0-0.5,0.5-0.5,1c0-0.5,0-0.5-0.5-0.5c-0.5,0-1,1.4-1,3.4v0.5l0,0
	c0,0,0-0.5-0.5-0.5c0-0.5,0-1-0.5-1.4l0,0v-0.5c-0.5,0-1,1-1.4,2.9c0-0.5,0-1-0.5-1l-0.5,0.5v-0.5c0,0-0.5,0-0.5,0.5
	c0-0.5,0-0.5-0.5-0.5c-0.5,0-1,1-1.4,2.9c-0.5,0-1,1-1,2.4l0,0c0-1.4-0.5-2.4-0.5-2.4c-0.5,0-1,1.4-1,3.4v0.5l0,0c0-0.5,0-1-0.5-1
	c0,0-0.5,0.5-1,1c0-0.5,0-0.5-0.5-0.5c-0.5,0-1,1-1,2.4l0,0c0-1,0-1.4,0-1.9c-0.5,0-1,1-1.4,2.4c0,0,0,0.5-0.5,0.5c0-0.5,0-1-0.5-1
	s-1,1.9-1.4,4.3v0.5c0,0,0,0-0.5,0.5c0,0,0,0,0-0.5c0-1.4,0-2.9-0.5-2.9l0,0c0-0.5,0-1-0.5-1c-0.5,0-1,1-1,1.9l0,0
	c0,0-0.5,0.5-1,1.4l0,0c-0.5,0-0.5,0.5-1,1.4l0,0c0-1,0-1.4,0-1.9c-0.5,0-1,1-1.4,2.4l0,0c-0.5,0-1,1-1,1.9l0,0c-0.5,0-0.5,1-1,1.9
	c0-0.5,0-0.5-0.5-0.5c-0.5,0-0.5,0.5-1,1.4l0,0c0,0-0.5,0.5-1,1l0,0l0,0c0-0.5,0-1-0.5-1c-0.5,0-1,1-1,2.4c0-0.5,0-0.5-0.5-0.5
	c-0.5,0-1,1-1,2.4v0.5l0,0c0,0-0.5,0-0.5,0.5c0,0,0-0.5-0.5-0.5c0,0-0.5,0-0.5,0.5l0,0c-0.5,0-1,1.4-1.4,3.4l0,0l0,0
	c-0.5,0-1,1-1,2.4c0,0.5,0,0.5,0,1c0,0,0-0.5-0.5-0.5s-0.5,1-1,1.9c0-1.4,0-2.4-0.5-2.4c-0.5,0-0.5,1-1,1.9l0,0c-0.5,0-1,1-1,1.9
	c0-0.5,0-1-0.5-1c0,0-0.5,0-0.5,0.5c0-1-0.5-1.4-1-1.4c0,0-0.5,0.5-0.5,1.4c0-1,0-1.4-0.5-1.4c0,0-0.5,0.5-0.5,1c0-0.5-0.5-1-0.5-1
	l0,0c0-0.5-0.5-0.5-0.5-0.5s-0.5,0.5-0.5,1.4c0-1,0-1.4-0.5-1.4c0,0,0,0-0.5,0c0-0.5-0.5-1-0.5-1c-0.5,0-0.5,1-1,1.9
	c0-0.5,0-0.5-0.5-0.5c0,0,0,0-0.5,0c0,0,0,0,0-0.5c0-1,0-1.9,0-2.4c-0.5,0-1,1.4-1.4,3.4v-0.5c0-1.9,0-3.4-0.5-3.4
	c0,0-0.5,0.5-0.5,1.4c0-1.4-0.5-2.4-0.5-2.4c-0.5,0-0.5,1-0.5,2.4c0-0.5,0-0.5-0.5-0.5c-0.5,0-0.5,0.5-1,1.9c0-1.4-0.5-2.9-0.5-2.9
	s-0.5,0.5-0.5,1c0,0,0,0-0.5,0l0,0l0,0l0,0c0-0.5,0-1-0.5-1c0,0-0.5,0.5-0.5,1c0,0,0-0.5-0.5-0.5c0,0-0.5,0.5-0.5,1v-0.5
	c0-1.4,0-2.4-0.5-2.4c-0.5,0-0.5,1-1,2.4c0,0.5-0.5,1-0.5,1.4c0-0.5-0.5-1-1-1c0,0-0.5,0-0.5,0.5c0-0.5,0-0.5-0.5-0.5l0,0
	c0-1-0.5-1.4-0.5-1.4c-0.5,0-0.5,0.5-1,1.4c0,0,0,0-0.5,0c0,0-0.5,0-0.5,0.5c0,0,0,0-0.5,0c0,0-0.5,0-0.5,0.5c0-0.5-0.5-1-0.5-1
	s-0.5,0.5-0.5,1c0,0,0-0.5-0.5-0.5l0,0c0-1,0-1.4-0.5-1.4c-0.5,0-1,1.4-1,3.4c0-1.9,0-3.4-0.5-3.4s-0.5,1-1,1.9c0,0,0-0.5-0.5-0.5
	c-0.5,0-0.5,0.5-1,1.4c0-1-0.5-1.4-0.5-1.4c-0.5,0-0.5,0.5-0.5,1.4c0,0,0,0-0.5,0l-0.5,0.5c0,0,0,0-0.5,0c0,0-0.5,0-0.5,0.5
	c0-1,0-1.4-0.5-1.4c-0.5,0-0.5,0.5-1,1.4c0-0.5,0-0.5-0.5-0.5c0,0-0.5,0-0.5,0.5c0-0.5,0-0.5-0.5-0.5c-0.5,0-1,1.4-1,2.9v0.5h-0.5
	c0-1.4,0-2.4,0-2.4c-0.5,0-1,1.4-1.4,3.4l0,0l0,0c0,0,0,0,0-0.5c0-1.4,0.5-2.9,0-3.4c-0.5,0-1,1-1,1.9l0,0c0-0.5,0-0.5-0.5-0.5l0,0
	c0-0.5,0-1-0.5-1c0,0-0.5,0.5-1,1.9c0-0.5,0-0.5-0.5-0.5c0,0-0.5,0.5-1,1.4c0-0.5,0-1-0.5-1c0,0-0.5,0.5-0.5,1c0,0,0-0.5-0.5-0.5
	c-0.5,0-1,1.4-1,2.9l0,0c0,0-0.5,0.5-0.5,1c0-0.5-0.5-0.5-0.5-0.5c-0.5,0-0.5,1-0.5,2.9l0,0c0-1.4,0-2.4-0.5-2.4
	c0,0-0.5,0.5-0.5,1.4c0-0.5,0-1-0.5-1s-0.5,1.4-1,2.9c0,0.5-0.5,0.5-0.5,1c0-1,0-1.4-0.5-1.9c-0.5,0-1,1-1,2.9c0,0.5,0,0.5,0,1l0,0
	l0,0c-0.5,0-0.5,0.5-1,1c0,0,0-0.5-0.5-0.5c0,0-0.5,0-0.5,0.5c0-1.4,0-2.4-0.5-2.4c-0.5,0-1,1.4-1,3.8l0,0l0,0c-0.5,0-1,1-1,2.4
	c0,0.5,0,0.5,0,0.5s0,0-0.5-0.5c-0.5,0-0.5,0.5-1,1.4l0,0c0-1,0-1.9-0.5-1.9c-0.5,0-1,0.5-1,1.9c0-0.5,0-0.5-0.5-0.5l-0.5,0.5
	c0-1,0-1.4-0.5-1.4c0,0-0.5,0.5-1,1.4c-3.4,0.5-3.4,2.9-3.4,5.8c-2.9-5.8-8.6-2.9-11-2.9v2.9c-2.9-2.9,2.9-5.8-2.9-5.8
	c0,2.9,0,2.9,0,5.8c0-2.9,0-2.9-2.9-2.9c2.9,5.8-5.8,0-5.8,5.8c0-2.9,0-2.9,0-5.8c2.9,2.9-2.9,5.8-2.9,8.6c0-8.6-8.6,8.6-8.6-2.9
	c-2.9,8.6-11,2.9-16.8,8.6c0-2.9,0-2.9,0-5.8c-5.8,0-8.6,2.9-13.9,8.6c-2.9,2.9-5.8,2.9-8.6,2.9c2.9,2.9-2.9,5.8,2.9,5.8
	c-5.8-2.9-8.6,2.9-13.9,2.9c0-2.9,2.9-2.9,5.8-2.9l-2.9-2.9c-16.8,11-36.5,5.8-53.8,11c0-2.9,0-2.9,0-5.8c-2.9,5.8-11,0-13.9,5.8
	l-2.9-2.9c2.9,0,5.8,0,8.6,0c-5.8,2.9-11-2.9-13.9,2.9c0-2.9,0-2.9,0-5.8c-5.8,11-16.8,19.7-22.6,31.2c-2.9-2.9-5.8-5.8-8.6-8.6
	c2.9,8.6-5.8-2.9-5.8,2.9c0-2.9,0-2.9,0-5.8c-8.6,0-19.7-8.6-28.3,0c0-2.9,0-5.8-2.9-8.6c0,2.9,0,2.9,0,5.8c0-2.9,0-2.9,0-5.8
	c2.9,0,8.6,0,11,0c-5.8,0,0,2.9-2.9,5.8c-8.6-5.8-22.6,0-31.2-5.8h2.9c-11-2.9-22.6-2.9-33.6,2.9c-5.8,0-13.9,2.9-19.7-2.9h2.9
	c-5.8-2.9-11-2.9-16.8-5.8c-13.9,5.8-25.4,2.9-39.4,2.9c-22.6-5.8-42.2-5.8-64.8-5.8c0,2.9,0,2.9,0,5.8c-5.8-8.6-19.7-5.8-28.3-11
	c2.9,2.9-5.8,2.9-2.9,5.8c-5.8-2.9-11,5.8-19.7,0c-19.7,8.6-48,8.6-70.6,0c-8.6,2.9-19.7,5.8-28.3,7.2c-10.1,1.9-19.7,3.8-28.3,9.6
	c-16.8,0-33.6,5.8-50.9,2.9c0,2.9,0,2.9,0,5.8l-2.9-2.9c-2.9,5.8-8.6,2.9-13.9,2.9c0,2.9,0,5.8-2.9,5.8c-8.6-2.9-13.9,2.9-19.7,5.8
	v-2.9c-8.6,5.8-19.7,0-28.3,11c-13.9,0-31.2,5.8-45.1-2.9l-2.9,2.9c0-2.9-2.9-2.9-5.8-2.9c-2.9,0-2.9,2.9-2.9,5.8
	c2.9,0,2.9,0,2.9-2.9c-8.6,0-16.8,5.8-25.4,2.9v-2.9c-2.9,2.9,2.9,5.8-2.9,5.8c0-2.9,0-2.9,0-5.8c-5.8,2.9-13.9,2.9-18.2,3.4
	c-6.2,0.5-12.5-0.5-18.2-3.4c0,2.9-2.9,2.9-5.8,2.9l2.9,2.9c-31.2-5.8-61.9-22.6-93.1-8.6c-8.6-8.6-22.6-19.7-13.9-33.6
	c-2.9-2.9-5.8-8.6-11-8.6c0,2.9,0,2.9,0,5.8c-2.9-2.9-2.9-2.9-5.8-5.8c0,2.9-2.9,2.9-5.8,2.9c0-2.9,0-2.9,0-5.8
	c-8.6,2.9-13.9-5.8-22.6-2.9c-2.9-5.8-8.6-5.8-13.9-5.8c0,2.9,0,2.9,0,5.8c0-5.8-8.6-8.6-5.8-13.9l-2.9,2.9c0-2.9,0-2.9,0-5.8
	c-2.9,0-5.8,0-8.6,2.9c2.9-5.8,0-11-5.8-13.9c0,0,0,2.9,0.5,2.4c2.4-8.2-8.6-11-8.6-19.7c0,2.9,0,2.9,0,5.8c0-2.9,0-5.8,0-5.8
	c-8.6-8.6-13.9-16.8-25.4-22.6c-2.9,0-5.8,0-8.6,0c-2.9-2.9-5.8-5.8-10.6-5.8c0-1,0-1.4-0.5-1.4c0,0,0,0-0.5,0c0,0,0-0.5-0.5-0.5
	c0,0,0,0-0.5,0c0,0,0,0-0.5,0.5c0-0.5,0-1-0.5-1c-0.5,0-0.5,0.5-1,1.4l0,0l0,0c0-1.9,0-3.4-0.5-3.4c0,0-0.5,0.5-1,1.9
	c0-1,0-1.9-0.5-1.9l0,0c0.5-1.4,0.5-2.9,0-2.9c0,0-0.5,0-0.5,0.5c0,0,0-0.5-0.5-0.5c0-0.5,0-1-0.5-1c0,0,0,0-0.5,0.5l0,0
	c-0.5,0-0.5,0-0.5,0.5c0,0,0-0.5-0.5-0.5H409c0,0,0-0.5,0-1c0-1,0-1.4-0.5-1.4c0,0,0,0-0.5,0l-0.5-0.5H407l0,0c0-1,0-1.4-0.5-1.4
	l0,0c0-0.5-0.5-1-0.5-1.4c-0.5,0-1,0.5-1,1.4c0,1,0,1.4,0.5,1.4l0,0c-0.5,0-0.5-0.5-1-0.5c0-0.5,0-0.5,0-1c0-1,0-1.9-0.5-1.9
	c0,0,0,0-0.5,0l0,0c0,0-0.5,0-0.5,0.5l0,0c0,0,0,0-0.5,0c0,0,0-0.5-0.5-0.5c0-0.5-0.5-0.5-0.5-0.5s-0.5,0-0.5,0.5c0-0.5,0-1-0.5-1
	c-0.5,0-1,0.5-1,1.4v0.5c0,0,0,0-0.5,0v-0.5c0-1,0-1.9-0.5-1.9c0,0-0.5,0-0.5,0.5l0,0c-0.5,0-0.5,0.5-1,1l-0.5-0.5c0-0.5,0-1-0.5-1
	c0,0-0.5,0-0.5,0.5c0-1-0.5-1.4-1-1.4c0,0-0.5,0-0.5,0.5l0,0l0,0c0,0,0,0-0.5,0c0,0,0,0-0.5,0c0,0-0.5,0-0.5,0.5l0,0v-0.5
	c0-1,0-1.4-0.5-1.4c-0.5,0-1,0.5-1,1.4v0.5c0,0,0,0.5-0.5,1l0,0l0,0l0,0l-0.5-0.5c-0.5,0-0.5,0-0.5,0s-0.5,0-0.5,0.5
	c0,0-0.5,0,0-0.5l0,0c0-0.5-0.5-1-0.5-1c-0.5,0-0.5,0.5-0.5,1c0,0,0,0-0.5,0c0-0.5,0-0.5-0.5-0.5c0,0,0,0-0.5,0c0-0.5-0.5-1-0.5-1
	c-0.5,0-0.5,0.5-0.5,1c0,0,0-0.5-0.5-0.5s-0.5,0-1,0.5c0-0.5-0.5-0.5-0.5-0.5c-0.5,0-0.5,0.5-0.5,1c0,0,0,0-0.5-0.5c0,0,0,0-0.5,0
	c0-0.5-0.5-1-1-1c-0.5,0-0.5,0.5-0.5,1l-0.5-0.5h-0.5l0,0h-0.5h-0.5l0,0c0,0,0,0-0.5,0c0,0,0,0-0.5,0h-0.5c0,0,0-0.5-0.5-0.5
	c0,0,0,0-0.5,0c0,0,0-0.5-0.5-0.5c-0.5,0-0.5,0.5-1,1l0,0c0-1,0-1.9-0.5-1.9l0,0c-0.5-0.5-1.4-1.4-1.9,0.5c0,0.5-0.5,0.5-0.5,1
	l-0.5-0.5c0-0.5,0-1-0.5-1h-0.5c0,0,0,0-0.5,0c0,0,0,0-0.5,0l0,0c0,0-0.5,0-0.5,0.5l0,0c0-0.5,0-0.5,0-0.5s0,0-0.5,0l0,0
	c-0.5,0-1.4,0-1,0.5c0,0,0-0.5-0.5-0.5h-0.5c0-0.5,0-0.5-0.5-1c0-0.5-0.5,0-1,0.5l0,0c0-0.5,0-0.5,0-1v-0.5l0,0l0,0l0,0
	c0,0-0.5,0-1.4-0.5v0.5l0,0l0,0l0,0l0,0c0.5-1,0-1.9-0.5-1.9c0,0-0.5,0-0.5,0.5l0,0c-0.5,0-0.5,0.5-1,1.4c0-0.5-0.5-0.5-0.5-0.5
	s-0.5,0-0.5,0.5l0,0c0-1,0-1.9,0-1.9l0,0c0,0,0-0.5-0.5-0.5c-0.5,0-0.5,0-0.5,0.5l0,0l0,0c0-0.5,0-0.5-0.5-1l-0.5-0.5h-0.5
	c0-0.5-0.5-1-0.5-1s-0.5,0-0.5,0.5c0,0,0-0.5-0.5-0.5c0,0,0,0-0.5,0c0-1,0-1.9-0.5-1.9c-0.5,0-0.5,0.5-1,1.9l0,0c0-0.5-0.5-1-1-1
	l0,0v-0.5c0.5-1,0-1.4-0.5-1.9c0.5-0.5-1.4,0-1,1.4c0,0,0,0,0,0.5c0,0,0,0-0.5,0l0,0c-0.5,0-0.5,0-1,0c0,0,0-0.5-0.5-0.5l0,0l0,0
	c0-0.5-0.5-0.5-0.5-0.5l0,0c0-0.5-0.5-1-0.5-1s-0.5,0-0.5,0.5c0-1-0.5-1.4-0.5-1c0,0-0.5,0-0.5,0.5c0-1-0.5-1.4-0.5-1.4
	s-0.5,0.5-0.5,1.4c-1,0.5-1,1-1,1.4c0,0,0,0-0.5,0l0,0c0,0,0,0-0.5,0.5c0,0,0,0-0.5,0l0,0c0,0-0.5,0-1.4,0c0-0.5-0.5-0.5-0.5-0.5
	l0,0c0-0.5-0.5-1-0.5-1c-0.5,0-0.5,1-1,1.9c0,0,0,0,0,0.5h-0.5c0,0,0,0,0-0.5c0-0.5,0-1.4-0.5-1.4c-0.5,0-1,0.5-1,1v0.5h-0.5
	c0,0,0-0.5,0-1l0,0c0-0.5-0.5-0.5,0,0c-0.5,0-0.5,0.5-1,0.5h-0.5c0-0.5,0-1-0.5-1c-0.5,0-0.5,0-1,0.5c0-0.5,0-0.5-0.5-1
	c0-0.5-1,0-1,1.4c0,0,0,0,0,0.5l0,0l0,0c0-1,0-1.4-0.5-1.4c0,0-0.5,0-0.5,0.5c0,0,0-0.5-0.5-0.5V371c0-0.5-0.5-1-0.5-1
	c-0.5,0-0.5,0.5-0.5,1.4c0-0.5-0.5-0.5-0.5-1l0,0c0-0.5,0-0.5-0.5-0.5c0,0-0.5,0-0.5,0.5c0-2.4,0-3.8-0.5-3.8c0,0-0.5,0-0.5,0.5
	c0-0.5,0-0.5-0.5-0.5c-0.5,0-0.5,1.4-0.5,3.8c0,0.5,0,0.5,0,0.5c0-0.5,0-1-0.5-1c-0.5,0-1,0.5-1,1c0-1,0-1.4-0.5-1.4c0,0,0,0-0.5,0
	c0-0.5-0.5-1-0.5-1c-0.5,0-0.5,0.5-1,1.4c0,0,0-0.5-0.5-0.5c-0.5,0-0.5,0.5-0.5,1c-0.5,0-0.5,0.5-1,1.4v0.5l0,0V372c0-0.5,0-1,0-1
	c0-1-0.5-1.4-0.5-1.4s-0.5,0.5-0.5,1c0,0,0-0.5-0.5-0.5c0,0-0.5,0-0.5,0.5c0-1,0-1.4-0.5-1.4c0,0-0.5,0-0.5,0.5
	c-0.5,0-0.5,0.5-0.5,1c0,0,0,0-0.5,0l-0.5,0.5c0-1-0.5-1.4-0.5-1.4c0-0.5-0.5-0.5-0.5-0.5c-0.5,0-0.5,1-0.5,1.9
	c0-0.5-0.5-0.5-0.5-0.5s-0.5,0-0.5,0.5c-0.5-1-0.5-1.4-1-1.4c0,0-0.5,0.5-0.5,1c0-0.5-0.5-0.5-0.5-0.5l-0.5,0.5c0-1-0.5-1.9-1-1.9
	l-0.5,0.5c-0.5,0-1-0.5-1,0l0,0c0-0.5,0-0.5,0-0.5v-0.5h-0.5c0-1.4-0.5-2.4-0.5-2.4s-0.5,0.5-0.5,1.4l0,0l0,0c0.5-1-0.5-0.5-1,0.5
	l0,0c0,0,0-0.5-0.5-0.5l0,0c0-0.5,0-1,0-1.4c0-1.9-0.5-3.8-0.5-3.8s-0.5,0-0.5,0.5l0,0c-0.5,0-1,1.9-1,4.8c0,1,0,1.4,0,2.4
	c0-0.5-0.5-1.4-0.5-2.4c-1-0.5-1.4,0-1.4,0.5c0,0,0,0-0.5,0.5l-0.5-0.5c0,0.5,0,0.5,0,1v0.5c0,0,0,0-0.5,0l0,0c0-0.5,0-1-0.5-1
	c0,0-0.5,0.5-0.5,1l0,0c0,0,0,0-0.5,0c0-0.5-0.5-1-0.5-1s-0.5,0.5-0.5,1.4l-0.5-0.5c0,0,0,0-0.5,0.5l0,0c0-1-0.5-1.4-1-1.4
	c-0.5,0-0.5,0.5-0.5,1.4v-0.5l0,0c0-2.4-0.5-3.8-0.5-3.8c-0.5,0-0.5,1.9-1,4.3c-0.5,0,0,0,0,0.5l0,0l0,0l0,0c-0.5-1-0.5-1.4-1-1.4
	c0,0,0,0-0.5,0.5l0,0l-0.5,0.5c0,0,0,0-0.5,0c-1-1-1,0-1,1l0,0c0,0.5,0,0.5,0,0.5l0,0c0-0.5-0.5-1-1-1l0,0h-0.5h-0.5l0,0l0,0v-0.5
	c0.5-1.9,0-1.9-0.5-1l0,0c0-1,0-1.4-0.5-1.4c0,0,0,0.5-0.5,1c0-0.5-0.5-0.5-0.5-0.5s0,0-0.5,0.5c0-0.5,0-0.5-0.5-0.5l0,0
	c0-1.9,0-3.4-0.5-3.4c-0.5,0-1,1.4-1,2.9c0,0.5,0,1,0,1.4c0,0-0.5,0-0.5,0.5c0-1-0.5-1.4-1-1.4l-0.5,0.5c0-0.5-0.5-0.5-0.5-0.5
	s0,0-0.5,0.5l0,0l0,0c0-0.5-0.5-0.5-0.5-0.5l-0.5,0.5c0-0.5-0.5-0.5-0.5-0.5s-0.5,0-0.5,0.5c0-0.5-0.5-1-0.5-1c0-1.4,0-2.4-0.5-2.9
	c-0.5,0-0.5,1-1,2.4c0,0,0,0,0,0.5l0,0c0,0-0.5,0-0.5-0.5c0-0.5-0.5-0.5-0.5-0.5s-0.5,0-0.5,0.5c0-1-0.5-1.4-1-1.4l0,0l0,0
	c-0.5,0-0.5,0.5-0.5,1h-0.5l0,0c0-1-0.5-1.4-0.5-1.4l0,0c-0.5,0-0.5,0-1,1c-0.5,0-0.5,0-0.5-0.5l0,0c0,0,0-0.5-0.5-0.5l0,0l-0.5-0.5
	c0,0-0.5,0-0.5,0.5c0-1-0.5-1.9-1-1.9c0,0-0.5,0.5-0.5,1l0,0c-0.5,0-1,1-1,2.4c0-0.5,0-1-0.5-1c-0.5,0-1,1-1,1.9h-0.5v-0.5
	c0-1.4,0-2.9-0.5-2.9c0,0,0,0-0.5,0c0,0,0-0.5-0.5-0.5c-0.5,0-1,1-1,2.4c0,0.5,0,0.5,0,0.5c-0.5,0-0.5,0-1,0v-0.5
	c0.5-1.4,0.5-2.4,0-2.4h-0.5c0,0,0-0.5-0.5,0c-0.5,0-0.5,0.5-0.5,1.4l-0.5-0.5l0,0c0-1-0.5-1.9-0.5-1.9s-0.5,0.5-0.5,1
	c-0.5,0.5-0.5,1.4-0.5,2.4c0,0,0,0,0,0.5l0,0v-0.5c0-1.4,0-2.4-0.5-2.4c0,0-0.5,0-0.5,0.5c0-0.5,0-1-0.5-1.4c0,0-0.5,0.5-0.5,1
	c0,0-0.5,0-0.5,0.5c0-0.5,0-1-0.5-1c0,0-0.5,0-0.5,0.5l0,0c-0.5,0-0.5,1-1,1.9c0-1.4,0-2.9-0.5-2.9s-0.5,1-1,2.9
	c0-1-0.5-1.9-0.5-1.9s-0.5,0-0.5,0.5c0-0.5,0-1-0.5-1c-0.5,0-0.5,0.5-1,1.9l0,0h-0.5l0,0c0,0,0,0-0.5,0c0-0.5,0-1-0.5-1
	c0,0-0.5,0-0.5,0.5c0-0.5,0-1-0.5-0.5c-0.5,0-0.5,0.5-1,1.4c0,0,0,0-0.5,0.5c0-1.4,0-2.4-0.5-2.4l0,0c0-0.5,0-0.5-0.5-0.5
	c0,0-0.5,0-0.5,0.5c0-0.5-0.5-1.4-0.5-1.4c-0.5,0-0.5,0.5-1,1.4l0,0c0-0.5,0-0.5-0.5-0.5c-0.5,0-0.5,0.5-0.5,1c0-0.5,0-1-0.5-1
	s-1,0.5-1,1.4c0,0-0.5,0-0.5,0.5c0,0,0-0.5-0.5-0.5l0,0h-0.5c0,0-0.5,0-0.5,0.5l-0.5-0.5h-0.5l0,0c0,0,0,0-0.5,0c0,0,0-0.5-0.5-0.5
	h-0.5l-0.5-0.5c0,0-0.5,0-0.5,0.5l0,0c0,0,0,0-0.5,0l0,0c0-0.5-0.5-1-0.5-1s-0.5,0-0.5,0.5c0,0-0.5,0-0.5-0.5c0,0-0.5,0-0.5,0.5
	c-1-0.5-1.9-0.5-2.9-1c-2.4-0.5-4.8-0.5-7.2-0.5l-0.5-0.5c0,0-0.5,0-0.5,0.5c0,0,0,0-0.5,0c-0.5,0-1-0.5-1-0.5c0-0.5,0-1-0.5-1
	s-0.5,0.5-1,1h-0.5c0,0,0-0.5-0.5-0.5h-0.5c0,0,0,0,0-0.5c0-0.5,0-1.4-0.5-1.4s-0.5,0.5-1,1l0,0l0,0c0-0.5,0-1.4-0.5-1.4
	c-0.5,0-0.5,0.5-1,1l0,0c0,0,0,0-0.5,0l0,0h-0.5c0-0.5-0.5-0.5-0.5-0.5s-0.5,0-0.5,0.5l0,0c0-0.5-0.5-1-0.5-1l-0.5,0.5l-0.5-0.5l0,0
	c0-0.5-0.5-0.5-0.5-0.5c-0.5,0-0.5,0.5-0.5,1l-0.5,0.5c-1.4-1-3.4-1-4.8,0l0,0c0,0-0.5,0-0.5,0.5c-0.5,0.5-1,1-1,1.4h-0.5
	c0,0-0.5,0-0.5,0.5c0-0.5,0-1-0.5-1c-0.5,0-0.5,0.5-1,1.9c0-0.5-0.5-0.5-0.5-0.5c0-0.5-0.5-1-0.5-1c-0.5,0-0.5,0.5-1,1.4
	c0,0,0,0-0.5,0l0,0l0,0c0,0,0,0-0.5,0c0-0.5,0-1-0.5-1c0,0-0.5,0-0.5,0.5l0,0c0,0-0.5,0-0.5,0.5c0-0.5-0.5-0.5-0.5-0.5
	c-0.5,0-0.5,1-0.5,1.4v-0.5l0,0c0,0,0,0-0.5,0c0-0.5,0-0.5-0.5-1c0,0-0.5,0-0.5,0.5c0-0.5-0.5-1-0.5-0.5c-0.5,0-0.5,1-0.5,1.4l0,0
	c0-0.5,0-1,0-1s-0.5,0-1,0.5c0-1-0.5-1.4-0.5-1.4s-0.5,0-0.5,0.5l0,0c-0.5,0-0.5,0.5-1,1.9c0,0,0,0-0.5,0l0,0c0.5-1.4,0.5-2.4,0-2.4
	c0,0-0.5,0-0.5,0.5c0,0,0-0.5-0.5-0.5s-0.5,0.5-0.5,1c-0.5-1-1-1.9-1.4-1.4v0.5c0-0.5,0-1-0.5-1c0,0-0.5,0.5-1,1.4l0,0
	c0,0,0-0.5,0-1c0-0.5,0-1.4-0.5-1.4l-0.5-0.5l0,0c-0.5-0.5-0.5-0.5-1-0.5c0,0,0,0.5,0,1l0,0l0,0c0-0.5,0-0.5-0.5-0.5V359
	c0-1-0.5-1.9-1-1.9c0,0,0,0-0.5,0.5c0-0.5-0.5-1-0.5-1s-0.5,0-0.5,0.5c0-0.5-0.5-1-0.5-1c-0.5,0-0.5,0.5-0.5,1.4c0-0.5,0-0.5,0-0.5
	c0-1.4,0-2.4-0.5-2.4c-0.5,0-0.5,1-1,2.4c0-0.5-0.5-1-0.5-1c-0.5,0-0.5,1.4-0.5,2.9l0,0l0,0l0,0c0,0,0,0-0.5,0c-1,0-1.9,0-2.4,0.5
	c0,0,0,0-0.5,0c0,0-0.5,0-0.5,0.5l0,0c0-0.5-0.5-0.5-0.5-0.5c-0.5,0-0.5,0.5-1,1.4l0,0c0-0.5-0.5-1-0.5-1c-0.5,0-0.5,0.5-0.5,1l0,0
	l0,0c0-1-0.5-1.4-0.5-1.4l0,0c0-0.5,0-0.5-0.5-0.5c0,0-0.5,0-0.5,0.5c0,0,0-0.5-0.5-0.5c0,0-0.5,0-0.5,0.5c0-0.5-0.5-1-0.5-1
	s0,0-0.5,0.5c0-0.5-0.5-0.5-0.5-0.5l0,0c0-1,0-1.4,0-1.4s-0.5,0-0.5,0.5c0-0.5,0-1,0-1c-0.5,0-1,1-1.4,2.4c0,0,0,0-0.5,0
	c0,0-0.5,0-0.5,0.5c0-0.5-0.5-0.5-0.5-0.5l0,0c0-1-0.5-1.4-1-1.4l0,0c-0.5-0.5-0.5-0.5-0.5,0c0,0.5,0,0.5-0.5,1l-0.5-0.5
	c0-0.5,0-1-0.5-1l0,0c0-1,0-1.4-0.5-1.4c0,0-0.5,0-0.5,0.5c0-0.5-0.5-1-0.5-1s-0.5,0-0.5,0.5c0,0,0,0-0.5,0c0,0-0.5,0-0.5,0.5
	c0-0.5-0.5-0.5-0.5-0.5l0,0v-0.5c0-0.5-0.5-1-0.5-1s-0.5,0-0.5,0.5l-0.5-0.5c0,0,0,0,0-0.5v-0.5l0,0c0-1-0.5-1.4-1-1.4
	c-0.5,0-0.5,0.5-0.5,1l0,0c0-1,0-1.4-0.5-1.4c0,0,0,0-0.5,0c0-1.4,0-2.4-0.5-2.4s-0.5,1-1,2.4l0,0l0,0c0-0.5,0-0.5-0.5-0.5
	c0-1.4,0-2.4-0.5-2.4c-0.5,0-1,1.4-1,3.4c0-0.5-0.5-1-0.5-1s-0.5,0-0.5,0.5c0,0,0,0-0.5,0c0,0-0.5,0-0.5,0.5l0,0c0-1,0-1.4-0.5-1.4
	c0,0-0.5,0-0.5,0.5c0-0.5-0.5-1-1-1c0,0-0.5,0.5-0.5,1l0,0c0-0.5-0.5-0.5-0.5-0.5l0,0c0-0.5-0.5-1-0.5-1s0,0-0.5,0c0,0,0,0-0.5,0
	c0,0-0.5,0-0.5,0.5l0,0l0,0c0-0.5,0-1-0.5-1c-0.5,0-1,1-1,1.4l0,0l0,0c0-0.5-0.5-1.4-0.5-1.4c0-0.5-0.5-1-0.5-1s-0.5,0-0.5,0.5l0,0
	c-0.5,0-1,0.5-1,1.4l0,0c0-0.5-0.5-1.4-1-1.4l-0.5,0.5c0-0.5-0.5-1-0.5-0.5c-0.5,0-1,0.5-1,1l0,0c0,0,0,0-0.5,0H143c0,0,0,0,0-0.5
	c0-0.5-1.4,0-3.4,0.5l0,0c-0.5,0-0.5,0-1,0.5c0-0.5-0.5-1-0.5-1c-0.5,0-0.5,0.5-0.5,1l0,0c-0.5,0-1,0.5-1,1l0,0c0,0,0,0-0.5,0l0,0
	c0.5-1,1-1.9,0.5-1.9c0,0-0.5,0-1,0.5l0,0c-0.5,0-0.5,0.5-1,1l0,0l-0.5,0.5c0-1,0-1.4-0.5-1.4c0,0-0.5,0.5-1,1l0,0
	c-0.5,0-0.5,0.5-1,1.4c0-0.5,0-1-0.5-1l0,0c0-1,0-1.4-0.5-1.4c-0.5,0-1,1.4-1,3.4c0-1,0-1.4-0.5-1.4c-0.5,0-1,1.4-1,2.9l0,0l0,0
	c0-0.5,0-1,0-1c-0.5,0-1,1-1.4,1.9l-0.5,0.5c-1,1-1.4,1.9-1.4,2.9c0,0.5-0.5,1-0.5,1.4c0-0.5,0-1-0.5-1c-0.5,0-1,1-1,2.4
	c0-1,0-1.9-0.5-1.9s-0.5,0.5-1,1.4l0,0l-0.5,0.5l0,0c0,0-0.5,0-0.5,0.5c0,0,0-0.5-0.5-0.5l0,0c0,0,0-0.5-0.5-0.5c0,0-0.5,0-0.5,0.5
	c0,0,0,0-0.5,0l0,0c0-0.5,0-0.5,0-0.5c-0.5,0-0.5,0-1,1c0-0.5,0-1-0.5-1c0,0-0.5,0-0.5,0.5c0,0,0,0-0.5,0s-1,1-1,2.4l0,0l0,0v-0.5
	c0-0.5-0.5-1-0.5-1c0-1,0-1.4,0-1.4s-0.5,0.5-1,1.4c0,0,0,0-0.5,0s-0.5,0.5-1,1.4c0-0.5,0-0.5-0.5-0.5h-0.5h-0.5l0,0
	c0-1,0-1.4-0.5-1.4s-1,1-1,1.9l0,0c0,0,0,0.5-0.5,1l0,0c0,0,0-0.5-0.5-0.5c0-0.5-0.5-0.5-0.5,0c0-0.5,0-0.5-0.5-1c-0.5,0-1,0.5-1,1
	c0,0,0-0.5-0.5-0.5c0,0,0,0-0.5,0c0-0.5-0.5-1-0.5-1s-0.5,0.5-0.5,1c0-0.5-0.5-0.5-0.5-1c0,0-0.5,0-0.5,0.5l-0.5-0.5l-0.5,0.5
	c-1-0.5-1.9-1.4-3.4-1.9c0,0,0,0-0.5,0s-1,0-1.4-0.5c0-1,0-0.5-0.5,0c-0.5,0-0.5,0-1,0c0-0.5,0-0.5-0.5,0c0,0,0,0-0.5,0l0,0
	c-0.5-0.5,1.4-0.5-1.4-1v0.5c-1,0-1.9,0-2.9,0c-1,0-1.9,0-2.4,0.5h-0.5c0-0.5,0-0.5-0.5,0l0,0l0,0c0-0.5,0-0.5,0-1c0,0,0-0.5,0-1
	c-1.9-0.5-1.4,0-1.4,0.5l0,0h-0.5c0-0.5,0-1.4,0-1.4s-0.5,0-1,1c0-0.5,0-1-0.5-1c-0.5,0-0.5,0.5-0.5,1c0,0-0.5,0-0.5,0.5
	c0,0-0.5,0-0.5-0.5c0-0.5,0-0.5,0-1c0-0.5,0-0.5-0.5-0.5c0,0-0.5,0.5-0.5,1c-0.5,0-1,0-1-0.5c0-1,0-1.4-0.5-1.4c0,0-0.5,0-0.5,0.5
	c0-0.5,0-1-0.5-1c-0.5,0-0.5,0.5-1,1.4c0,0,0,0-0.5,0l0,0l0,0l0,0l0,0c0-1,0-1.9-0.5-1.9c0,0-0.5,0-1,1l0,0c0,0.5-0.5,0.5-0.5,1
	c0,0,0,0-0.5,0l0,0c0-1,0-1.4-0.5-1.4h-0.5c0-0.5-0.5-0.5-0.5-0.5s-0.5,0-0.5,0.5l-0.5-0.5c0,0-0.5,0.5-0.5,1c0-0.5-0.5-1-0.5-1
	s0,0-0.5,0c0,0,0-0.5-0.5-0.5s-1,1-1,1.9c0-0.5,0-1,0-1c0-1,0-1.9-0.5-1.9l-0.5,0.5c0-1,0-1.4-0.5-1.4l0,0c0,0,0-0.5-0.5-0.5
	c-0.5,0-1,1.4-1,2.9c0,0.5,0,0.5,0,1c0-0.5,0-0.5-0.5-0.5c0,0-0.5,0-0.5,1c0-0.5,0-1-0.5-1s-1,1-1,2.4v0.5l0,0c-0.5,0-0.5,0.5-1,1.4
	c0.5-1.9,0-3.8,0-3.8c-0.5,0-0.5,1-1,1.9l0,0c0,0,0,0-0.5,0c0,0,0-0.5-0.5-0.5c0,0-0.5,0-0.5,0.5c0-0.5,0-1-0.5-1c0,0,0,0-0.5,0
	c0-0.5,0-1-0.5-1c-0.5,0-0.5,0.5-1,1.9c0-0.5,0-0.5-0.5-0.5s-1,1-1,2.4c-0.5,0-0.5,1-0.5,1.4c0-0.5,0-0.5-0.5-0.5c0,0-0.5,0-0.5,0.5
	c-1.4,0-2.9,0-4.3,0c0-1-0.5-1.4-0.5-1.4c-0.5,0-0.5,0.5-1,1.4c-0.5,0-1,0-1.4,0l0,0c0-1-0.5-1.9-0.5-1.9l0,0v-0.5l0,0
	c0-0.5,0-1-0.5-0.5c0,0,0,0-0.5,0h-0.5c-0.5-1-0.5-0.5-0.5,0.5l0,0l0,0l0,0c0,0-0.5,0-1,0s1-0.5-1-0.5h-0.5
	c-0.5-0.5,0.5-1.4-0.5-1.9l0,0c0,0,0,0-0.5,0h-0.5c0,0,0,0,0,0.5c-0.5,0-0.5,0.5,0,0.5c0-0.5-0.5-0.5-0.5-0.5c-0.5,0-0.5,1-0.5,2.4
	l0,0c0,0,0,0-0.5,0l0,0l0,0l0,0v-0.5c0-1.4,0-2.4-0.5-2.4c-0.5,0-0.5,0.5-0.5,1l0,0l0,0l0,0c0-1.4,0-2.4-0.5-2.9c-0.5,0-1,1-1,2.4
	l0,0c0-0.5,0-0.5-0.5-0.5c0,0,0,0-0.5,0l0,0c0-1-0.5-1.9-0.5-1.9c-0.5,0-0.5,1-1,1.9c0-0.5-0.5-1-0.5-1s0,0-0.5,0c0-1,0-1.4-0.5-1.4
	s-0.5,0.5-1,1.4c0-0.5-0.5-1-0.5-1.4c0,0-0.5,0-0.5,0.5c0-1-0.5-1.9-0.5-1.9s-0.5,0.5-0.5,1l0,0c-0.5,0-0.5,0.5-0.5,1
	c0-1,0-1.4-0.5-1.4c0-1-0.5-1.4-0.5-1.4l-0.5,0.5c0,0,0-0.5-0.5-0.5c0,0,0,0-0.5,0c0-1-0.5-1.9-0.5-1.9c-0.5,0-1,1.4-1,3.4v0.5h-0.5
	c0,0,0,0-0.5,0l0,0v-0.5c0.5-0.5,0.5-1,0-1c0,0,0.5-0.5-0.5-0.5c0-0.5,0-0.5-0.5-0.5l0,0c0-0.5,0-1-0.5-1c0-1,0-1.9,0-1.9
	c-0.5,0-0.5,0.5-1,1.4h-0.5c0-1.4,0-2.4-0.5-2.4s-0.5,0.5-1,1.9c0-0.5,0-1-0.5-1s-0.5,0.5-1,1c0-0.5,0-1-0.5-1l0,0
	c0-0.5,0-0.5-0.5-0.5c0,0-0.5,0-0.5,0.5c0-0.5,0-0.5-0.5-0.5c0,0-0.5,0.5-1,1c0,0,0-0.5-0.5-0.5c0,0-0.5,0-0.5,0.5l0,0
	c-0.5,0-1,0-1.4,0h-0.5c0-0.5-0.5-1-0.5-1s0,0-0.5,0c0,0,0,0-0.5,0c0,0-0.5,0-0.5,0.5c0-0.5-0.5-1-0.5-1s-0.5,0-0.5,0.5l0,0l0,0
	c0,0,0,0-0.5,0c0,0,0,0,0,0.5c0,0.5-0.5,1-0.5,1.4l0,0h-0.5l0,0c0.5-1.4,0.5-2.4,0-2.9c0,0,0,0-0.5,0c0-0.5,0-1,0-1
	c-0.5,0-1,1-1.4,2.4H9.1c0.5-1.4,0.5-2.9-0.5-2.4c-0.5,0-0.5,0-0.5,0.5l0,0c0-0.5,0-1,0-1l0,0c0,0,0,0-0.5,0H7.2
	c-0.5-0.5-0.5-0.5-0.5,0c0,0,0,0,0-0.5l0,0c0-1-0.5-1.4-1-1.4c0,0,0,0-0.5,0.5c0-1-0.5-1.4-0.5-1.4s-0.5,0.5-0.5,1l0,0
	c0,0,0,0-0.5,0.5c0-1,0-1.4-0.5-1.4c0,0-0.5,0-0.5,0.5l0,0c0-0.5-0.5-0.5-0.5-0.5l0,0c0-1-0.5-1.9-1-1.9c0,0-0.5,0.5-0.5,1
	c0-0.5-0.5-1-0.5-1c-0.5,0-0.5,0.5-0.5,1.4c0,0,0,0,0,0.5v884.6h1920V308.6C1919.1,308.6,1918.6,308.6,1918.1,308.1z"/>
<path class="st3" d="M1909.9,430.5c0-3.8-1-6.7-2.4-6.7c-1,0-1.9,1.4-2.4,3.8c-0.5,0-1,0-1.4,0.5l0,0c0-0.5,0-0.5,0-1l0,0
	c0.5,0,1-1,1.4-2.4c0.5-1.4,0-2.9-0.5-3.4c-0.5,0-1.4,1-1.9,2.4c0,0.5,0,1,0,1h-0.5c-0.5,0-1,1-1,1.9c-0.5,0-1.4,0.5-1.4,1.4
	c-0.5-0.5-1-1-1.4-1c0,0,0,0-0.5,0c0,0,0,0-0.5,0s-1.4,1-1.4,1.9c0,0.5,0,1,0.5,1.4l0,0h-0.5c0,0,0-0.5-0.5-0.5c0-1.4-1-2.9-1.4-2.9
	c-0.5,0-1,1.4-0.5,3.4c0.5,0.5,0.5,1,1,1.4c0,0.5-0.5,1-0.5,1.4h-0.5c0-0.5-0.5-1.4-0.5-1.9c0.5-1.9,0-3.4-0.5-3.8
	c-0.5-0.5-1.4,1.4-1.9,3.8l-0.5-0.5c-0.5-0.5-1.4,1-1.4,2.4v0.5l0,0c0-0.5,0-1-0.5-1c0-0.5-0.5-1.4-1-1.9c-0.5-0.5-1.4,1-1,2.9
	c0,0.5,0.5,0.5,1,1c-0.5,0-1,0-1,0.5v-0.5c0-0.5-0.5-1.4-1.4-1.4c-0.5-0.5-1.4,1-1,2.4l0,0c-1,0.5-1.4,0.5-2.4,0.5
	c0-1-1-1.4-1.4-1.4c-0.5,0-0.5,0-0.5,0.5c0-0.5-0.5-0.5-0.5-0.5c-0.5,0-1,1-1.4,2.4c-0.5,0-0.5,0-1-0.5l-0.5-0.5
	c-0.5-0.5-1-1-2.4-1.4c-1.9-0.5-1,0-1.4-1.9c-1.4-0.5-2.4-1-2.9-0.5c0-1.4-1.9-2.9-2.9-2.4l0,0c0,0,0,0-0.5,0.5l0,0
	c-0.5,0.5-1.4,1.9,0.5,1.9v0.5c-1,0-1.4-0.5-2.4-0.5c0,0,0.5,0,0.5-1.4c0-1.4,0-2.9-1-2.9c-0.5,0-1,0.5-1.4,1.9c-0.5,0-0.5,0-1,0.5
	c0-1.9-0.5-3.4-1-3.4s-1.4,1.9-1.4,4.3c0,0.5,0,0.5,0,1h-0.5c0-0.5,0-1.4,0-1.9c-0.5-2.4-1-3.8-1.9-3.8c-0.5,0-1,1.9-0.5,4.3
	c0,0.5,0,1,0.5,1.4c-1,0-1.9,0.5-2.9,0.5c-0.5,0-1-0.5-1.9,0l0,0c-0.5,0-0.5,0-1,0c0,0,0,0.5-0.5,0.5c0-0.5,0-1-0.5-1
	c-0.5-0.5-1.9,1.4-1.9,3.4c0,0,0,0,0,0.5v-0.5c-0.5-1.9-1-3.4-1.9-3.4c-0.5,0-1,1.9-0.5,4.3l0,0c-0.5,0-1,0-1.9-0.5c0-0.5,0-1,0-1
	c0-0.5-0.5-1-1.4-1c0.5-1.9,0-2.9,0-2.9c-0.5,0-1.4,1.9-2.4,4.3l0,0c0-1.9-0.5-3.8-1-3.8c-0.5,0.5-1.9,1.9-1,3.4c-0.5,0-1,0-1.9,0
	c0-1.4-0.5-2.9-1-2.9c-0.5,0-1,1-1.4,2.9c-1,0-1.4,0-2.4,0c-0.5-0.5-0.5-1-1-1c-0.5,0-1,0.5-1,1c-0.5,0-0.5,0-1,0
	c-0.5-1.4-1-2.4-1.4-2.4c-0.5,0-1,1-1,2.4h-0.5c0,0,0,0-0.5,0c-0.5-0.5-1-0.5-1.4-0.5c0,0,0,0,0,0.5c-1,0-2.4,0-3.4,0.5
	c-0.5-0.5-0.5-0.5-1-0.5c-0.5,0-0.5,0.5-0.5,1h-0.5c0-0.5,0.5-1,0.5-1.4c0-1.4-0.5-2.4-1-2.4c-0.5,0-1.4,1-1.4,2.4
	c0,0.5,0,1.4,0,1.9c-1.9,0.5-3.8,0.5-5.8,1c-0.5-1-1-1.9-1-1.9c-0.5,0-0.5,1-1,2.4c0,0,0,0-0.5,0c0-0.5-0.5-1-0.5-1h-0.5
	c0-0.5-0.5-0.5-0.5-1c-0.5,0-1.4,1-1.4,2.4l0,0c0-1.4-0.5-2.4-1-2.4s-1,0.5-1,1.4c0-0.5-0.5-0.5-0.5-0.5s-0.5,0-0.5,0.5
	c0-0.5,0-1-0.5-1c-0.5-0.5-1.4,1.4-2.4,3.4c0,0.5,0,1,0,1s0,0-0.5,0c0-0.5,0-0.5,0-1c0-1.9-1-3.8-1.4-3.8c-0.5,0-1,1.9-1,4.3
	c0,0.5,0,1,0,1.4c0,0-0.5,0-0.5,0.5c0-0.5,0-1,0-1.4c0.5-1.9,0-3.8-0.5-3.8c-0.5,0-1.4,1-1.9,2.9c-0.5,0-1,1-1,1.9
	c0,0.5,0,1,0.5,1.4h-0.5c0,0,0,0,0-0.5c0-1.4-0.5-2.9-1-2.9l0,0c0-0.5-0.5-0.5-0.5-0.5c-0.5,0-1,1-1,1.9l0,0h-0.5
	c0-0.5-0.5-0.5-0.5-0.5c-0.5,0-1.4,1-1.4,2.4l0,0c0-0.5-0.5-1-0.5-1.4c-0.5,0-0.5,0-1,0.5c0-1-0.5-1.4-0.5-1.9c-0.5,0-1,0.5-1.4,1
	c-0.5,0-1.4,1-1.4,2.9c0,0,0,0,0,0.5c-0.5-1-1.4-1.9-1.9-1.4c0,0-0.5,0.5-0.5,1l0,0l0,0c0-1-0.5-1.9-1-2.4c-0.5,0-1,0.5-1,1.4
	c0-0.5-0.5-0.5-0.5-0.5c-0.5,0-0.5,0-1,1c0-0.5-0.5-1-1-1c-0.5,0-1,0.5-1,1c0-0.5-0.5-1-1-1c-0.5,0-1,1-1.4,2.4c-0.5,0-0.5,0-1,0
	l0.5-0.5c0-0.5-0.5-1-1-1c-0.5,0-0.5,0-1,0c0-1-0.5-1.4-1-1.4c-0.5,0-1,0.5-1,1.4c0-1.4-0.5-2.4-1-2.4c-0.5,0-1,1.4-1,3.4l-0.5-0.5
	c-0.5,0-0.5,0.5-1,0.5c0-1.4-0.5-2.9-1-2.9c0,0-0.5,0-0.5,0.5c0-0.5-0.5-0.5-0.5-0.5c-0.5,0-1,1-1,1.9c-0.5-1-0.5-1.4-1-1.4
	s-1,1-1,2.4c0,0,0,0.5-0.5,0.5c-1,0-2.4,0-3.4,0.5c0-1.9,0-3.8-0.5-3.8c-0.5,0-1.4,1.4-1.9,4.3l0,0c0,0,0,0-0.5,0
	c0-1.4-0.5-2.9-1-2.9c-0.5,0-1.4,1.4-1.4,3.4l0,0c-0.5,0-1,0-1,0c0-1.9-0.5-2.9-1-2.9c-0.5,0-1,1-1,2.4c0-0.5-0.5-0.5-0.5-0.5
	s0,0-0.5,0c0-1-0.5-1.4-1-1.4c-0.5,0-1,1-1.4,1.9c0-1-0.5-1.9-1-1.9c-0.5,0-0.5,0.5-1,1l-0.5-0.5c-0.5,0-0.5,0.5-1,1.4l0,0
	c-0.5,0-1,0.5-1,1.9c-0.5,0-0.5,0-1,0c-0.5-1-1-1.4-1.4-1.4c-0.5,0-0.5,0.5-0.5,1c-0.5-0.5-1-1-1.4-1s-0.5,0.5-0.5,0.5
	c0-1-0.5-1.9-1.4-1.9c-0.5,0-1.4,1-1.4,1.9c0,0.5,0,1,0.5,1.4c-0.5,0-1,0-1.4,0c0-1.9,0-3.4-0.5-3.4c0,0-0.5,0-0.5,0.5
	c-0.5-1-0.5-1.4-0.5-1c0.5-0.5-1,1.9-1,4.3c-1,0-1.4,0-2.4,0c0-0.5-0.5-0.5-0.5-1c0-1.4-0.5-2.4-1-2.4c-0.5,0-1,1-1.4,2.9
	c-0.5-0.5-1-1-1-1c-0.5,0-0.5,1-0.5,1.9c-0.5,0-0.5,0-1,0c0-0.5-0.5-0.5-0.5-0.5c-0.5,0-0.5,0-1,0.5l0,0c-0.5-1.9-1.4-3.4-1.9-3.4
	c-0.5,0-1,1.4-0.5,3.4c-1,0-1.4,0-2.4,0c0-1.9-0.5-3.4-1-3.4c-0.5,0-0.5,0.5-0.5,1c-0.5-1-0.5-1.4-1-1.4c-0.5,0-1,1.9-1,3.8
	c0,0,0,0-0.5,0c-0.5-2.9-1-5.3-1.4-4.8c-0.5,0-1,1.9-1,4.8l0,0c-0.5-1.9-1-3.4-1.4-3.4c-0.5,0-1,1.4-1,3.4l0,0
	c-0.5-2.4-1-3.8-1.4-3.8l0,0c0-2.9-0.5-4.8-1-4.8s-1.4,2.9-1.4,6.7c0,0.5,0,1,0.5,1.4c0,0,0,0-0.5,0c0-1-0.5-1.9-1-1.9
	c0,0-0.5,0.5-1,1.4c-0.5-1.4-1-2.4-1.4-1.9c0,0-0.5,0-0.5,0.5c0-1-0.5-1.4-1-1.4c-0.5,0-1,1.9-1.4,4.3c-0.5-2.9-1-5.3-1.9-5.3
	c-0.5,0-1,1.9-0.5,4.8c0,1,0,1.9,0,2.9c-0.5,0-1,0.5-1,0.5c-0.5-1.9-1-3.4-1.4-3.4c-0.5,0-1,1.9-0.5,4.8c0,0,0,0-0.5,0
	c-0.5-2.9-1-5.3-1.4-5.3c-0.5,0-0.5,0.5-0.5,1.9c0-0.5-0.5-0.5-0.5-0.5c-0.5,0-1.4,2.9-1.4,6.7c0,0,0,0,0,0.5l-0.5,0.5
	c0-1,0-1.9-0.5-2.9c0-1.9-0.5-3.4-0.5-3.8c-0.5-1-0.5-1.4-1-1.4s-1,1.9-1,4.8c0,1,0,1.9-0.5,2.4c0,1,0,1.9,0.5,2.9
	c-0.5,0.5-1,1-1.4,1.4c0,0,0,0,0-0.5c0-0.5,0-1,0-1.4c0-0.5,0-1,0-1.4c0.5-2.4,0.5-4.3,0-4.8c-0.5,0-1.4,1-1.9,2.4
	c0-0.5-0.5-0.5-0.5-1c-0.5,0-1,0.5-1,1.9l0,0c-0.5,0-1,0.5-1.4,1.9c0-1-0.5-1.9-0.5-1.9c-0.5,0-1,0.5-1.4,1.9
	c-0.5,0-2.4,1.9-2.9,4.8v0.5c0-1-0.5-1.9-1-1.9c-0.5,0-0.5,0.5-1,1.9c0,0.5-0.5,0.5-0.5,1c0-0.5,0-1-0.5-1c-0.5,0-1.4,1.4-1.9,3.4
	c0-1-0.5-1.9-1-2.4c-0.5,0-1.4,1.9-1.4,4.3c0,0.5,0,1,0.5,1.4c-0.5,0.5-1,1-1,1.4c0-0.5,0-1.4,0-2.4c0-2.4,0-4.8-0.5-5.3
	c-0.5,0-1,0.5-1,1.9c-0.5,0-1.4,1.4-1.9,3.8c0-1,0-1.4-0.5-1.4s-1,1-1.9,2.9l0,0h-0.5c0.5-1.9,0.5-3.4,0-3.8c0,0-0.5,0-0.5,0.5
	c0-0.5-0.5-0.5-0.5-0.5c-0.5,0-0.5,0.5-1,1.9c0-1-0.5-1.9-1-1.9c-0.5,0-1,1-1.4,2.9c0-0.5-0.5-1-0.5-1c-0.5,0-1,1-1.4,2.4
	c0,0,0,0-0.5,0s-1.4,1.4-1.4,3.8v0.5l-0.5,0.5c0,0,0,0-0.5,0c0.5-2.4,0.5-4.8,0-4.8c-0.5,0-1.9,1.9-2.4,4.8c0,0.5,0,1.4,0,1.9l0,0
	v-0.5c0-1.9-0.5-3.8-1.4-3.8c0,0-0.5,0-0.5,0.5c0-0.5-0.5-0.5-0.5-0.5c-0.5,0-1.4,1.9-1.4,4.3c0,0.5,0,0.5,0,1c0,0-0.5,0-1,0
	c0-2.4,0-4.3-0.5-4.3c-0.5-0.5-1.4,1.9-1.9,5.3h-0.5c0-1,0-1.4-0.5-1.4c-0.5-0.5-1.4,1-1.9,2.9l0,0c0-1-0.5-1.4-1-1.9
	c0,0-0.5,0-0.5,0.5c0-0.5-0.5-1-0.5-1c-0.5,0-1,0.5-1.4,1.9c0-0.5,0-0.5-0.5-0.5c-0.5-0.5-1.4,0.5-1.9,2.4c0-0.5,0-0.5-0.5-0.5
	c-0.5-0.5-1.4,1-2.4,2.9c0-0.5-0.5-0.5-0.5-0.5c-0.5,0-1,0.5-1.4,1.9c0,0,0,0,0-0.5c1-2.9,1-5.3,0.5-5.8c-0.5-0.5-1.4,1.4-2.4,3.8
	c-0.5,0-1.9,1-2.4,3.4c0,0,0,0.5-0.5,0.5c0-1-0.5-1.9-1-2.4c-0.5,0-1.4,1-1.4,2.4c0,1,0,1.4,0,1.9c-0.5,0-0.5,0-1,0
	c-0.5,0-0.5,0-1,0c0-0.5,0-1,0-1.9c1.4-2.4,1.9-5.3,1.4-5.8c-0.5-0.5-1.9,1.4-3.4,4.3l0,0c-0.5,0-1.4,1-1.4,2.9c-0.5,0-1,0-1.4,0
	c0-0.5,0.5-1,0.5-1.4c0-1.4-0.5-2.4-1-2.4c-0.5,0-1.4,1-1.4,2.4c0,0.5,0,1,0,1c-0.5,0-1,0-1,0c0.5-1.9,0.5-3.8-0.5-4.3
	c-0.5,0-1.4,1.4-1.9,3.4v-0.5c0-1.9-1-3.4-1.4-3.4c-0.5,0-1,1.4-1,3.8v0.5l0,0c0-1-0.5-1.9-1-1.9c0,0,0,0-0.5,0
	c-0.5-1.9-1.4-3.4-1.9-2.9c-0.5,0.5-1,1.9,0,3.8c0,0.5,0,0.5,0,0.5c-1,0-1.9,0-3.4-0.5c0-2.4,0-4.8-1-4.8c-0.5,0-1,1.4-1.4,3.8
	c0-0.5-0.5-0.5-1-0.5h-0.5c0-0.5,0-0.5,0-1c-0.5-1.4-1-2.9-1.9-2.9c-0.5,0-1,1.4-0.5,2.9c0,0.5,0,1,0.5,1.4c-1,0-1.4,0-2.4,0
	c-0.5-1.9-1.4-3.4-1.9-2.9c0-1-0.5-1.4-0.5-1.9c-0.5-0.5-1.4,1.4-1.9,3.8c0-0.5-0.5-1-1-1s-1.4,0.5-1.4,1l0,0c-0.5,0-1,0-1.4,0
	c0.5-3.4,0.5-6.2-0.5-6.2c-0.5,0-1.4,2.4-2.4,6.2c-0.5,0-0.5,0-1,0v-0.5c0-2.4,0-4.8-1-4.8c0-0.5-0.5-1-0.5-1.4
	c-0.5,0-1.4,2.4-1.4,5.3c0,0.5,0,1,0.5,1.4c-0.5,0-0.5,0-1,0c0-1.9,0-3.4-1-3.4l0,0c0-0.5,0-0.5-0.5-0.5c-0.5-0.5-1.4,1.4-1.9,3.8
	c-0.5,0-1,0-1,0c0-1.9,0-3.4-1-3.8h-0.5c0-1-0.5-1.4-1-1.4l-0.5,0.5c0-0.5-0.5-1-0.5-1.4c-0.5,0-0.5,0.5-1,1.4c0-1,0-1.4-0.5-1.4
	c0,0-0.5,0-1,0.5l-0.5-0.5c-0.5,0-0.5,1-1,1.9c-0.5,0.5-0.5,1.4-1,2.4v0.5c0,0,0,0-0.5,0c0-1.9-0.5-3.4-1-3.4s-0.5,0.5-1,1
	c-0.5-1-1-1.9-1.4-1.4c-0.5,0-0.5,1.4-0.5,3.4c0,0,0,0-0.5-0.5c-0.5,0-0.5,0-1,0.5c0.5-2.4,0-3.8-0.5-3.8c-0.5,0-1,0.5-1,1.4
	c0-1,0-1.9-0.5-1.9s-1,0.5-1,1.4c0-1-0.5-1.9-0.5-1.9c-0.5,0-1.4,2.4-1.9,5.3l0,0c0-2.9-1-4.8-1.4-4.8s-1,1.9-1,4.8h-0.5
	c0.5-2.4,1-4.3,0-4.8c-0.5-0.5-1.4,1.4-2.4,4.3c0,0,0,0-0.5,0s-0.5,0.5-0.5,0.5c-0.5,0-1,0-1.4,0c0-0.5-0.5-1-0.5-1
	c-0.5,0-0.5,0.5-1,1c-0.5,0-0.5,0-1,0c0.5-2.4,0-4.3-0.5-4.8c-0.5,0-1.4,1.9-1.9,4.8h-0.5c0-1,0-1.9-0.5-2.4c-0.5,0-1,1-1.9,2.4l0,0
	c0-1.9,0-3.4-0.5-3.4c0,0-0.5,0-1,1c0,0,0,0-0.5,0s-1.4,0.5-1.4,1.4c0,0.5,0,1,0.5,1l0,0c-0.5,0-1,0-1.9,0c1-2.9,1.4-6.2,1-6.2
	c-0.5,0-1.4,1-1.9,2.9l0,0c-0.5,0-0.5,0.5-1,1.4c0-1,0-1.9-0.5-1.9c-0.5,0-1,0.5-1.4,1.9l0,0c-0.5,0-1,0.5-1.4,1.9
	c0-1.4-0.5-2.4-1-2.4c-0.5,0-0.5,0.5-1,1.4c0-1.9-0.5-3.4-1-3.4c-0.5,0-1.4,1.9-1.4,4.8c0,0,0,0,0,0.5h-0.5c0-1,0-1.9-0.5-2.9l0,0
	c0.5-1.9,0-3.4-0.5-3.8c-0.5,0-1.4,1-1.4,2.9c0-1-0.5-1.4-0.5-1.4c-0.5,0-1.4,1.4-1.9,3.4c0-1.9,0-3.4-0.5-3.4c-0.5,0-1,0.5-1,1.9
	c0-1.9,0-3.4-0.5-3.4c-0.5,0-0.5,0.5-1,1.4l0,0c0,0,0,0-0.5,0c0-0.5,0-0.5-0.5-1c-0.5,0-1.4,1-2.4,3.4c0-1.4-0.5-1.9-0.5-1.9
	c-0.5,0-0.5,0.5-1,1c0,0,0-0.5-0.5-0.5c-0.5,0-0.5,0.5-1,1c0-1.4-0.5-2.9-1-2.9c0,0-0.5,0-0.5,0.5c0.5-2.4,0.5-4.3,0-4.3
	c-0.5,0-1.4,1.9-2.4,5.3c0,0-0.5,0-0.5,0.5c0-1.9,0-3.8-0.5-3.8c0,0-0.5,0-0.5,0.5c0-0.5,0-1-0.5-1l0,0c0-0.5-0.5-1-0.5-1
	c-0.5,0-1,1-1.4,2.4c-0.5,0.5-1,1.4-1,3.4c0,0,0,0-0.5,0c0-2.9,0-4.8-0.5-4.8c-0.5,0-1,1.4-1.4,4.3v0.5c-0.5,0-0.5,0-1,0
	c0-1.4-0.5-2.4-0.5-2.4c-0.5,0-1,1-1,1.9c-0.5,0-1,0-1,0l0,0l0,0l0,0c0.5-2.9,0-4.8-0.5-4.8c-0.5,0-1,0.5-1,1.9c0-1.9,0-2.9-0.5-2.9
	c-0.5,0-1,1.9-1.9,4.8c0,0-0.5,0.5-0.5,1c0-1.4-0.5-2.4-0.5-2.4c-0.5,0-0.5,0.5-1,1.4c0,0,0-0.5-0.5-0.5s-1.4,2.4-1.9,6.2
	c0,0,0-0.5-0.5-0.5c-0.5,0-1,1-1,1.9c0-0.5-0.5-1-0.5-1c-0.5,0-1,1.4-1,3.4c-1,1-1.4,1.4-2.4,2.4l0,0c0.5-3.4,0-6.2-0.5-6.2
	s-1.4,2.4-1.9,5.8c0,1,0,1.9,0,2.9l-0.5,0.5v-0.5c0.5-4.3,0-8.2-0.5-8.2c-0.5,0-1,1.4-1.4,3.8c0-0.5-0.5-1-0.5-1
	c-0.5,0-1,1.4-1.4,4.3c0-2.9-0.5-5.3-1-5.3c-0.5,0-1,1.9-1.4,4.3c0-0.5,0-0.5-0.5-0.5c-0.5,0-1.4,3.4-1.9,8.2c0-1.9,0-3.4-0.5-3.4
	c-0.5,0-1,1.4-1.4,3.8c-0.5,0.5-1,1-1,1.9c0,0,0-0.5-0.5-0.5c0,0-0.5,0-0.5,0.5c0-1.4,0-2.4-0.5-2.4c-0.5,0-1.4,2.4-1.9,6.2
	c0,1,0,1.9,0,2.9c-0.5,0.5-1,0.5-1.4,1c0-1.4,0.5-2.9,0.5-4.3c0.5-4.3,1.4-7.7,1-8.2c-0.5-0.5-2.9,2.9-3.4,7.7c0,0.5,0,1,0,1.4
	c0-1-0.5-1.4-0.5-1.4c-0.5-0.5-1.4,1.4-1.9,3.8l-0.5-0.5c0,0-0.5,0.5-0.5,1c0-0.5-0.5-0.5-0.5-1c-0.5,0-1,1.9-1.4,4.3
	c0-1-0.5-1.4-1-1.4c-0.5,0-1,1.9-1.4,4.3c0-1.9-0.5-3.4-1-3.4s-0.5,0.5-1,1.4l0,0c-0.5,0-1,1.4-1.4,3.4l-0.5-0.5c-0.5,0-0.5,0-1,0.5
	c0,0,0-0.5-0.5-0.5c-0.5,0-1,1-1.4,2.9l-0.5,0.5c0-2.9-0.5-4.8-1-4.8c-0.5,0-1.4,2.9-1.4,6.2c0,0-0.5,0-0.5,0.5c0-2.4-0.5-4.3-1-4.3
	c-0.5,0-1,1.4-1,3.4c0-0.5-0.5-1-0.5-1c-0.5,0-1.4,1.4-1.4,3.8v0.5c0-0.5-0.5-0.5-1-0.5c-0.5,0-1.4,0.5-1.4,1c0,0.5,0,0.5,0,1
	c-1,0.5-1.4,1-2.4,1.4V528c0,0,0,0,0.5,0c0.5,0,1.4-1.4,1.4-2.9c0-1.4-0.5-2.9-1-2.9s-1.4,1-1.4,2.9c0,0.5,0,0.5,0,1l0,0
	c-0.5,0-1,1-1.4,2.4c0,0-0.5,0-0.5,0.5c0.5-1.9,0-3.4-0.5-3.8c-0.5,0-0.5,0.5-1,1v-0.5c0,0-0.5,0-0.5,0.5c0-1.4-0.5-2.4-1-2.9
	c-0.5,0-1,1.4-1.4,3.4c0-1.4-0.5-2.9-1-2.9c-0.5,0-1.4,2.4-1.4,6.2c0,1.9,0,3.4,0.5,4.8c-0.5,0.5-1,0.5-1.4,1
	c-0.5-4.8,0-8.6-0.5-8.6c0,0-0.5,0-0.5,0.5c0-0.5-0.5-1-0.5-1c-0.5,0-1,3.4-1,7.7c0,1,0,1.9,0,2.9l0,0c0-1,0-1.9,0-2.9
	c0.5-3.8-0.5-7.7-1-7.2c0,0-0.5,0.5-0.5,1c-0.5,0.5-1,1.9-1,3.8c0-1-0.5-1.4-1-1.4c0,0-0.5,0.5-0.5,1c0-0.5-0.5-0.5-0.5-0.5
	c-0.5,0-1,1-1.4,2.9c0-1-0.5-1.9-1-1.9c-0.5,0-1,1-1,2.4c0-1.9-0.5-3.4-1-3.4c-0.5,0-1,1.4-1,3.4c0,0,0-0.5-0.5-0.5
	c-0.5,0-1.4,1.9-1.9,4.3c0,0-0.5,0.5-0.5,1c0-0.5,0-1-0.5-1c-0.5,0-1,1-1.9,2.9c-0.5,0.5-1,1.9-1,2.9c-0.5,0-0.5,0.5-1,1.4
	c0-1.4-0.5-2.4-1-2.4c-0.5,0-1,1.4-1.4,3.8c0-1-0.5-1.4-1-1.9c-0.5,0-0.5,0.5-1,1.4c0-1,0-1.4-0.5-2.4c0-2.4,0-4.3-0.5-4.3
	c-0.5,0-0.5,1-1,1.9l0,0c-0.5,0-0.5,1-1,1.9c0-1.4,0-1.9-0.5-2.4c-0.5,0-1.9,2.9-2.4,6.7l0,0c0,0-0.5,0.5-0.5,1
	c0-0.5-0.5-0.5-0.5-0.5c-0.5,0-1,1-1,1.9c0,0,0-0.5-0.5-0.5c-0.5,0-0.5,0.5-1,1l0,0c-0.5,0-0.5,0.5-1,1c0-1.4-0.5-2.4-1-2.4
	s-1.4,2.4-1.4,4.8c-0.5,0.5-0.5,1-0.5,1.9l0,0l0,0c0-1.4-0.5-2.4-1-2.9c-0.5,0-1,0.5-1,1.9l-0.5-0.5c-0.5,0-1,1.4-1.4,3.4
	c0,0,0,0-0.5,0c-0.5,0-1,0.5-1,1.9c0-0.5-0.5-1-0.5-1c-0.5,0-0.5,0.5-1,1c-0.5,0-1,0.5-1,1.4c0-0.5-0.5-1-0.5-1s-0.5,0-0.5,0.5
	c0-0.5-0.5-1-0.5-1c-0.5,0-1,1-1.4,1.9c0-0.5-0.5-0.5-0.5-0.5c-0.5,0-1.4,2.4-1.9,4.8c0,1.4,0,2.4,0,3.4c0,0-0.5,0-0.5,0.5
	c0-0.5,0-0.5,0-1c0-2.4,0-4.3-1-4.8c-0.5,0-1,1.4-1.4,3.4c0,0,0,0-0.5,0h-0.5c-0.5-1.4-0.5-1.9-1-1.9c-0.5,0-1,1.9-1,4.3
	c0,1.4,0,2.4,0,3.4c-0.5,0-0.5,0.5-1,0.5l0,0c0-2.4,0-3.8-1-4.3c-0.5,0-1,0.5-1,1.4c0-1-0.5-1.4-1-1.4c-0.5,0-1.4,1.4-1.4,3.4h-0.5
	c-0.5,0-1,1.4-1,2.9c0,0.5,0,1,0.5,1.4c-0.5,0-0.5,0.5-1,0.5c0-1,0-1.9,0-2.9c0.5-3.8,0.5-7.2,0-7.2s-0.5,0.5-1,1.4
	c0-1.4,0-1.9-0.5-1.9c-0.5,0-1.9,3.8-2.9,9.1c0,0.5,0,1,0,1.4c0,0,0,0-0.5,0c0-2.4,0-4.3-0.5-4.3c-0.5,0-0.5,0.5-1,1.9
	c0-0.5-0.5-1-0.5-1c-0.5,0-1.4,2.4-1.9,5.8c0,0.5,0,1,0,1l0,0c0-0.5,0-1-0.5-1c0-1,0-1.9-0.5-1.9l0,0c0-0.5,0-0.5-0.5-0.5
	c-0.5,0-1.4,1.9-2.4,4.8c0-1-0.5-1.4-0.5-1.4c-0.5,0-0.5,0.5-1,1c0-0.5,0-0.5-0.5-0.5c-0.5,0-0.5,0.5-1,1c0-0.5,0-1-0.5-1
	c-0.5,0-1.4,1.9-1.9,4.8c-0.5,0-1.4,1.9-1.9,4.3l0,0c0-2.4-0.5-4.3-1-4.3c-0.5,0-1.4,2.4-1.4,5.3v0.5l0,0c0-1,0-1.4-0.5-1.9
	c-0.5,0-1,0.5-1.4,1.4c0-0.5,0-1-0.5-1c-0.5,0-1.4,1.9-1.9,4.3l0,0c0-1.4,0-2.9-0.5-2.9s-1.4,1.4-2.4,4.3c0,0-0.5,0.5-0.5,1
	c0-1,0-1.4-0.5-1.4c-0.5,0-1.9,2.9-2.4,7.2c0,0.5,0,0.5,0,1l-0.5,0.5v-0.5c0-2.4,0-4.3-0.5-4.8c0,0,0,0-0.5,0c0-1,0-1.4-0.5-1.4
	s-1.4,1.4-1.9,3.4l0,0c-0.5,0-1,1-1.4,1.9l0,0c-0.5,0-1,1-1.4,1.9l0,0c0-1.4,0-2.9-0.5-2.9c-0.5,0-1.4,1.4-1.9,4.3l0,0
	c-0.5,0-1.4,1.4-1.4,2.9c0,0,0,0-0.5-0.5c-0.5,0-1.4,1.4-1.4,3.4c0-0.5-0.5-1-0.5-1c-0.5,0-1,1-1.4,2.4c0,0,0-0.5-0.5-0.5
	c-0.5,0-1,0.5-1.4,1.4c0,0,0-0.5-0.5-0.5c0,0,0,0-0.5,0c0-1,0-1.9-0.5-1.9c-0.5,0-1.4,1.9-1.9,4.3c0-0.5-0.5-1-0.5-1
	c-0.5,0-1.4,1.4-1.4,3.8c0,0.5,0,0.5,0,1c0,0,0,0-0.5,0c-0.5,0-0.5,0.5-1,1c0-0.5-0.5-0.5-0.5-0.5c-0.5,0-0.5,0.5-1,1
	c0,0,0-0.5-0.5-0.5c-0.5,0-1.4,2.4-1.9,5.8c0,0,0,0,0,0.5l0,0c-0.5,0-1.4,1.9-1.4,4.3c0,0.5,0,1,0,1.4c0-0.5-0.5-0.5-0.5-0.5
	c-0.5,0-1,1.4-1.4,3.4c0-2.4,0-4.3-0.5-4.3c-0.5,0-1,1.4-1.4,3.4v-0.5c-0.5,0-1.4,1.4-1.9,3.4c0-1-0.5-1.9-1-1.9c-0.5,0-0.5,0.5-1,1
	c-0.5-1.4-1-2.9-1.4-2.9c-0.5,0-0.5,1-1,2.4c0-1.4-0.5-2.9-1-2.9s-1,1-1,1.9c0-1-0.5-1.9-1-1.9l0,0c0-0.5-0.5-1-0.5-1
	c-0.5,0-0.5,1-1,1.9c0-1.4-0.5-2.4-1-2.4c0,0-0.5,0-0.5,0.5c0-1-0.5-1.9-1-1.9c-0.5,0-1,1.4-1.4,2.9c0-0.5-0.5-1-0.5-1
	s-0.5,0-0.5,0.5v-0.5c0.5-1.9,0.5-3.8,0-3.8c-0.5-0.5-1.9,1.9-2.9,5.3c0-0.5,0-0.5,0-1c0-2.9,0-5.8-1-5.8c-0.5,0-1,1-1.4,2.4
	c0-2.4-0.5-4.3-1-4.3c-0.5,0-1,1.4-1,3.8c0-0.5-0.5-1-0.5-1c-0.5,0-1,1-1.4,2.9c0-2.9-0.5-4.8-1-4.8c-0.5,0-0.5,1-1,1.9l-0.5-0.5
	c0,0,0,0-0.5,0c0,0,0-0.5-0.5-0.5c0,0,0,0-0.5,0c0-1-0.5-1.4-0.5-1.4c-0.5,0-0.5,0.5-1,1.4c0-0.5-0.5-0.5-0.5-0.5
	c-0.5,0-0.5,0.5-1,1.4c0-0.5,0-0.5-0.5-0.5c0-2.4-0.5-4.3-1-4.3c-0.5,0-1,1.4-1.4,3.8c-0.5,0.5-0.5,1.4-1,2.4c-0.5-1-1-1.4-1.4-1.4
	c-0.5,0-0.5,0.5-0.5,0.5c0-0.5-0.5-1-0.5-1l0,0c0-1.4-0.5-2.9-1-2.9c-0.5,0-1,1-1.4,2.4l-0.5-0.5c-0.5,0-0.5,0.5-1,1l-0.5-0.5
	c-0.5,0-0.5,0.5-1,1c0-1-0.5-1.9-1-1.9s-0.5,0.5-1,1.4c0-0.5-0.5-0.5-0.5-0.5s0,0-0.5,0c0-1.4-0.5-2.9-0.5-2.9
	c-0.5,0-1.4,2.4-1.9,5.3c0-2.9,0-5.8-1-5.8c-0.5,0-1,1.4-1.4,3.8c0-0.5-0.5-0.5-0.5-0.5c-0.5,0-1,1-1.4,2.9c0-1.4-0.5-2.4-1-2.4
	c-0.5,0-1,1-1,2.4l-0.5-0.5c-0.5,0-0.5,0.5-1,1.4l-0.5-0.5c-0.5,0-0.5,0.5-1,1c0-1.4,0-2.4-0.5-2.4s-1,1-1.4,2.4c0-0.5-0.5-1-0.5-1
	c-0.5,0-0.5,0.5-1,1c0-0.5-0.5-1-0.5-1c-0.5,0-1.4,1.9-1.9,4.8c0,0.5,0,0.5,0,1c-0.5,0-0.5,0-1,0.5c0.5-2.4,0-4.3-0.5-4.3
	c-0.5,0-1.4,2.4-2.4,5.3l0,0l0,0v-0.5c0-2.9,0.5-5.3,0-5.3s-1.4,1.4-1.9,3.4c0,0,0,0,0,0.5c0-0.5-0.5-1-0.5-1l0,0c0-1,0-1.9-0.5-1.9
	c-0.5,0-1,1-1.4,2.9c0-0.5,0-1-0.5-1c-0.5,0-1,1-1.4,1.9c0-1,0-1.4-0.5-1.4s-0.5,0.5-1,1.4c0-0.5,0-0.5-0.5-0.5
	c-0.5,0-1.4,1.9-1.9,5.3l0,0c-0.5,0-1,0.5-1,1.4c0-0.5-0.5-1-0.5-1c-0.5,0-1,1.9-1,4.8l0,0c0-2.4,0-4.3-1-4.3c0,0-0.5,1-1,1.9
	c0-1-0.5-1.9-0.5-1.9c-0.5,0-1.4,1.9-1.4,5.3c-0.5,0.5-0.5,1-0.5,1.9c0-1.4-0.5-2.9-1-2.9s-1.4,1.9-1.4,4.3c0,0.5,0,1,0,1.4
	c0,0,0,0-0.5,0.5c0,0,0,0-0.5-0.5c-0.5,0-1,0.5-1.4,1.4c0-0.5-0.5-0.5-0.5-0.5c-0.5,0-0.5,0.5-1,1c0-2.4,0-4.3-1-4.3
	c-0.5,0-1.4,2.9-1.9,6.7l0,0l0,0c-0.5,0-1.4,1.9-1.9,4.3c0,0.5,0,1,0,1l-0.5-0.5c-0.5,0-1,1-1.4,2.4l0,0c0-1.4,0-2.9-0.5-2.9
	c-0.5,0-1.4,1.4-1.4,2.9c0-0.5-0.5-1-0.5-1.4c-0.5,0-0.5,0.5-1,1c0-1.4-0.5-2.9-0.5-2.9c-0.5,0-1,1-1.4,2.9c-0.5,0.5-0.5,1-1,1.4
	l0,0c-0.5,0-1,0.5-1,1c0-0.5-0.5-0.5-0.5-0.5c-0.5,0-1,1-1.4,1.9c0-1-0.5-1.4-1-1.4c0,0,0,0-0.5,0c0,0,0-0.5-0.5-0.5
	c-0.5,0-1.4,1.4-1.9,3.8c0,1-0.5,1.9,0,2.9c0,0,0,0-0.5,0l0,0c0-1.9-0.5-3.8-1-3.8c-0.5,0-1.4,1.4-1.4,3.8c0,0.5,0,0.5,0,1
	c0,0,0,0-0.5,0c0,0,0,0,0-0.5c0-1.9-0.5-3.4-1-3.4c0,0-0.5,0-0.5,0.5l0,0c-0.5,0-1,1-1,1.9c0-1-0.5-1.4-1-1.4l0,0
	c0-1.4-0.5-2.9-1-2.9s-1,1.4-1.4,3.4c0,0,0,0-0.5-0.5c-0.5,0-1,0.5-1,1c0-1-0.5-1.9-1-1.9c0,0-0.5,0-0.5,0.5c-0.5,0.5-1,1.4-1.4,3.4
	c-0.5-0.5-0.5-1-1-1h-0.5c0-1-0.5-1.4-1-1.4s-1,1-1.4,2.4c0-0.5-0.5-1-1-1c0-2.4-0.5-4.3-1-4.3s-1,1.4-1.4,3.8l0,0c0,0,0,0-0.5,0
	c0.5-3.4,0.5-5.8,0-6.2c0,0-0.5,0-0.5,0.5c0-0.5,0-0.5-0.5-0.5c-0.5,0-1.4,2.9-1.9,6.7c0,0.5,0,1.4,0,1.9c0-0.5-0.5-0.5-0.5-0.5
	c-0.5,0-1,0.5-1,1.4c0-0.5,0-0.5,0-0.5c0-3.4,0-6.2-1-6.2c-0.5,0-1,1.4-1.4,3.4c-0.5,0.5-0.5,1.9-1,2.9c0-1-0.5-1.9-1-1.9
	c0,0-0.5,0-0.5,0.5l0,0c-0.5,0-1.4,1-1.4,1.9l-0.5-0.5c-0.5,0-1,0.5-1.4,1.4l0,0c0-1-0.5-1.4-1-1.4c0,0-0.5,0-0.5,0.5
	c0-1-0.5-1.9-1-1.9s-1.4,2.4-1.4,5.3l0,0l0,0c0-0.5,0-0.5,0-1c0-3.8,0-7.2-1-7.2c-0.5,0-1.4,3.4-1.4,7.2v0.5c-0.5,0-0.5,0-1,0.5
	c0-0.5-0.5-0.5-0.5-0.5h-0.5l0,0c-0.5,0-1,0.5-1.4,1.9c0,0,0,0-0.5,0s-1,0.5-1,1.4c0-1-0.5-1.4-1-1.4c0,0-0.5,0-0.5,0.5
	c0-1-0.5-1.4-1-1.4s-0.5,0.5-1,1c0-1.9,0-3.4-0.5-3.4c-0.5,0-1.9,1.9-1.9,5.3c0-0.5,0-0.5-0.5-1c0-1-0.5-1.4-0.5-1.4
	c-0.5,0-1,0.5-1,1h-0.5c-0.5,1-1,2.4-1.9,3.4c0-0.5,0-1.4-0.5-1.9c0,0,0-0.5,0.5-0.5c-0.5,0-0.5,0-1,0s-0.5,0-1-0.5v0.5h-0.5
	c-0.5,0-1-0.5-1.4-0.5v0.5c-0.5,0-0.5,0-1,0c0,0,0,0,0,0.5c0-0.5,0-1,0-1v-1v-0.5c-1,0,2.4-0.5-2.4,0l0,0v0.5v1.9c0,0,0,0,0,0.5l0,0
	c-0.5,0-0.5-0.5-1.4-0.5c0,0.5,0,1,0,1c0,0.5,0,1,0,1.4c0,1,0,1.4,0,1.9l0,0l0,0c0-1,0-1.9-0.5-1.9c-0.5,0-0.5,0-0.5,0.5
	c0-1.4-0.5-2.4-1-2.4c0,0-0.5,0.5-1,1c0-0.5-0.5-1-0.5-1c-0.5,0-1,1.4-1.4,3.4c0-0.5-0.5-1-0.5-1c-0.5,0-0.5,0-1,0.5
	c0-1.4-0.5-2.4-1-2.4s-1,1-1.4,2.4l0,0c0,0-0.5,0-0.5,0.5c0-1.9,0-2.9-0.5-2.9c-0.5,0-1.4,2.4-1.9,5.8l0,0v-0.5c0-2.9-0.5-4.8-1-4.8
	c0,0,0,0-0.5,0c0-0.5-0.5-0.5-0.5-0.5s-0.5,0-0.5,0.5c0-1.4-0.5-2.4-1-2.4c-0.5,0-1,1.9-1.4,4.8c0,0,0,0-0.5,0c0-1-0.5-1.4-0.5-1.4
	c-0.5,0-1.4,1.9-1.4,4.3l-0.5,0.5l0,0c-0.5,0-1,0.5-1.4,1c0-1.4-0.5-2.4-1-2.4c-0.5,0-0.5,0.5-1,1c0-0.5-0.5-0.5-0.5-0.5
	s-0.5,0-0.5,0.5c0-2.4,0-4.8-0.5-4.8c-0.5,0-1,0.5-1,1.4c0-0.5-0.5-0.5-0.5-0.5c-0.5,0-0.5,0.5-1,1l0,0c-0.5,0-1.4,1.4-1.4,3.4l0,0
	c0-1.4-0.5-2.9-1-2.9c0,0-0.5,0-0.5,0.5l0,0c-0.5,0-0.5,0-0.5,0.5c0-1.4-0.5-2.9-1-2.9c-0.5,0-1,1.4-1.4,3.4l0,0c0,0,0,0,0-0.5
	c0.5-3.8,0.5-6.7,0-7.2c-0.5,0-1.4,1.9-1.9,4.8c0-0.5-0.5-0.5-1-0.5l0,0c0.5-1,0-1.9-0.5-1.9s-1.4,0.5-1.9,1.4
	c0-1.4-0.5-2.4-1.4-2.4c-0.5,0-1,1.4-1,3.4c0,0.5,0,1,0,1h-0.5c0-0.5,0-0.5,0-1c0-1.4,0-2.4-1-2.4c-0.5,0-1,0.5-1.4,1.4l0,0
	c0-0.5-0.5-1-1-1s-1,0.5-1.4,1.4l-0.5-0.5c-0.5,0-1,0.5-1,0.5s0,0,0-0.5c0-2.4-0.5-4.3-1-4.3s-1,1-1.4,2.4c0,0.5-0.5,0.5-0.5,1
	c0-1-0.5-1.4-1-1.4c-0.5,0-1,1-1.4,1.9l0,0c0-0.5-0.5-0.5-0.5-0.5c-0.5,0-0.5,0-1,1c0-0.5-0.5-0.5-0.5-1c-0.5,0-0.5,0.5-1,0.5
	c0-1.4-0.5-2.4-1-2.4c-0.5,0-1.4,1.9-1.9,4.3v0.5l0,0c-0.5,0-0.5,0-1,0.5c0-0.5-0.5-0.5-0.5-0.5c-0.5,0-0.5,0.5-1,1
	c0-0.5-0.5-1-0.5-1s0,0-0.5,0c0-0.5-0.5-0.5-0.5-0.5s0,0-0.5,0c0-0.5-0.5-0.5-0.5-0.5c-0.5,0-1.4,1.9-1.4,4.3c0-1.4-1-2.4-1-2.4
	c-0.5,0.5-1,1.4-1.4,3.8c0-1-0.5-1.4-1-1.4c0-1.4-0.5-2.9-0.5-2.9s-0.5,0.5-0.5,1c0-1.4-0.5-1.9-0.5-1.9c-0.5,0-0.5,0.5-1,1.4
	c0-1.4-0.5-1.9-0.5-1.9c-0.5,0-1.4,2.9-1.9,6.7l-0.5-0.5c-0.5,0-1,0.5-1,1.4c0-1.9,0-3.4-0.5-3.4c0,0-0.5,0-0.5,0.5
	c0-1-0.5-1.4-0.5-1.4c-0.5,0-1.4,2.9-1.9,6.7c0-0.5,0-0.5,0-1c0.5-4.3,0.5-8.2-0.5-8.2c-0.5,0-1,1-1.4,2.9c0-0.5-0.5-1-0.5-1
	c-0.5,0-1,1-1.4,2.9l0,0c-0.5,0-0.5,0.5-1,1.4c0,0-0.5,0.5-0.5,1c0,0,0,0-0.5,0l0,0c0-1-0.5-1.4-1-1.4s-1,1-1,1.9c-0.5,0-1,1-1,1.9
	h-0.5c0,0,0,0-0.5,0c0-0.5-0.5-0.5-0.5-0.5c-0.5,0-1,0.5-1,1.9l0,0c0-1.9-0.5-3.4-1-3.4s-1,1-1,2.4c0-1.4-0.5-2.4-1-2.4
	s-1,1-1.4,2.9c0-0.5-0.5-1-1-1c0,0-0.5,0-0.5,0.5c0,0,0-0.5-0.5-0.5c-0.5,0-1,0.5-1.4,1.9c-0.5,0-0.5,1-1,1.9c0,0,0,0-0.5,0
	c-0.5,0-0.5,0-1,1c0,0-0.5,0.5-0.5,1h-0.5l0,0c0-1-0.5-1.9-1-1.9c-0.5,0-0.5,0-1,0.5c0-0.5-0.5-0.5-0.5-0.5h-0.5
	c0-0.5-0.5-1.4-1-1.4h-0.5c0,0,0-0.5-0.5-0.5c0-2.4-0.5-4.3-1-4.3c-0.5,0-0.5,0.5-1,1c0-0.5-0.5-0.5-0.5-0.5l0,0
	c0-2.4-0.5-3.8-1-3.8c-0.5,0-1,1.9-1.4,4.8l0,0c-0.5,0-0.5,0.5-1,1.4c0-1-0.5-1.4-0.5-1.4c-0.5,0-1,1-1.4,1.9c0-1.9-0.5-3.4-1-3.4
	c-0.5,0-1,1-1.4,2.4c0-1-0.5-1.9-1-1.9s-1,1.4-1.4,3.8l0,0l0,0c0,0,0,0-0.5,0c0-1-0.5-1.4-0.5-1.4c0-0.5-0.5-0.5-0.5-0.5
	c-0.5,0-1,1.4-1.4,2.9c0-0.5-0.5-0.5-0.5-0.5s-0.5,0-0.5,0.5c0-2.4,0-4.3-0.5-4.3s-1,1-1.4,2.4c0,0,0-0.5-0.5-0.5c0,0,0,0-0.5,0
	c0-1.4,0-2.9-0.5-2.9c-0.5,0-1,1-1.4,1.9l-0.5-0.5c0-1.4-0.5-2.4-1-2.9c-0.5,0-1,1-1.4,2.9l0,0c0,0,0,0-0.5,0c0-1-0.5-1.4-0.5-1.9
	c0-2.9,0-5.3-1-5.3c-0.5,0-1,1.4-1.4,3.8c-0.5-1.4-1-2.4-1.4-2.4c-0.5,0-1,1.9-0.5,4.3l-0.5-0.5c-0.5,0-0.5,0.5-1,1
	c0-0.5-0.5-1-0.5-1h-0.5c0-0.5-0.5-1-1-1l0,0c0-1-0.5-1.4-1-1.4c-0.5,0-0.5,0-1,0.5v-0.5c0-1.9,0-3.4-1-3.4c-0.5,0-1.4,1-1.4,2.9
	h-0.5c0,0,0,0-0.5,0l0,0c0-1.4-0.5-2.4-1-2.4c-0.5,0-1,1-1.4,1.9l0,0c0,0,0,0-0.5,0l0,0c0-1-0.5-1.4-1-1.9c-0.5,0-1,0.5-1.4,1.4
	c-0.5,0-0.5,0.5-0.5,0.5l0,0c0,0,0,0-0.5,0c0,0-0.5-0.5-1-0.5c0,0,0,0-0.5,0c0-0.5-0.5-1-1-1s-0.5,0-1,0.5h-0.5l0,0
	c0-1-0.5-1.4-1-1.4l0,0c0-0.5-0.5-0.5-1-0.5c0,0,0,0-0.5,0c0-0.5-0.5-1-1-1.4c0-0.5-0.5-1.4-1-1.4c0,0-0.5,0-0.5,0.5l-0.5-0.5
	c-0.5,0-0.5,0.5-1,1c0-0.5-0.5-0.5-0.5-0.5c-0.5,0-1,0.5-1,1.4c0-0.5,0-1.4,0-2.4c-0.5,0-1,0-1,0l0,0v-0.5h-0.5
	c-0.5-0.5-1-0.5-1.9-0.5c0,0,0,0.5-0.5,0.5c-1-0.5-1,0-1,0c0-0.5-0.5-0.5-0.5-0.5c-0.5,0-1.4,1-1.9,2.4c0,0.5,0,1,0,1.4h-0.5
	c0-1-0.5-1.4-1-1.4c-0.5,0-0.5,0-1,0.5c0-1-0.5-2.4-1-2.4c-0.5,0-1,0.5-1.4,1.4l-0.5-0.5c-0.5,0-0.5,0-0.5,0.5l0,0c0,0,0,0-0.5,0
	c0-1.4-0.5-1.9-1-1.9c0,0,0,0-0.5,0c0-0.5-0.5-1-1-1.4c-0.5,0-1,1-1.4,2.4l0,0c0-0.5-0.5-0.5-0.5-0.5c0-0.5-0.5-1-1-1
	c0,0-0.5,0-0.5,0.5l0,0c-0.5,0-0.5,0.5-1,1c0-0.5,0-0.5,0-1c0-3.4,0-6.2-1-6.2c-0.5,0-1.4,2.9-1.4,6.2l0,0c0,0.5,0,0.5-0.5,1h-0.5
	h-0.5l0,0c0,0,0,0-0.5,0c0-0.5-0.5-1.4-1-1.4H937c0-0.5-0.5-1-1-1c-0.5,0-1.4,1-1.4,2.4v0.5l0,0c0-0.5-0.5-1-0.5-1
	c0-2.9-0.5-4.8-1-4.8c-0.5,0-1.4,2.4-1.4,5.8v0.5c0,0,0,0-0.5,0c0,0,0,0-0.5,0c0-0.5-0.5-0.5-1-0.5c0,0-0.5,0-0.5,0.5
	c0,0-0.5-0.5-1-0.5c-0.5,0-0.5,0-0.5,0c0-0.5-0.5-1.4-1.4-1.4l0,0c0-1.4-0.5-2.4-1-2.4s-0.5,0-1,0.5c0,0-0.5,0-0.5,0.5
	c0-3.4-0.5-6.2-1.4-6.2c-0.5,0-1.4,2.9-1.4,6.2c0,0.5,0,1.4,0,1.9l0,0V682c0-2.4-1-3.8-1.4-3.8c-0.5,0-0.5,0.5-1,1.9
	c0,0,0-0.5-0.5-0.5c-0.5,0-0.5,0.5-1,1c0-0.5-0.5-0.5-1-0.5c-0.5,0-1.4,1-1.4,1.9v0.5h-0.5c0-1-0.5-1.9-1-2.4c0-0.5-0.5-1-1-1.4
	c0-1-0.5-1.9-1-1.9s-1,0-1,1c0-0.5-0.5-1-0.5-1c-0.5,0-1,0.5-1.4,1.4l0,0c0-0.5-0.5-1-1-1c-0.5,0-1,1-1,1.9l-0.5-0.5
	c0-1.4-0.5-2.9-1-2.9l0,0c0-2.9,0-4.3-0.5-4.8c-0.5,0-1.4,2.4-1.9,6.2c0-0.5-0.5-1-1-1c0-0.5-0.5-0.5-1-1c-0.5,0-0.5,0-0.5,0.5
	c0-1.4-0.5-2.4-0.5-2.4c-0.5,0-1,0.5-1.4,1.4c0-0.5-0.5-0.5-0.5-0.5c-0.5,0-1.4,1-1.4,2.9c0,0.5,0,0.5,0,0.5l0,0
	c0-1.4,0-2.9-0.5-2.9s-0.5,0-1,0.5h-0.5c-0.5,0-1.4,0.5-1.4,1.4c0,0.5,0,0.5,0,1c-0.5,0-0.5,0-1,0.5c0-0.5,0-0.5,0-1
	c0.5-2.4,0-4.3-1-4.8c-0.5,0-1,1-1.4,2.9c-0.5,0-1,1-1.4,1.9l0,0c-0.5,0-1,0.5-1,1c0-0.5-0.5-0.5-0.5-0.5s0,0-0.5,0
	c0-1.4-0.5-2.4-1-2.4c-0.5,0-1.4,1.4-1.4,3.4c0,0,0,0-0.5,0c0-0.5-0.5-1-0.5-1c-0.5,0-1,1-1.4,1.9c-0.5,0.5-1,1.4-1,2.9
	c0,0,0,0-0.5,0.5l0,0c-0.5,0-1.4,1-1.9,2.4l0,0h-0.5c0-1-0.5-1.4-1-1.4l0,0c0-0.5,0-0.5,0-1l0,0c0.5-2.9,0.5-5.8-0.5-5.8l-0.5,0.5
	c0-0.5,0-0.5-0.5-0.5c-0.5,0-1.4,2.4-1.9,5.3c0-0.5-0.5-0.5-0.5-0.5c-0.5,0-1.4,0.5-1.4,1.9c0,1,0,1.4,1,1.9l0,0
	c-0.5-0.5-1-0.5-1.4-1c0-0.5,0-1,0-1.4c0-1.9-0.5-3.4-1.4-3.4c-0.5,0-0.5,0.5-1,1c0-0.5-0.5-0.5-0.5-0.5v-0.5c0.5-2.9,0-5.8-0.5-5.8
	c-0.5,0-1.4,2.4-1.9,5.8c0,0.5,0,1.4,0,1.9c-0.5,0-0.5-0.5-1-0.5c0-0.5,0-1,0-1.4c0.5-2.4,0-4.8-1-4.8c0,0-0.5,0-0.5,0.5
	c0-1.4-0.5-2.4-1-2.4c-0.5,0-1.4,1.9-1.4,4.3c0,0.5,0,1,0,1.4h-0.5c0-0.5,0-1,0-1c0.5-2.4,0.5-4.8-0.5-4.8c0,0-0.5,0-0.5,0.5
	c0-0.5-0.5-1-1-1c-0.5,0-1,0.5-1,1.9c0,0,0,0-0.5,0c-0.5,0-0.5,0-1,0.5c0.5-1.9,0-3.8-0.5-3.8c-0.5,0-1,0.5-1.4,1.9
	c-0.5,0.5-1,1-1,2.4l0,0c0-0.5,0-1.4,0-1.9c0.5-2.9,0-5.3-0.5-5.3s-1,1-1.4,2.9c0.5-2.9,0-5.8-0.5-5.8s-1.4,1.9-1.9,4.3l0,0
	c0-0.5,0-1,0-1c0-2.9-0.5-5.8-1-5.8c-0.5,0-0.5,0.5-1,1c0,0,0-0.5-0.5-0.5c-0.5,0-1,0.5-1.4,1.9c0,0,0,0-0.5,0c-0.5,0-1,0.5-1.4,1.4
	c0-1-0.5-1.4-1-1.4c-0.5,0-1,0.5-1,1.9l-0.5-0.5h-0.5c0-0.5-0.5-1-1-1c-0.5,0-1,0.5-1.4,1.4c-1-0.5-1.4-1-2.4-1.4
	c0-1.4-0.5-2.4-1-2.4s-1,0.5-1,1.4c-0.5,0-0.5-0.5-1-0.5c0.5-2.9,0.5-5.3-0.5-5.3c-0.5,0-0.5,0.5-1,1c0-0.5-0.5-0.5-0.5-1
	c-0.5,0-1.4,1-1.4,2.9c0-0.5-0.5-1-1-1c0,0,0,0,0-0.5c0-1-0.5-1.9-1-2.4H827c0-1-0.5-1.4-1-1.4h-0.5c0-1.4,0-2.9-0.5-2.9
	s-1,1-1.4,1.9c0,0-0.5,0-0.5,0.5c0-1-0.5-1.9-1-1.9l0,0c0-1-0.5-1.4-1-1.4c-0.5,0-1.4,1.4-1.4,3.8l0,0c0-1,0-1.9,0-2.9
	c0.5-2.9,0-5.3-0.5-5.3s-1,0.5-1,1.9l0,0c0-1-0.5-1.4-1-1.4c-0.5,0-1,1-1,2.4c0-1.9-0.5-3.4-1-2.9c0,0-0.5,0.5-0.5,1
	c0-1-0.5-1.4-0.5-1.4s-0.5,0-0.5,0.5c0-1.4-0.5-2.4-0.5-2.9c0-1,0-1.9-0.5-1.9c-0.5,0-0.5,0.5-1,1.4c0-1-0.5-1.9-0.5-1.9
	c-0.5,0-1,1-1.4,1.9c0.5-1.9,0-3.8-0.5-3.8s-1.4,1.4-1.9,3.8c0-1-0.5-1.4-0.5-1.4c-0.5,0-1,1-1.4,2.4l0,0l0,0c0-0.5-0.5-0.5-0.5-0.5
	c0-0.5-0.5-1-1-1l0,0l0,0c0.5-2.4,0.5-4.3-0.5-4.3c-0.5,0-1.4,1.9-1.9,4.3v0.5c0,0,0,0,0,0.5l0,0l0,0c0-0.5,0-1.4,0-2.4
	c0.5-2.9,0-5.3-0.5-5.3s-1.4,1.9-1.9,5.3c0,0.5,0,0.5,0,1c-0.5,0-0.5-0.5-1-0.5c0-0.5,0.5-1,0.5-1.9c0.5-1.4,0-3.4-0.5-3.4
	c-0.5,0-1,0.5-1,1c0.5-2.4,0-4.3-0.5-4.3c-0.5,0-0.5,0.5-1,1c0-2.9-1-5.3-1.4-5.3s-1,2.4-1,5.8c0,1.9,0.5,3.4,1,4.3
	c0,0-0.5,0-0.5-0.5c-0.5,0-0.5-0.5-1-0.5c0.5-1,0.5-2.4,0-3.8c0.5-2.4,0-4.3-0.5-4.8c-0.5,0-1.4,1.4-1.9,3.8V635
	c0.5-2.4,0-4.8-0.5-5.3c-0.5,0-1,1-1.4,2.4c0-1.9,0-2.9-0.5-3.4c-0.5,0-1,1-1.4,2.4c0-1-0.5-1.9-1-1.9c-0.5,0-1,1-1.4,1.9
	c0-1-0.5-1.4-0.5-1.4h-0.5c0-1.4,0-2.4-0.5-2.4s-1,0.5-1.4,1.9l0,0c0-1-0.5-1.9-1-1.9l0,0c0-2.4,0-3.8-0.5-3.8c0,0-0.5,0-0.5,0.5
	c0-1.4,0-2.9-0.5-2.9s-1.9,2.9-2.4,6.7c0,0-0.5,0-0.5-0.5c0.5-4.3,0.5-7.7,0-7.7c-0.5,0-1,1.4-1.4,3.8c0-1-0.5-1.9-1-1.9
	c-0.5,0-0.5,0.5-1,0.5c0-1.4-0.5-2.9-1-2.9c-0.5,0-1,0.5-1,1.4c0,0,0,0-0.5,0c0-0.5-0.5-1-0.5-1h-0.5c0-0.5-0.5-1-1-1
	c0,0-0.5,0-0.5,0.5c0-1.4,0-2.4-0.5-2.4l0,0c0-1-0.5-1.4-1-1.9c0,0-0.5,0-0.5,0.5l-0.5-0.5c-0.5,0-1,0.5-1.4,1c0-2.9,0-4.8-1-4.8
	c-0.5,0-1,1.4-1.4,2.9l0,0v-0.5c0-1-0.5-2.4-1-2.4c-0.5,0-0.5,0-1,0.5c0,0,0-0.5-0.5-0.5h-0.5c0,0,0,0-0.5,0v-0.5
	c0-1-0.5-1.4-1.4-1.9c0-1-0.5-1.4-1-1.9c-0.5,0-0.5,0-1,0.5c0-1.9,0-3.4-0.5-3.4h-0.5c-0.5-1-0.5-1.9-1-1.9s-1,1-1,2.4l-0.5-0.5
	c-0.5,0-1,0.5-1.4,1.4l0,0c0-3.4-0.5-5.8-1-5.8c-0.5,0-0.5,0.5-1,1.4c0-1-0.5-1.4-1-1.4c-0.5,0-1.4,1.9-1.4,3.8c0,0.5,0,1,0,1
	l-0.5,0.5l0,0l0.5-0.5c0-0.5-0.5-1-1-1c-0.5,0-0.5,0-1,0c0-0.5-0.5-1-1-1c0-0.5-0.5-1-1-1.4l0,0c0-1-0.5-1.9-1-1.9h-0.5
	c0-2.4,0-4.8-0.5-4.8s-1,1-1.4,2.9c0-1.4-0.5-2.4-0.5-2.4c-0.5,0-0.5,0.5-1,1.4c0-0.5-0.5-1-0.5-1c-0.5,0-1.4,2.4-1.4,5.8
	c0,0.5,0,0.5,0,1l0,0c0,0,0,0-0.5,0c0-1.9-0.5-3.4-1-3.4s-0.5,0-1,0.5c0,0-0.5,0-0.5,0.5c0-1,0-1.9-0.5-1.9c-0.5,0-1,1-1.4,1.9
	c0-0.5-0.5-0.5-0.5-1c-0.5,0-0.5,0-1,0.5l0,0c0-1,0-1.9-0.5-1.9s-0.5,0-1,0.5c0-0.5-0.5-0.5-0.5-0.5h-0.5l0,0c-0.5,0-1,0.5-1.4,1.4
	c0,0,0,0,0-0.5l0,0c0.5-1.9,0-3.4-0.5-3.4s-0.5,0-1,0.5l0,0c-0.5,0-0.5,0-1,0.5l-0.5-0.5c0-1.4-0.5-2.4-1-2.4c-0.5,0-0.5,0.5-1,1
	c0,0-0.5,0-0.5,0.5c0-0.5-0.5-0.5-0.5-0.5h-0.5c0-0.5-0.5-1-0.5-1s0,0-0.5,0c0-0.5-0.5-1-1-1.4h-0.5l0,0c0,0,0,0-0.5,0
	c0-0.5-0.5-1-1-1l0,0c0-1.4-0.5-1.9-1-1.9c-0.5,0-1.4,1.4-1.4,3.4l0,0c-0.5,0-0.5,0-1,0c0.5-1.9,0-3.4-0.5-3.4h-0.5l-0.5-0.5
	c-0.5,0-1,0.5-1,1c0-1.4-0.5-2.4-1-2.4c0,0-0.5,0-0.5,0.5c0,0,0-0.5-0.5-0.5c-0.5,0-1.4,1.4-1.4,3.4c0,0.5,0,1,0,1l0,0
	c0-0.5,0-1,0-1.4c0-1.9,0-3.8-1-3.8c0-0.5-0.5-1-0.5-1c-0.5,0-0.5,0-1,1c0-1.4,0-2.4-0.5-2.9c0,0-0.5,0-0.5,0.5
	c0-0.5-0.5-0.5-0.5-0.5s-0.5,0-0.5,0.5l-0.5,0.5c0-1-0.5-1.4-0.5-1.4c-0.5,0-1,1-1.4,2.9c0,0,0-0.5-0.5-0.5h-0.5
	c0.5-3.4,0-5.8-0.5-6.2c-0.5,0-1,1-1.4,2.9c0-1.9,0-2.9-0.5-2.9c0,0,0,0,0-0.5c0.5-2.9,1-4.8,0.5-5.3c0,0-0.5,0-1,0.5
	c0-0.5-0.5-0.5-0.5-0.5c0-1-0.5-1.4-0.5-1.4s-0.5,0-0.5,0.5l0,0c-0.5,0-1,0-1,0.5l-0.5-0.5h-0.5c0-0.5,0.5-1,0.5-1.4
	c0-1.4-0.5-2.4-1-2.4c0,0-0.5,0-0.5,0.5c0-0.5-0.5-0.5-1-0.5c-0.5,0-0.5,0-1,0.5c0,0,0,0,0-0.5c0.5-1.4,0-2.9-1-2.9l0,0
	c0-1-0.5-1.9-1-1.9s-1.4,1-1.4,2.4s0.5,2.4,1,2.9l0,0c-0.5-0.5-1-1-1.4-1c0-0.5,0.5-1,0.5-1.4c0-1.9,0-3.4-1-3.4c0,0-0.5,0-0.5,0.5
	l0,0c-0.5,0-1,0-1,0.5c0,0,0,0-0.5,0H683c0-0.5-0.5-0.5-0.5-0.5c0-0.5-0.5-1-1-1c-0.5,0-0.5,0-1,0.5c0-1-0.5-1.4-1-1.4
	c-0.5,0-1.4,1-1.4,2.4v0.5h-0.5v-0.5c0.5-1.4,0-2.9-0.5-3.4c-0.5,0-1,0-1,1l0,0c-0.5,0-1,0.5-1.4,1.4c-0.5-0.5-0.5-0.5-1-0.5
	c0-1,0-1.4-0.5-1.9c-0.5,0-0.5,0-1,0.5c-0.5-1.4-1-2.4-1.4-2.4s-0.5,0.5-1,1l0,0l0,0c0,0-0.5,0-0.5,0.5l-0.5-0.5c-0.5,0-0.5,0-1,0.5
	c0,0,0,0,0-0.5s0-0.5,0-1c0-1.4-0.5-2.4-1-2.4c-0.5,0-1.4,1-1.4,2.4c0,0.5,0,0.5,0,1c0,0.5-0.5,1-0.5,1.4c0,0,0,0,0,0.5
	c0,0,0,0-0.5,0l0,0c0-0.5-0.5-0.5-1-1c-0.5,0-1,0-1,0.5c-0.5,0-0.5,0.5-1,1c-0.5,0-0.5-0.5-0.5-1c0,0,0-0.5,0,0c0-1-0.5-1.4-1-1.4
	c-0.5,0-1,0.5-1,1.4H659c0-0.5-0.5-1-0.5-1h-0.5c0-1-0.5-1.4-1-1.4c-0.5,0-1,0.5-1,1.4l-0.5-0.5c-0.5-0.5-1,0-1.4,1
	c-0.5-0.5-0.5-1-1-1c-0.5,0-1,0.5-1,1.4l-0.5-0.5h-0.5c-0.5-1-1-1.9-1.4-1.9c-0.5,0-1,0.5-1,1.4c-0.5-0.5-0.5-0.5-1-1
	c-0.5,0-0.5,0-0.5,0l0,0c-0.5,0-0.5,0-1,0.5c0,0-0.5,0-1,0l0,0h-0.5l-0.5-0.5c-0.5,0-0.5,0-1,0.5c0-0.5-0.5-0.5-0.5-1h-0.5
	c0-0.5-0.5-0.5-0.5-0.5c-0.5,0-1,0.5-1.4,1.4l0,0c0-1.4-0.5-2.9-1-3.4l0,0c-0.5-1-2.4-2.4-3.4,1c-0.5,0.5-0.5,1-0.5,1.4
	c-0.5-0.5-0.5-0.5-1-0.5c0-1-0.5-1.4-1-1.4h-0.5c0,0-0.5,0-0.5-0.5h-0.5l-0.5-0.5c-0.5,0-1,0-1,1l0,0c0-0.5,0-1,0-1
	c0.5-0.5,0-0.5-0.5-0.5c0,0,0,0-0.5,0c-0.5-0.5-1.9,0-1.9,1l-0.5-0.5c-0.5,0-0.5,0-1,0.5c0-0.5-0.5-1-1-1.4c-0.5-0.5-1,0-1.4,0.5
	l0,0c0-0.5,0-1,0.5-1.4V552c0,0,0,0,0-0.5l0,0l0,0c-0.5,0-1-0.5-1.9-0.5v0.5l0,0v0.5c0,0,0,0-0.5,0.5l0,0c0.5-1.9,0-3.4-0.5-3.4
	s-1,0.5-1.4,1c0,0,0,0-0.5,0s-1,1-1.4,2.4c0-0.5-0.5-1-1-1c-0.5,0-1,0.5-1,1l0,0c0.5-1.4,0-2.9-0.5-2.9l0,0c0-0.5-0.5-0.5-0.5-0.5
	c-0.5,0-1,0.5-1,1c0,0,0,0,0-0.5c0,0,0,0,0-0.5c0-0.5-0.5-1-1-1.4c-0.5-0.5-0.5-0.5-1-0.5s-0.5,0-0.5,0.5c0-1-0.5-1.4-1-1.4
	c-0.5,0-1,0.5-1,1c0-0.5-0.5-1-0.5-1h-0.5c0-1.9-0.5-2.9-1-2.9c-0.5,0-1,1-1.4,2.9l0,0c0-1-0.5-1.9-1.4-1.9l0,0c0-0.5,0-0.5,0-1
	c1-1.4,0-2.4-0.5-2.9c1-1-2.9-0.5-1.9,2.9v0.5h-0.5l0,0c-0.5,0-1-0.5-1.4-0.5c0-0.5,0-0.5-0.5-0.5l0,0h-0.5c0-0.5-0.5-1-1-1
	c0,0,0,0-0.5,0c-0.5-1-0.5-1.4-1-1.4s-0.5,0.5-0.5,1c0-1.4-0.5-1.9-1-1.9c0,0-0.5,0.5-0.5,1c-0.5-1.4-1-2.4-1-1.9c0,0-0.5,1-1,1.9
	c-1.9,0.5-1.9,1.4-1.9,2.4h-0.5v-0.5l-0.5,0.5c0,0-0.5,0-0.5-0.5c0,0,0,0,0,0.5c-0.5,0-1-0.5-2.4-0.5c-0.5-0.5-0.5-1-1.4-0.5l0,0
	c0-1-0.5-1.4-1-1.4s-1.4,1.4-1.4,3.4v0.5c-0.5,0-0.5,0-1,0v-0.5c0-1-0.5-1.9-1-2.4c-0.5,0-1.4,0.5-1.4,1.9c0,0.5,0,0.5,0,1
	c-0.5,0-0.5,0-1,0c0-0.5,0-1-0.5-1.4c0.5-0.5,0-0.5,0,0c-0.5-0.5-0.5-0.5,0,0c-0.5,0-1,0.5-1.4,0.5c-0.5,0-0.5,0-1-0.5
	c0-1-0.5-1.4-1-1.9c-0.5,0-1,0.5-1.4,1c0-0.5-0.5-1-0.5-1.9c0-1-1.4,0.5-1.9,2.4v0.5h-0.5v-0.5c0-1.4-0.5-2.4-1-2.4s-0.5,0-1,0.5
	c0-0.5,0-1-0.5-1c0-0.5,0-0.5-0.5-0.5c0-1-0.5-1.9-1-1.9s-1,1.4-1,2.9c0-0.5-0.5-1-1-1.4c0,0,0,0-0.5,0c0-0.5-0.5-1-0.5-1
	c-0.5,0-0.5,0-1,0.5c0.5-3.8,0-6.7-0.5-6.7c0,0-0.5,0.5-1,1c0-0.5-0.5-1-0.5-1c-0.5,0-1.4,2.9-1,6.2c0,0.5,0,1,0,1
	c0-1-0.5-1.4-1-1.4c-0.5,0-1.4,1-1.4,1.9c0-1.4-0.5-2.9-1-2.9h-0.5c0-1-0.5-1.9-1-1.9c-0.5,0-1,1-1.4,2.4c0-0.5-0.5-0.5-0.5-0.5
	c-0.5,0-1,1-1,1.4c-0.5,0.5-1,1.4-1.4,2.4v0.5l0,0c0-0.5,0-1,0-1c0.5-1,0.5-1.4,0-1.9c0-1.4-0.5-2.4-1-2.4s-0.5,0.5-1,1.4
	c0-0.5-0.5-0.5-0.5-0.5l-0.5,0.5c0-1.4,0-2.4-0.5-2.4s-0.5,0-1,1c-0.5,0-1,0.5-1,1.4h-0.5c-0.5,0-0.5,0.5-1,1
	c-0.5-1.4-0.5-2.4-1-2.4c-0.5-0.5-0.5-1-1-1s-1,1.4-1,3.4c0-0.5-0.5-1-1-1c0,0-0.5,0-0.5,0.5c-0.5-1.4-1-2.9-1.4-2.9
	c-0.5,0-0.5,1-0.5,1.9c-0.5-0.5-0.5-1-1-1s-0.5,0.5-0.5,1c-0.5-1.9-1-3.4-1.4-2.9c-0.5,0-0.5,0.5-0.5,1c-0.5-0.5-1.4-0.5-1.9,0h-0.5
	c0-0.5,0-1-0.5-1c0-0.5,0-0.5,0-1c-0.5,0-0.5,0-0.5,0.5c0-2.4-0.5-3.8-1-3.8s-1,1-1,2.9l0,0l0,0c0.5-1.4-1-0.5-1.4,1c0,0,0,0,0,0.5
	c0-0.5-0.5-0.5-0.5-0.5l0,0c0-1,0-1.9,0-2.9c0-3.4-0.5-6.2-1-6.2s-0.5,0.5-0.5,1l0,0c-0.5-0.5-1.9,3.4-1.4,8.2
	c0,1.4,0.5,2.9,0.5,3.8c0-1-0.5-2.4-1-3.8c-1.9-0.5-2.4-0.5-2.9,0.5l-0.5,0.5c0,0-0.5-0.5-1-0.5c0,0.5,0,1,0,1.4s-0.5,0.5-0.5,1
	h-0.5c0,0-0.5,0-0.5-0.5c0-1.4-0.5-1.9-0.5-1.9c-0.5,0-1,0.5-1,1.9l0,0h-0.5c-0.5-1-0.5-1.9-1-1.9s-0.5,1-0.5,2.4
	c-0.5-0.5-0.5-0.5-1-0.5l-0.5,0.5c0,0,0,0,0-0.5c-0.5-1.4-1-2.4-1.4-2.4c-0.5,0-0.5,1-1,2.4c0-0.5,0-0.5-0.5-0.5l0,0
	c0.5-3.8-0.5-6.2-1-6.2c-0.5,0-1,3.4-1.4,7.2c-0.5,0-0.5,0.5,0,1l0,0l0,0c0,0,0,0-0.5,0c-0.5-1.4-1-1.9-1.4-1.9c0,0-0.5,0-0.5,0.5
	c0,0,0-0.5-0.5-0.5c-0.5,0-0.5,0.5-1,1l-0.5-0.5c-1.4-1.4-1.9-0.5-1.4,1.4c0,0,0,0-0.5,0c0,0.5,0,1,0,1l0,0c0-0.5-0.5-1.4-1.9-1.4
	l0,0c-0.5,0-0.5,0-1,0c-0.5,0-0.5,0-1,0c0,0,0,0-0.5,0.5l0,0c0,0,0-0.5-0.5-0.5c0.5-3.4-0.5-2.9-1-1.9c0,0,0,0,0-0.5
	c0-1.4-0.5-1.9-0.5-1.9c0,0.5-0.5,1-0.5,1.4c-0.5-0.5-0.5-1-1-1.4c0,0-0.5,0-0.5,0.5c0-0.5-0.5-1-0.5-1l0,0c0.5-2.9,0-5.3-0.5-5.3
	s-1.4,2.4-1.9,5.3c0,1,0,1.4,0,1.9l-0.5,0.5c-0.5-1.4-1-2.4-1.4-2.4c-0.5,0-0.5,0.5-0.5,1c-0.5-0.5-1-1-1-1s-0.5,0.5-0.5,1
	c0,0,0,0-0.5,0c0,0,0,0-0.5,0c0-0.5-0.5-1-1-1c-0.5,0-0.5,0.5-1,1c0-0.5-0.5-1-1-1c-0.5,0-0.5,0.5-1,1c-0.5-1-1-1.4-1-1.4
	c0-2.4-0.5-4.3-1-4.8c-0.5,0-1,1.9-1.4,4.3v0.5c0,0,0,0-0.5-0.5l-0.5-0.5c-0.5-0.5-0.5-1.4-1-1.4c-0.5,0-0.5,0-0.5,0.5
	c-0.5-1.4-1-2.4-1.4-2.4c0,0-0.5,0-0.5,0.5l0,0c-0.5,0-1,0.5-1,1.4c-0.5,0-1,0-1.4,0.5c0,0,0,0-0.5,0c0-1.4-0.5-1.9-1-2.4
	c0,0,0,0-0.5-0.5c-0.5-0.5-1,0.5-1.4,1.4c-0.5-0.5-1-0.5-0.5-1c0-0.5,0-0.5-0.5,0c0-0.5-0.5-0.5-0.5-0.5s0,0-0.5,0
	c0-0.5-0.5-0.5-0.5-0.5c-0.5,0-0.5,0.5-0.5,0.5c0-1.9-0.5-2.9-1.4-2.9c-0.5,0-0.5,0.5-1,1.4l0,0c-0.5,0-1.4,1.9-1.4,4.3
	c0-1-0.5-1.9-1-1.9s-1.4,1.4-1.4,2.9c-0.5,0-0.5,0-1,0v-0.5c0-2.4-0.5-4.8-1-4.8c0,0-0.5,0-0.5,0.5c0-0.5-0.5-0.5-0.5-0.5
	c-0.5,0-1.4,1.9-1.4,4.3c0,0.5,0,1,0,1.4c-0.5,0-1,0-1.4,0c0-0.5,0-1,0-1c0.5-2.4,0.5-4.3,0-4.3c0,0-0.5,0-0.5,0.5
	c0-0.5-0.5-0.5-0.5-0.5c-0.5,0-1,1-1,1.9c0-0.5-0.5-0.5-0.5-0.5l0,0c0-1.9-0.5-2.9-1-2.9c-0.5,0-0.5,0.5-1,1.4c-0.5,1-1,1.9-1,3.8
	c0,0,0,0.5-0.5,0.5c0,0,0,0-0.5,0c0-0.5,0-0.5,0-1c0.5-2.4,0-3.8-0.5-4.3c-0.5,0-0.5,0.5-1,1c0-1-0.5-1.9-1-1.9c-0.5,0-1,0.5-1,1.4
	c-0.5,0-0.5,0.5-0.5,0.5c0-1-0.5-1.4-0.5-1.4c-0.5,0-0.5,0.5-1,1c0,0,0-0.5-0.5-0.5c-0.5,0-1,1.4-1.4,3.4c0-2.9-0.5-4.8-1-4.8
	c-0.5,0-1,1.9-1.4,4.8c0-1.9-0.5-3.4-1-3.4c0,0-0.5,0.5-0.5,1c0-1-0.5-1.4-0.5-1.4c-0.5,0-1,1-1.4,2.9c0,0,0,0-0.5-0.5h-0.5l0,0
	c0,0-0.5,0-0.5,0.5c0-1,0-1.4-0.5-1.4c-0.5,0-0.5,0-1,0.5c0-1-0.5-1.4-1-1.4c-0.5,0-1,1-1.4,2.4l-0.5,0.5c0-2.4-0.5-3.8-1-3.8
	c0,0,0,0-0.5,0c0-0.5-0.5-1-0.5-1c-0.5,0-0.5,0.5-1,1c0-1.4-0.5-1.9-1-2.4c-0.5,0-1,1-1.4,1.9c0,0,0,0-0.5,0c0-0.5-0.5-1-0.5-1
	c-0.5,0-1,0.5-1.4,1.4c0-1-0.5-1.4-1-1.4c-0.5,0-1.4,1-1.4,2.4l-0.5,0.5c0-0.5,0-0.5-0.5-0.5c0,0,0,0-0.5,0c0,0-0.5-0.5-1-0.5
	c-0.5,0-0.5,0-1,0.5c0,0-0.5-0.5-1-0.5c0,0-0.5,0-0.5,0.5l0,0h-0.5l-0.5-0.5c-0.5,0-0.5,0-1,0.5c0-0.5-0.5-0.5-1-1c-0.5,0-1,0.5-1,1
	c0,0,0,0-0.5,0h-0.5l0,0c0-1-0.5-1.4-1.4-1.4c-0.5,0-0.5,0-1,0.5c0,0-0.5-0.5-1-0.5c-0.5,0-0.5,0-1,0.5c-1.4-0.5-3.4-1-4.8-1.4
	c-4.3-1-8.6-1-12-0.5c0,0-0.5-0.5-1-0.5c-0.5,0-1,0.5-1,0.5h-0.5c-0.5,0-1.4-0.5-1.9-0.5c0-1-0.5-1.9-1-1.9s-1,0.5-1.4,1.4
	c-0.5,0-0.5,0-1,0c0-0.5-0.5-0.5-0.5-1c-0.5,0-0.5,0-1,0c0,0,0-0.5-0.5-0.5c0-1-0.5-1.9-1-2.4c-0.5,0-1,0.5-1.4,1.9c0,0,0,0-0.5,0
	l0,0c0-1,0-1.9-1-2.4c-0.5,0-1,0.5-1.4,1.4l0,0h-0.5l0,0c-0.5,0-0.5,0-1,0c0-0.5-0.5-1-1-1c-0.5,0-0.5,0.5-1,0.5c0,0,0,0-0.5,0
	c0-1-0.5-1.9-1-1.9c-0.5,0-1,0.5-1,1c-0.5-0.5-0.5-0.5-1-0.5h-0.5c0-0.5-0.5-1-1-1c-0.5,0-1,1-1,1.9c-0.5,0-0.5,0.5-1,1
	c-1.9-1.4-5.8-1.9-8.2,0c0,0,0,0-0.5,0c0,0-0.5,0-0.5,0.5c-1,0.5-1.4,1.4-1.9,1.9l-0.5-0.5c-0.5,0-0.5,0-0.5,0.5c0-1-0.5-1.9-1-1.9
	c-0.5-0.5-1,1-1.4,2.9c0-0.5-0.5-1-1-1c0-1-0.5-1.4-1-1.4c-0.5,0-1,1-1.4,2.4l-0.5-0.5c0,0,0,0-0.5,0l0,0c0,0-0.5,0-0.5,0.5
	c0-1-0.5-1.4-1-1.4c-0.5,0-0.5,0-1,0.5l0,0c-0.5,0-0.5,0.5-1,1c-0.5-0.5-0.5-1-1-1c-0.5,0-1,1.4-1,2.9c0-0.5,0-0.5-0.5-0.5l0,0h-0.5
	c0-0.5-0.5-1.4-0.5-1.4c-0.5,0-0.5,0.5-1,1c-0.5-1-0.5-1.4-1-1c-0.5,0-1,1.4-1,2.9l0,0c0-1,0-1.4-0.5-1.4c-0.5,0-1,0-1.4,0.5
	c0-1.4-0.5-2.4-1-2.4c-0.5,0-0.5,0.5-1,1l0,0c-0.5,0-1,1.4-1.4,2.9l-0.5-0.5l0,0c0.5-1.9,0.5-3.8,0-4.3c-0.5,0-1,0.5-1,1
	c0-0.5-0.5-0.5-0.5-0.5c-0.5,0-1,0.5-1,1.4c-1-1.9-1.9-3.4-2.4-2.9c0,0-0.5,0.5-0.5,1c0-0.5-0.5-1.4-0.5-1.4c-0.5-0.5-1,0.5-1.4,2.4
	l0,0c0-0.5,0-1,0-1.4c0-1,0-1.9-1-2.4c-0.5-0.5-0.5-0.5-1-0.5l0,0c-0.5-1-1-1-1.4-1c-0.5,0-0.5,1-0.5,1.4l0,0c0,0-0.5,0-0.5-0.5
	c0-0.5,0-1-0.5-1c0-0.5,0-0.5,0-1c0-1.9-1-3.4-1.4-3.4l-0.5,0.5c0-1-0.5-1.4-1-1.4c-0.5,0-0.5,0-0.5,0.5c-0.5-1-1-1.4-1-1.4
	c-0.5,0-1,1-1,1.9c0-0.5,0-1,0-1c0-2.4-0.5-3.8-1-4.3c-0.5,0-1,1.4-1.4,3.8c0-1-0.5-1.4-1-1.4c-0.5,0-1.4,2.4-1.4,5.3c0,0,0,0,0,0.5
	l0,0l0,0l0,0h-0.5c-1.4,0-2.9,0.5-4.3,0.5l-0.5-0.5c-0.5,0-0.5,0-0.5,0.5c0,0,0-0.5-0.5-0.5c0-0.5-0.5-1-1-1c-0.5,0-1.4,1-1.4,2.4
	h-0.5c0-1-0.5-1.4-1-1.4s-1,1-1,1.9c0,0,0,0-0.5,0h-0.5c0-1.4-0.5-2.4-1-2.4c0,0-0.5,0-0.5,0.5c0-0.5,0-1-0.5-1c0,0-0.5,0-1,0.5
	c0-0.5-0.5-0.5-0.5-0.5c-0.5,0-0.5,0.5-1,0.5c-0.5-1-0.5-1.4-1-1.4l-0.5,0.5c-0.5-0.5-0.5-1-1-0.5l0,0c0-1.4,0-2.4-0.5-2.4
	c-0.5,0-0.5,0.5-1,1c0-1,0-1.9,0-1.9c-0.5,0-1.4,1.4-2.4,3.8h-0.5c-0.5,0-0.5,0.5-1,1c0-0.5-0.5-1-1-1l0,0c0-1.4-1-2.4-1.4-2.4l0,0
	c-0.5-0.5-1-1-0.5,0c0,1,0,1-0.5,1.4c0-0.5-0.5-0.5-1-1c0-1,0-1.4-0.5-1.9h-0.5c0-1.4-0.5-2.9-1-2.9c-0.5,0-0.5,0.5-1,0.5
	c0-1-0.5-1.4-1-1.4s-0.5,0.5-1,0.5l-0.5-0.5c-0.5,0-0.5,0-1,0.5c0-0.5-0.5-1-1-1l0,0c0-0.5-0.5-0.5-0.5-1c0-1-0.5-1.4-1-1.4
	c0,0-0.5,0-0.5,0.5c-0.5-0.5-0.5-0.5-1-1v-0.5c0-0.5,0-0.5,0-1c0,0,0,0,0-0.5c0-1.4-1-2.9-1.4-2.9c-0.5,0-1,1-1,1.9c0,0,0,0-0.5,0
	c0-1.4,0-2.4-0.5-2.9c0,0-0.5,0-0.5,0.5c0-2.4,0-4.3-1-4.3c-0.5,0-1,1.4-1.4,3.8l0,0c0,0,0-0.5-0.5-0.5c0-0.5-0.5-1-0.5-1
	c0-2.4,0-3.8-0.5-4.3c-0.5,0-1.4,2.4-1.9,5.8c-0.5-1-0.5-1.9-1-1.9c-0.5,0-0.5,0.5-1,1l-0.5-0.5c-0.5,0-0.5,0.5-0.5,0.5s0,0,0-0.5
	c0-1.4,0-2.4-1-2.9c-0.5,0-0.5,0-1,0.5c-0.5-1-1-1.9-1.4-1.4c-0.5,0.5-0.5,1-1,1.4l0,0c0-0.5-0.5-1-1-1l0,0c0-1-0.5-1.4-1-1.4H251
	h-0.5c-0.5,0-0.5,0-1,0.5l0,0l0,0c0-1,0-1.9-0.5-1.9c-0.5,0-1.4,1.4-1.9,2.9v0.5l0,0c0-1.4-0.5-1.9-1-1.9c0-1-0.5-1.9-1-1.9
	c-0.5,0-0.5,0-1,0.5l0,0c-0.5,0-1.4,1-1.4,2.4c0,0,0,0,0,0.5c0-1-1-1.9-1.4-1.9c-0.5,0-0.5,0.5-1,1.4c0-1-0.5-1.4-1-1.4
	c-0.5,0-1.4,0.5-1.4,1.4c0,0,0,0,0,0.5h-0.5c-0.5,0-1,0-1,0l0.5-0.5c0-0.5-2.9-0.5-5.8,1l0,0c-0.5,0-1,0.5-1.9,1c0-1-0.5-1.9-1-1.9
	c-0.5,0-1,1-1.4,1.9l0,0c-0.5,0-1.4,1-1.4,1.9l0,0c0,0-0.5,0-0.5,0.5l0,0c1-1.9,1.4-3.4,1-3.8c-0.5,0-1,0-1.4,1c0,0,0-0.5-0.5-0.5
	s-1,1-1.4,1.9c0,0,0,0,0,0.5c-0.5,0.5-0.5,0.5-1,1c0-1.4,0-2.4-0.5-2.4c-0.5,0-1,0.5-1.4,1.4l0,0c-0.5,0-1,1-1.4,2.4
	c0-1,0-1.4-0.5-1.9c0,0,0,0-0.5,0c0-1.4,0-2.4-0.5-2.4s-1.4,1.9-1.9,5.3c0-1.4-0.5-2.4-1-2.4c-0.5,0-1.4,2.4-1.4,5.3l0,0l0,0
	c0-1,0-1.4-0.5-1.4s-1.4,1.4-2.4,3.8c-0.5,0.5-0.5,0.5-1,1c-1.4,1.4-1.9,2.9-2.4,4.8c-0.5,0.5-0.5,1.4-1,2.4c0-1-0.5-1.4-0.5-1.4
	c-0.5,0-1.4,1.9-1.9,4.3c0-1.9,0-2.9-0.5-3.4c-0.5,0-1,1-1.4,2.4c0,0,0,0-0.5,0s-0.5,0.5-1,1l0,0c0,0-0.5,0-1,0.5
	c0-0.5-0.5-0.5-0.5-0.5h-0.5c0-0.5-0.5-0.5-0.5-0.5c-0.5,0-0.5,0.5-1,0.5h-0.5l0,0c0-0.5,0-1-0.5-1s-1,0.5-1.9,1.4
	c0-1,0-1.4-0.5-1.9c-0.5,0-0.5,0.5-1,1l-0.5-0.5c-0.5,0-1.4,1.9-1.4,4.3l0,0l0,0c0-0.5,0-0.5,0-1c0-1-0.5-1.4-0.5-1.9
	c0-1.4,0-2.4,0-2.4c-0.5-0.5-1,0.5-1.9,1.9l-0.5-0.5c-0.5,0-1,1-1.4,2.4c0-0.5,0-1-0.5-1c0,0-0.5,0-0.5,0.5l-0.5-0.5l0,0
	c0-1.4-0.5-2.4-1-2.4c-0.5,0-1.4,1.4-1.4,3.8c0,0,0,0,0,0.5s-0.5,1-0.5,1.4l0,0c0-0.5-0.5-0.5-0.5-0.5c0-0.5-0.5-0.5-1,0
	c0-0.5-0.5-1.4-0.5-1.4c-0.5,0-1.4,0.5-1.4,1.4c0-0.5-0.5-0.5-0.5-1h-0.5c0-1-0.5-1.9-1-1.9c-0.5,0-1,0.5-1,1.4c0-0.5-0.5-1.4-1-1.4
	c-0.5,0-0.5,0.5-1,1c-0.5-0.5-0.5-0.5-1-0.5c-0.5,0-0.5,0.5-1,1c-1.4-1-3.4-1.9-5.8-2.9c0,0,0-0.5-0.5,0c-0.5,0-1.4-0.5-1.9-0.5
	c0.5-1.9-0.5-1-0.5,0c-0.5,0-1,0-1.4-0.5c0.5-1-0.5-0.5-1,0h-0.5l0,0c-1-0.5,2.9-0.5-1.9-1.4v1c-1.4,0-3.4,0-4.8,0.5
	c-1.4,0-2.9,0-4.3,0.5c-0.5,0-0.5,0-1,0c0-0.5-0.5-0.5-0.5,0c0,0,0,0-0.5,0l0,0c0-0.5,0-1,0-1.4c0,0,0.5-0.5,0.5-1.4
	c-2.9-0.5-2.9,0.5-2.4,1l0,0h-0.5c0-1.4,0-2.4-0.5-2.4s-1,0.5-1.4,1.4c0-1-0.5-1.4-1-1.4c-0.5,0-1,0.5-1.4,1.4c0,0-0.5,0.5-0.5,1
	c-0.5,0-1-0.5-1-0.5c0-1,0-1.4-0.5-1.4c0-1-0.5-1.4-0.5-1c-0.5,0-1,1-1,1.9c-0.5,0-1.4-0.5-1.9-0.5c0-1.4,0-2.4-0.5-2.9
	c-0.5,0-1,0.5-1,1c0-1-0.5-1.9-0.5-1.9c-0.5,0-1,1-1.4,2.9H131v-0.5c0,0-0.5,0-0.5,0.5c0,0,0,0-0.5,0c0,0,0,0,0-0.5
	c0.5-1.9,0-3.4-1-3.4c-0.5,0-1,0.5-1.4,1.4h-0.5c-0.5,0.5-0.5,1-1,1.9l-0.5-0.5l0,0c0-1.4,0-2.4-1-2.4c0,0-0.5,0-0.5,0.5
	c0-0.5-0.5-1-0.5-1c-0.5,0-0.5,0.5-0.5,0.5c0-0.5-0.5-0.5-0.5-0.5c-0.5,0-1,1-1,1.4c0-1-0.5-1.4-1-1.4c0,0-0.5,0-0.5,0.5
	c0-0.5,0-0.5-0.5-0.5s-1.4,1.4-1.9,3.4c0-1,0-1.4-0.5-1.4c0-1.4,0-2.9-0.5-2.9c-0.5,0-0.5,0.5-1,1c0-1.4-0.5-2.4-1-2.4h-0.5
	c0-0.5-0.5-0.5-0.5-0.5c-0.5,0-1.4,2.4-1.4,4.8c0,0.5-0.5,1-0.5,1.4c0-0.5,0-1-0.5-1s-1,0.5-1,1.4c0-1-0.5-1.4-0.5-1.9
	c-0.5,0-1.4,1.9-1.9,4.3c0,0,0,0.5-0.5,1c0,0,0-0.5-0.5-0.5s-1,1-1.4,1.9c0.5-3.4,0.5-6.2-0.5-6.2c-0.5,0-1,1.4-1.4,3.4v-0.5h-0.5
	c0-0.5-0.5-0.5-0.5-0.5c-0.5,0-0.5,0.5-1,1c0-1,0-1.4-0.5-1.9h-0.5c0-1,0-1.9-0.5-1.9s-1,1-1.9,2.9c0-0.5,0-1-0.5-1
	s-1.4,1.4-1.9,4.3c-0.5,0.5-1,1.4-1,2.4c0-0.5-0.5-1-0.5-1c-0.5,0-0.5,0.5-1,1c-2.4,0-4.8,0-7.2-0.5c0-1.4-0.5-2.4-1-2.4
	s-1,1-1.4,2.4c-1,0-1.9,0-2.4-0.5l0,0c0-1.9-0.5-3.4-1.4-3.4l0,0v-0.5l0,0c0.5-1,0-1.4-0.5-0.5h-0.5c-0.5,0-0.5,0-1,0
	c-1-1.4-1-0.5-1,1l0,0l0,0l0,0c-0.5-0.5-0.5-0.5-1.4,0c-1,0,1.4-1-1.4-1c-0.5,0-0.5,0-0.5,0c-0.5-1,0.5-2.4-0.5-3.4c0,0,0,0,0-0.5
	c-0.5,0-0.5,0-0.5,0c-0.5,0-0.5,0-1,0c0,0.5,0,0.5,0,0.5c-0.5,0.5-0.5,1-0.5,1c0-0.5-0.5-1-1-1c-0.5,0-1.4,1.4-1.4,3.8l0,0h-0.5
	c0,0,0,0,0-0.5l0,0l0,0c0-0.5,0-1,0-1c0-2.4,0-3.8-1-3.8c-0.5,0-1,1-1,1.9l0,0l0,0l0,0c0.5-2.4,0-4.3-1-4.3c-0.5,0-1.4,1.9-1.4,4.3
	l0,0c0-0.5-0.5-1-0.5-1s-0.5,0-0.5,0.5c0,0,0,0-0.5,0c0-1.9-0.5-3.4-1-3.4s-1,1.4-1.4,3.4c0-1-0.5-1.9-1-1.9c0,0-0.5,0-0.5,0.5
	c0-1.4-0.5-2.4-1-2.4c-0.5,0-1,1-1.4,1.9c0-1-0.5-1.9-1-1.9s-0.5,0.5-1,1c0-1.9-0.5-2.9-1-2.9s-0.5,0.5-1,1.4l-0.5-0.5
	c-0.5,0-1,1-1,1.9c0-1.4-0.5-2.9-0.5-2.9c0-1.4-0.5-2.9-1-2.9s-0.5,0.5-1,1c0-0.5,0-0.5-0.5-1h-0.5c0-1.9-0.5-3.4-1-3.4
	c-0.5,0-1.4,2.4-1.4,5.8v0.5c-0.5,0-0.5,0-1,0h-0.5l0,0c0-0.5,0-0.5,0-1c1-0.5,0.5-1.4,0-1.9c0.5-0.5,0.5-1-0.5-1c0-0.5-0.5-1-0.5-1
	l0,0c0-1-0.5-1.4-0.5-1.9c0.5-1.9,0.5-3.4,0-3.8c-0.5,0-1,1-1.4,2.4c-0.5,0-1,0-1,0c0-1.9-0.5-3.8-1-3.8s-1,1-1.4,2.9
	c0-1,0-1.4-0.5-1.4s-1,0.5-1.4,1.9c0-1-0.5-1.4-0.5-1.4s0,0-0.5,0c0-0.5-0.5-1-0.5-1c-0.5,0-0.5,0.5-1,0.5c0-0.5-0.5-1-0.5-1
	c-0.5,0-1,0.5-1.4,1.4c0-0.5-0.5-0.5-0.5-0.5c-0.5,0-0.5,0.5-0.5,0.5l0,0c-1,0-1.4,0-2.4,0.5c-0.5,0-0.5,0-1,0.5c0-1-0.5-1.9-1-1.9
	c0,0-0.5,0-0.5,0.5l-0.5-0.5c-0.5,0-0.5,0.5-1,1c-0.5-1-0.5-1.4-1-1.4s-0.5,0.5-1,1l0,0l0,0h-0.5v0.5c-0.5,0.5-0.5,1.4-0.5,2.4l0,0
	c-0.5,0-0.5,0-1,0l0,0c0.5-2.4,0.5-4.3,0-4.8h-0.5c0-1,0-1.4-0.5-1.4c-0.5-0.5-1.4,1.4-2.4,4.3c-0.5,0-0.5,0-1-0.5
	c0.5-2.4,1-4.8-1-4.3c-0.5-0.5-1,0-1,0.5c0,0,0,0-0.5,0.5c0-1,0-1.4,0-1.4l0,0l-0.5-0.5c0-0.5-0.5-0.5-1,0c-0.5-0.5-1-0.5-1,0
	l-0.5-0.5l0,0c-0.5-1.4-1-2.4-1.4-2.4c0,0-0.5,0-0.5,0.5c0-1.4-0.5-2.9-1-2.9c-0.5,0-0.5,0.5-1,1.4l0,0c0,0-0.5,0-0.5,0.5
	c0-1.4-0.5-2.4-1-2.4c0,0-0.5,0-0.5,0.5c0,0,0,0,0-0.5c0-0.5-0.5-1-1-1l0,0c0-1.9-1-3.4-1.4-3.4s-0.5,0.5-1,1.4
	c-0.5-1-0.5-1.9-1-1.9s-1,1-1,1.9c0,0,0,0.5-0.5,0.5v672h1920V435.3c-1,0-1.9-0.5-2.9-0.5C1909.9,433.4,1909.9,432,1909.9,430.5z"/>
<path class="st4" d="M1920,1087.1V665.6c-0.5-0.5-1-0.5-1.4-1l0,0c0.5-1.9,1-2.9,1.4-3.8v-0.5c0,0.5,0,0.5,0,0v-1.9l-0.5-0.5
	c-2.4-1.4-4.8-3.4-8.2-4.8c-1.9-1-4.3-1.4-6.7-1.4c0-1.4,0.5-3.4,0.5-4.8c0-8.2-1.9-14.9-4.8-14.9c-1.4,0-2.4,1.4-3.4,4.3
	c-1.4-4.3-3.4-7.2-5.3-6.7c-2.4,0.5-3.4,5.8-2.9,12.5h-0.5c-0.5-7.2-2.4-12.5-4.8-12.5c-2.9,0-4.8,6.7-4.8,14.9c0,1,0,1.4,0.5,1.9
	c0,0.5,0,1-0.5,1c-0.5,0-1.4-0.5-2.4-1c1,0.5,1,0,0,0c-0.5-0.5-1.4-0.5-1.9-1c0-0.5,0-1,0-1.4c1.4-6.2,1.4-13-1-13.4
	c-1.9-0.5-5.3,2.9-7.2,8.2c-0.5-6.7-2.9-12-5.8-12c-1.9,0-3.4,2.9-3.8,7.7c-0.5-3.8-1.9-6.2-3.4-6.2c-1,0-1.9,1-2.9,2.4
	c-1.9-4.3-3.8-7.7-5.8-7.2c-2.4,0-3.4,4.8-2.4,11c-1,0.5-1.9,1-2.4,2.4c-0.5,0-0.5,0,0,0l0,0c-1-0.5-1.4-0.5-1.9-0.5
	c-0.5-8.2,1-14.4-1.4-15.4c-1-0.5-2.9,1-4.8,4.3c-0.5,0-0.5-0.5-1-0.5c-1.9,0-2.9,3.4-3.8,8.2c-1,0-1.4-0.5-1-0.5l0,0l0,0l0,0l-1,1
	v0.5c0,0-0.5,0-1.4,0l0,0c1-2.9,1.9-5.3,0.5-6.7c-0.5-0.5-2.4-0.5-3.8,0.5v-0.5c-1-1-4.3,0.5-6.7,3.8c-0.5-5.8-2.4-10.1-4.8-10.1
	s-4.3,4.3-4.8,9.6c-0.5-0.5-0.5-0.5-1-1c-0.5-0.5-1-0.5-1-0.5c0.5-2.9,1-4.8-0.5-5.8c-1.4-1.4-6.7,1.9-9.6,8.2
	c-1.9-3.4-4.8-4.8-6.2-4.3c-1,0.5-1.4,1.4-1.4,3.4c-1-1.4-1.9-1.9-2.9-1.9c-0.5,0-1,0.5-1.9,1c-1.9-3.4-4.8-4.8-6.2-4.8
	c-0.5-1.4-1-1.9-1.9-2.4c-1.4-0.5-4.3,1.9-5.8,5.8c-0.5,0-1,0.5-1.4,0.5c-0.5-5.3,0-8.6-1-10.1c-0.5-0.5-1.4-0.5-2.9,0.5
	c-1-4.8-2.9-8.2-4.3-8.2c-1.9,0-3.4,6.2-3.8,14.4c-2.9-0.5-5.3-0.5-1.9,0l0,0l0,0l0,0v0.5l-0.5,1l-0.5,1.4c0,0,0,0.5-0.5,0.5
	c-1.4-5.3-3.4-8.6-5.8-8.6c-1.4,0-2.4,1.4-2.9,3.8c-0.5-4.8-1-8.6-2.9-9.1c-1.4-0.5-3.8,2.4-5.3,6.7c-0.5-1-1.4-1.4-1.9-1.4
	c-1.4,0-2.9,2.4-3.8,5.8c-0.5-1-1-1.4-1.9-1.9c-1.4-0.5-4.3,1.9-5.8,6.2l0,0c0.5-5.8,0.5-10.6-1.4-11c-0.5-1-0.5-1.9-1.4-2.4
	c-1.4-1.4-7.7,4.8-7.2,13.9c-0.5,0-1,0.5-1.9,1l0,0c0-0.5,0-0.5,0-1c0.5-3.8,1-6.2-0.5-7.7c-0.5-0.5-1.4-0.5-2.4,0
	c-0.5-1-1.4-1.4-1.9-1.4c-1.4,0-2.9,2.9-3.8,7.2c-0.5,1-1,1.9-1.4,2.9h-1l-0.5-1.4l0,0l0,0c4.3-0.5,1,0-2.9,0c0-4.8,0-8.2-1.9-9.1
	c-1.9-1-6.7,4.3-7.7,12.5h-0.5h-1.4c-0.5-1.4,0-1.4,0,0h-1l0,0c1.9-8.6,1.4-15.8-1.4-16.8c-1.9-0.5-4.8,3.8-6.7,10.6
	c-0.5-3.4-1.4-5.3-2.9-5.8c-1.9,0-3.8,2.9-5.3,8.2l-0.5-0.5c-0.5-0.5-1.9-0.5-3.8,1c-1.4-2.9-3.4-4.8-4.8-4.8s-2.4,1.9-2.9,4.8
	c-1.4,1-2.4,2.9-3.8,4.8v-0.5l0,0c-1-7.2-2.9-12-4.8-11.5c-1.4,0-2.4,2.9-3.4,7.2l-2.4-6.2l-1.4-3.8l-0.5-1.9v-0.5l0,0l0,0
	c3.4,0,1.9,0-0.5,0c-0.5-3.4-1.4-5.3-2.9-5.8c-1.4-0.5-3.8,2.4-4.8,6.2c-1,0-1.4,0-1,0v0.5v1l0,0c-1.9,0-2.9,0,0,0l-0.5,6.2
	l-0.5-0.5c-0.5,0-0.5,0-1,0v-0.5c0.5-12,3.4-22.1,1-23c-1.4-1-6.2,4.3-8.6,12.5c-1.4-1-6.2,4.3-8.2,12.5l0,0
	c-1.4-0.5-4.8,3.8-6.7,10.6c-2.4,1.4-5.3,5.8-6.2,12c0,1,0,1.4,0,2.4c0,0-0.5,0-1,0v-0.5l0,0c1,0-2.4,0-5.3-0.5
	c0-5.8,0-9.6-2.4-10.6c-1.9-1-5.3,3.4-6.7,9.6c-0.5-4.3-2.4-7.2-4.8-7.2c-2.9,0-4.8,4.3-4.8,10.1l0,0c-1-4.8-2.9-8.2-5.3-7.7
	c-1.9,0.5-3.4,3.4-3.8,7.2c-3.4-0.5-5.3-0.5-5.8-0.5c0,0,0,0-0.5-0.5c-0.5,0-0.5,0-1,0c-1-1.4-2.4-2.4-3.4-2.4
	c-1.9,0.5-3.4,3.8-3.8,8.2c-3.8,0-7.2,0-2.9,0l0,0v0.5v2.4c0,1.4-0.5,2.9-0.5,4.3h-0.5c0-0.5,0-0.5,0-1c-0.5-1.4-0.5-2.4-0.5-3.8
	v-1.9v-1l0,0l0,0V656l0,0c3.4,0,1.9,0-0.5,0c0.5-7.7,0-13.9-2.4-14.4c-1.4-0.5-3.8,3.4-5.8,8.6l0,0c-1.9-0.5-4.8,3.8-7.2,10.1v-0.5
	v-3.4v-1.9v-0.5l0,0l0,0c0.5,0,1,0,0,0l0,0c-1.4,0-2.4-0.5-3.4-0.5c-0.5-0.5-1-1-1.4-1s-1.4,0-1.9,0.5c-4.3-0.5,1.9,0-1,0l0,0l0,0
	l0,0v0.5v0.5l0,0c-1.9,1.9-3.4,5.8-4.3,10.6c0,1,0,1.9,0,2.4h-0.5c0-6.2-1.9-11-4.8-11c-1.9,0-3.8,2.9-4.8,6.7c-0.5,0-0.5,0-1,0
	c-1.4-2.4-2.9-3.8-4.8-3.4c-0.5,0-1,0.5-1.4,1v-0.5h-0.5c-1-2.4-2.4-4.3-3.8-4.3c-1.9,0-3.4,2.4-4.3,6.2c0-4.3-1.4-7.2-2.9-7.7
	c-1.9-0.5-4.3,2.9-5.8,7.2c-0.5-6.2-1-10.6-2.9-11c-1-0.5-2.9,1.9-4.3,5.3c-0.5,0-0.5,0-1,0c1-6.7,1.4-12.5-0.5-13
	c-1.9-0.5-7.2,5.3-9.6,15.4c-2.9-0.5-4.8-1-1.4-0.5l0,0l0,0v0.5l-0.5,1l-1,1.4c-0.5,1-1,1.9-1,2.9l0,0l0,0l0,0c0,0.5,0,0.5,0,1
	c-0.5,0-0.5,0-1,0.5l0,0c0-5.3-1.9-9.6-4.3-9.6s-4.3,3.4-4.8,7.7c-0.5,0-1,0-1,0c0.5-2.9,0.5-6.2,1-9.6v-1l0,0l0,0v-0.5l0,0l0,0
	c3.8,0.5,1.4,0-2.4-0.5c-0.5-2.4-1.4-4.3-2.4-4.8c-1.4-0.5-3.4,1.4-5.3,4.8c-1.4,0-1.9,0,0,0c-0.5,1-1,2.4-1.4,3.8
	c-1-1.4-1.9-2.9-3.4-2.9c-1.4,0-2.9,1.4-3.8,3.4c-1,0-1.9,0-2.9,0l0,0c0.5-3.4,0.5-7.2-1.9-8.2c-1.4-1-4.3,0.5-6.2,3.8
	c-1-3.4-2.4-5.3-3.8-5.3c-2.4,0-4.8,5.8-4.8,13c-0.5-2.4-1-3.8-2.4-4.3c-1-0.5-2.4,0.5-3.8,2.4c-1-4.3-2.9-7.2-4.8-7.2
	c-1,0-1.4,0.5-2.4,1.9c-1,0-1.9,0-2.4,0c0.5-4.3,0.5-7.2-1-8.2c-0.5,0-0.5,0-1,0c-0.5-6.2-1.9-10.1-3.4-10.1
	c-1.9,0-4.3,7.7-5.3,18.7c-3.4-1-5.3-1.4-1.9-0.5l0,0v0.5l-0.5,1.9c-1.9,4.8-2.4,10.1-1.4,15.4c0,1.4,1,2.9,1,4.3l1,1.9v0.5
	c-1,0-1.4,0-2.4,0c-0.5-2.4-2.4-4.3-4.8-4.3c-1.4,0-2.4,1-3.4,1.9c-0.5,0-1,0-1.9,0c1-5.8,1.9-11-0.5-12c-1.4-0.5-4.8,1.4-7.2,5.8
	c1-5.8,0.5-10.1-1.4-10.6c-1.9-0.5-4.3,1.9-6.2,6.7c-0.5-2.4-1-3.8-2.4-3.8c-0.5,0-1,0-1.4,0.5c-0.5-5.3-2.4-9.1-4.3-9.1
	c-1,0-2.4,1.4-3.4,3.4c-1-2.9-2.4-4.8-3.8-4.8c-1,0-1.9,1-2.4,2.9l0,0c-0.5-1.4-1-2.4-1.9-2.9h-0.5c-0.5-3.4-1-5.8-2.4-6.2
	c-1.4,0-3.4,2.4-4.8,6.7l0,0c-0.5,1.4-1,3.4-1.4,5.3h-1c0-1-0.5-1.9-0.5-2.9c-2.4-12-3.4-22.1-6.2-22.6c-2.4-0.5-5.8,10.6-2.9,24
	c0,0.5,0.5,1,0.5,1.4c-0.5-0.5-1-1-1.9-1c-1.9,0-3.4,4.3-3.4,10.1c-1-2.4-2.4-3.8-3.8-3.8s-2.4,1-3.4,2.9c-1-1-1.4-1.4-2.4-1.4h-0.5
	l0,0c-1.4-11.5,0.5-21.1-2.4-22.1c-1-0.5-3.4,1.9-5.3,6.7c-1-13.4-3.8-24-6.2-24c-2.9,0-4.3,12-3.4,26.4c0,0.5,0,1.4,0,1.9
	c-2.4,0-3.8,0.5-0.5,0l0,0v0.5l0,0l0,0c-3.8-0.5-7.7-0.5-3.4,0l0,0l0,0v0.5l0,0l0,0v1v1.9c0,2.4-0.5,4.8-0.5,7.2h-0.5l-0.5,1
	c-0.5,1-1,1.4-1,2.4h-0.5c0-0.5-0.5-1-0.5-1.9v-1l0,0l0,0c0,0,0,0-0.5,0c0,0,2.4,0-1-0.5c-0.5-2.4-1.9-4.8-3.8-5.3
	c-1-0.5-2.4,0.5-3.4,1.4c-0.5-1.9-1-3.4-2.4-3.8c-1.9-0.5-4.8,2.4-6.7,7.2l0,0c0-0.5,0-1,0-1.4c0-7.7-1.9-14.4-4.8-14.4
	c-1.4,0-2.9,2.4-3.8,5.8c-1-1.9-1.9-3.4-3.4-3.4c-1,0-2.4,1-2.9,2.9c-1-1-1.4-1.9-2.9-1.9c-1.4,0-2.4,1-3.4,2.9c0,0,0,0-0.5,0
	c-0.5-0.5-0.5-1-1-1v-0.5c0.5,0,1.4,0.5,0,0v-0.5l0,0l0,0c-0.5,0-1,0-1.4-0.5c-0.5-0.5-1-0.5-1.4-0.5h-0.5l0,0
	c0-4.8-0.5-8.2-2.4-8.6c-0.5,0-0.5,0-1,0c-0.5-1.4-1-2.4-1.9-2.4c-1.9-0.5-3.8,3.8-5.3,10.1c-2.9-0.5-4.8-0.5-4.3-0.5l-1,1.9v0.5
	c-0.5,0-0.5,0-1,0c1-8.2,0.5-13.4-1.4-13.9c-2.4-1-7.7,9.1-9.1,21.6c0,1,0,1.4-0.5,2.4c-1.9,0.5-4.3,1-6.2,1.9
	c-3.8-0.5-3.8,1-3.8,2.4c-1.4,1-2.4,1.9-3.8,2.9l0,0c-1.4,0.5-2.4,1-3.8,1.4l0,0l0,0l0.5-3.4v-1c-2.4-1,5.8,1-5.8-1.9l-0.5,0.5l0,0
	c-0.5,0-0.5,0,0,0l-1,1.4c-1,1.4-1.4,2.9-2.4,4.3c0,0,0-0.5-0.5-0.5l0,0v-1V667l0,0c-2.9-1,6.7,2.4-6.7-2.4v0.5l-0.5,0.5
	c-1-0.5-0.5,0,0,0l-3.4,5.3c-1.4-1.9-1.9-2.4,0,0l-0.5,1c-1,0-3.4-0.5-8.2-1.4l0,0l0,0c-1.4-0.5-0.5,0,0,0l0,0l0,0l-0.5,0.5l-0.5,1
	l-1,1.9c-3.4-1-8.6-2.4-7.7-1.9v0.5c-1.9-0.5-2.9-1,0,0l0,0l0,0l-0.5,1l-1.4,2.4c0,0,0,0.5-0.5,0.5c-1.4,0-2.4,0-3.4,0
	c-3.4,0-6.2,0-2.4,0l0,0l0,0v0.5l-0.5,2.4c-0.5,1-1,2.4-1.4,3.4c-1.4-0.5-2.9-0.5-3.8-1c0-3.8-1-6.7-3.4-7.2c-1,0-1.9,0.5-2.9,1.4
	c-1.4-0.5-3.8,1-5.8,3.4c-1.4-2.4-2.9-3.8-4.3-3.4c-1.4,0-2.4,1.4-2.9,3.4c0-1.9-0.5-3.4-1.4-3.4c-1.4-0.5-4.3,1.4-6.2,5.8
	c0-0.5-0.5-0.5-1-0.5c-1.4-0.5-4.8,3.8-7.2,10.1c-1,0-1.4,0-2.9,0l0,0v0.5l0,0c-0.5,0-1,0-1.4,0c-0.5-8.6-2.4-15.4-4.3-15.4
	c-1.9,0-3.8,5.8-4.8,13.9c-1.4-0.5-1.9-0.5,0,0c0,1,0,1.4,0,2.4l-1,3.4l-0.5,1.4c-5.8,0-4.8,0-3.8,0l0,0l0,0v0.5v0.5l-0.5,2.4
	c0,1.4,0,2.4-0.5,3.8c-0.5,0-0.5,0-1,0c-1.9,0-3.8-0.5-2.9-0.5l0,0l0,0v0.5c-1.9,0-2.4,0,0,0l0,0c-1,0-1.9,0.5-2.9,0.5
	c-0.5,0-1-0.5-1.4-0.5c-0.5-1.4-1.4-2.9-2.4-3.4c0.5-0.5,0-0.5-2.9-0.5c-0.5-3.4-1.4-5.3-2.9-5.8c-2.4-1-5.8,5.8-7.2,13.9v0.5
	c-1.9,0.5-3.8,1.4-5.3,2.4c0-9.6-0.5-17.8-2.9-18.2c-2.4-0.5-6.2,7.7-6.7,17.8c0,0.5-0.5,1-0.5,1.4c-1,0.5-1.9,0.5-2.9,1
	c0-0.5,0-1,0.5-1.4l0.5-4.3v-1.4c2.4,0,1.4,0,0,0v-0.5l0,0c0.5,0-1.9-0.5-4.3-0.5c-0.5-3.8-1.9-6.2-3.4-6.2h-0.5
	c-0.5-1.9-1.4-3.4-2.4-3.8c-2.4-0.5-5.8,4.8-7.2,12c-0.5-0.5-1-0.5-1.4-0.5s-1,0-1,0c-0.5,0-0.5,0-1,0c0-1.4,0.5-2.9,0-4.8
	c1.4-5.3,0-10.6-2.4-11c-1.4-0.5-2.9,0.5-3.8,2.9c0,0,0,0-0.5,0c-1.4-0.5-4.3,3.4-6.7,9.6c-0.5-6.7-1-11-3.4-12
	c-1.4-0.5-2.9,1.4-4.3,4.8c-0.5-15.8,0-27.8-2.9-28.3c-1.9-0.5-5.3,8.6-6.2,21.1c-0.5,1-1,2.4-1.4,4.3c-0.5,0.5-1,1-1.9,1.9
	c-2.9,0-3.8,0.5-0.5,0l0,0l0,0c0,0,0,0,0,0.5c-1.9,2.9-3.8,7.2-5.3,12.5c-1.9,1.4-3.4,4.8-4.3,9.6c-0.5-4.8-1.9-7.7-3.8-7.7
	c-1,0-1.9,1.4-2.9,3.4l0,0c-0.5-1.9-1.4-3.4-2.9-3.4l0,0c-0.5-0.5-1-1-1.4-1.4c-2.4-0.5-6.2,5.3-6.7,13.9c0,0.5-0.5,1-0.5,1
	c-2.4-0.5-5.3-0.5-7.7-1l0,0c1,0-1.4,0-3.8,0c-1,0-2.4,0-3.4,0l0.5-0.5l0,0c0.5,0-1,0-3.4,0c-1-1.9-1.9-3.4-3.4-3.4
	c-1,0-2.4,1-2.9,2.4l0,0c-0.5-1-1.4-1.4-1.9-1.9c-0.5-1.4-1-2.4-1.9-2.9c-1-0.5-1.9,0-2.9,0.5c-1-5.3-2.4-9.1-4.3-9.1
	c-1,0-2.4,1.4-3.4,3.8c-1-1.4-1.9-2.4-2.4-2.4c-1.4,0-2.4,1.9-3.4,5.3c-1-0.5-1.9-0.5-2.4-0.5v-0.5l0.5-2.9l0.5-1.4v-0.5l0,0
	c-3.4,0,6.2,0-4.3,0v-1.4v-1v-0.5c3.4,0.5,1.4,0.5-1.4-0.5c0.5-5.8,0-9.6-1.4-10.1c-2.4-0.5-7.2,9.1-9.6,21.1c0,1-0.5,2.4-0.5,3.4
	c-0.5,0-1,0-1.4,0.5l0,0c-3.4,0,7.7,0-7.7,0v0.5l0,0c-2.4,0-4.8,0.5-7.2,1c-0.5-1-0.5-1.4-0.5-1l0,0l0,0l0,0h-0.5h-0.5
	c-1-1.9-1-2.9,0,0h-0.5h-0.5c-0.5,0-1,0.5-1.4,0.5c-11-2.4-2.4-0.5-5.3-1l0,0v0.5l-0.5,1.4l0,0c-1,0-1.9-0.5-2.9-0.5
	c1-0.5,2.9-1-5.3-1v1c-3.4,0-6.2-0.5-9.6,0c-2.4,0-4.8,0.5-6.7,0.5h-0.5l0,0v-0.5v-0.5l0,0c-2.9-0.5,5.8,1-4.3-1l-0.5-1v-0.5l0,0
	l0,0c1,0-3.8,0-7.2-0.5c-1.4-2.9-3.8-4.8-5.3-4.3c-0.5,0-1.4,1-1.4,1.9c-0.5-2.9-1.4-5.3-2.4-5.3c-1.4-0.5-3.4,2.4-4.8,6.7
	c0,0-0.5,0-1-0.5c-0.5-4.3-2.4-7.2-4.3-7.7c-1.9-0.5-3.8,2.9-4.8,7.7c-1.9-0.5-4.3-0.5-5.3-1c-0.5-1-1.4-2.9-3.4-2.4
	c-0.5-0.5-1.4-1-2.4-1c-1.9,0-3.8,1.9-4.3,4.8c-0.5,0-1,0-1.4,0c-1.4,0-2.9,0-4.3,0l-0.5-0.5v-0.5l0,0l0,0c5.3-1-1.4,0-5.8,1
	l-0.5-3.4v-1c5.8,0-1.4,0-6.2,0l-1-2.4l-0.5-0.5l0,0c2.9-0.5,1.9,0,0,0c-0.5-2.9-1-4.8-2.9-5.3c-1.4-0.5-3.8,1-5.3,4.3
	c-1,0-1.9,0-2.9,0c-5.8,0-4.8,0-3.8,0l0,0v0.5c-0.5,1.9-0.5,3.4-1,5.3c-0.5,0-1,0-1.4,0c-1.4,0-2.9,0-4.8,0l0,0c-1.4,0-0.5,0,0,0
	l0,0v0.5h-0.5l0,0l0,0l0,0c0.5,0-0.5,0-1.4,0.5c-4.8-0.5-9.6-1-14.4-1.4c-0.5-0.5-1-0.5-1.4-1c-3.8,0-5.8,0.5-7.2,0.5
	c-1,0-1.9,0-2.9,0l-0.5-1.4v-0.5l0,0c3.4,0,2.4,0,0,0c1,0-1.4,0-4.3,0c-2.9,0-5.8,0-5.8,0c-2.4,0-3.4,0,0,0l0,0l0,0l0,0v0.5v0.5
	c-0.5-0.5-0.5-0.5-1-1l0,0l0,0l0,0c1,0-2.4,0.5-5.8,1c-1,0-2.4,0-3.4,0c0-0.5,0-1-0.5-1.4c0-1.4-1-3.4-1.9-4.3c0,0,0,0,0-0.5h-0.5
	c-1-0.5-1.9-1-2.9-1c-1,0-1.9,0.5-2.4,1c0,0,0,0-0.5,0l0,0c-1,0-1,0.5-0.5,1c-0.5,1-1,2.4-1,3.8c-1-1.9-1.9-2.9-3.4-3.4v-0.5
	c-1,0-1.9,0-2.9,0c-0.5-0.5-0.5-0.5-1-1c-0.5-1.4-1.4-2.4-2.9-2.4c-1.4-0.5-3.4,1.9-4.3,5.3c-1.4-0.5-2.4-0.5-3.4-0.5
	c1.4-7.2,1-13-1.4-13.4c-1.9-0.5-4.3,2.4-6.2,7.2c0-6.2-0.5-10.6-2.4-11c-1.9-0.5-4.8,4.3-6.2,12c-1.4,0-2.9-0.5-3.8-0.5l0,0
	c0.5-8.6,0-15.4-2.4-16.3c-1.9-0.5-4.3,3.4-5.8,8.6c-7.7-1,1,0-2.4,0l0,0l0,0v0.5l0,0l0,0l0,0l0,0v0.5v1.9c0,0.5,0,1,0,1.4
	c-0.5,0-0.5,0-1-0.5v-0.5c0.5-4.8-1-8.6-3.4-8.6c-1.4-7.7-5.3-13-7.2-12.5c-2.9,1-1.9,8.2-1.9,17.3c0,0.5,0,0.5,0,1
	c-0.5,0-0.5,0-1,0c0-0.5,0-0.5,0-1c0.5-6.2-0.5-11.5-3.4-12c-1.9-0.5-3.8,1.9-4.8,5.3c-1.4-4.3-3.4-6.7-4.8-6.7
	c-1.4,0.5-2.9,2.4-3.4,5.3c-1,0.5-1.9,1.4-2.4,2.9c-0.5-0.5-1-0.5-1.4-0.5c-1.4,0-2.9,1.4-3.8,3.4c-1-1.9-2.4-3.4-3.4-3.4
	c-1.4,0-2.4,1-3.4,2.9c-1-1-1.4-1.4-2.4-1.4c-2.4,0-4.3,2.9-4.8,6.7c-0.5,0-0.5,0-1,0l0,0c0.5,0,0,0-0.5,0c-1.9-1.9-3.8-2.4-5.3-1.9
	c-0.5,0.5-1,1-1.4,1.9c-1.4,0-1.9,0-2.4,0s-0.5,0-0.5,0c0-3.4-1-6.2-2.9-6.7c-2.4-1-5.3,3.4-6.7,9.1c-0.5,0-1.9,0-4.3,0
	c-3.4-1-6.2-1.4-9.1-2.4c-1-1.4-1.4-2.9-1.9-3.8c-0.5,0.5-1.4,1-1.9,1c-0.5-0.5-1-0.5-1.9-1c0,0.5,0,1.4,0.5,1.9
	c-0.5,0-0.5,0.5-1,0.5s-1,0-1.4-0.5l0,0l0,0c-1.4-1.9-1.9-4.8-1.4-7.7l0.5-2.9l0,0v-0.5c1,0,1.9-0.5-3.4-1.4l0,0
	c0.5-4.8-0.5-8.6-2.9-9.1c-0.5,0-1.4,0-1.9,0.5l-0.5-1.9v-1l0,0c5.8,0.5-3.4-0.5-6.7-0.5c-1-0.5-1.4-1-2.4-1.4
	c-0.5-1.4-1-3.4-1.4-4.8v-0.5c2.9,0,2.4,0,0,0v-0.5l0,0l0,0c1,0-1.9,0-4.8,0.5c0-6.7-1-11.5-2.9-12c-1.4-0.5-3.4,2.4-4.8,7.2v-1.9
	v-1.4V656l0,0l0,0l0,0c1,0,2.4,0-4.3,0c-1.4,0-2.4,0-3.4,0c-0.5-3.4-1.4-5.3-2.9-5.8c-1.9-0.5-4.3,3.8-5.3,9.6c-1.9,0-2.4,0,0,0
	c-0.5,1.4-0.5,3.4-0.5,4.8c0,0.5,0,1.4,0,1.9c0,0.5,0,0.5,0,1s0,1.4,0,1.9c-2.9,0-5.3,0-6.7,0V669c0.5,0,1,0.5,1,0
	c0.5-0.5-0.5-1.9-1.9-4.8v-0.5c0-0.5,0-1,0.5-1c0,0-0.5,0-0.5-0.5s0.5-1,0.5-1.4v-1.4v-0.5c-0.5,0-1,0-1.4,0.5v-0.5
	c0-0.5-0.5-1-0.5-1.4c1,0,0.5,0,0,0V657c0-0.5,0-1,0-1v-1.9c-0.5,0-1,0-1.4-0.5c-0.5-0.5-0.5-0.5-1-1c-0.5,0-1,0-1,0.5
	c-0.5-4.3-1.4-8.2-2.4-11c0.5,0,0.5,0,0-0.5c-1-3.4-2.4-5.3-3.4-5.3c-1,0-1.9,2.4-2.4,5.8c-0.5-1.4-1-1.9-1.9-2.4
	c-1,0-1.9,1-3.4,2.9c-1.4-0.5-2.4-0.5-3.4-1c0-2.4,0.5-4.3,0.5-6.7l0.5-5.8l0,0l0,0v-0.5c-1.4,0-2.4-0.5-3.4-0.5
	c-1.4-0.5-2.4-0.5-2.9-0.5c-1,0-1,0-0.5,0c-1.9,0.5,0.5,2.9-1,3.4l0.5-4.8v-3.4c2.4,0.5,1.4,0,0,0l0,0v-1c0.5,0,0,0-0.5,0
	c-0.5-6.7-1.9-11.5-3.8-11.5c-2.4,0-4.8,6.7-5.3,15.8c-1,0-1.9,0-2.9,0c-1-3.4-1.9-5.8-2.9-5.3c-2.4,0-4.3,6.2-5.3,15.4
	c-0.5,0-1,0-1.4-0.5c0-1,0-2.4,0.5-3.8l1.9-7.7l0.5-1.9l0.5-1V621l0,0l0,0c5.3,1-1.4-0.5-5.8-1l0,0l0.5-1.9c2.9,0.5,2.4,0.5,0,0
	v-0.5c0.5,0-0.5,0-1.4-0.5c-0.5-9.6-1.9-17.3-4.3-17.3c-2.4,0-4.3,6.7-4.8,15.4l0,0c0,1.4,0,2.9,0,4.3c0,0,0,0,0,0.5
	c-2.9-0.5-5.3-1.4-4.3-1l0,0l0,0c-2.4-0.5-3.4-1,0,0l0,0v0.5l-0.5,1.9c-0.5,1-1,1.9-1.4,2.9c-0.5-0.5-1-0.5-1.4-1l0,0
	c0.5-4.8,1-8.6,1-12l0,0c0-3.4-0.5-5.3-1.9-5.8c-1-0.5-2.9,1.4-4.8,4.3c-0.5,0-1.4,0-1.9,0v-0.5c-0.5,0-1.4-0.5-1.9-0.5
	c-0.5-4.8-1.4-7.7-2.9-8.2c-0.5,0-1.4,0.5-2.4,1.9c0-8.2,0.5-14.4-1.9-15.4c-1.4-0.5-3.8,2.4-5.8,6.7c-1.4-2.9-2.9-4.8-4.3-4.3h-0.5
	c-0.5-1.9-1-3.4-2.4-3.8c-1.9-0.5-3.8,1.4-5.8,5.3c0-1,0.5-2.4,0.5-3.8c0-8.2-1.9-14.9-4.8-14.9c-0.5,0-1,0.5-1.4,1
	c0-5.3-1-9.1-2.9-9.6c-1.4,0-2.4,1.4-3.8,4.3c0-4.8-0.5-7.7-1.9-8.2c-2.4-0.5-6.7,9.6-9.6,22.1c0,0.5,0,0.5,0,1c0-1.4,0-2.4,0.5-3.8
	c2.4-13,2.4-24-0.5-24.5c-0.5,0-1,0-1.4,0.5c0.5-12.5-1-21.6-2.9-21.6c-2.9,0-4.8,15.4-8.2,34.1c-0.5,2.4-1,4.8-1,6.7
	c-0.5-2.4-1-4.3-1.9-5.3c0-3.4-0.5-5.8-1.4-5.8c-2.4-0.5-7.2,8.6-10.6,20.6c-0.5,1-0.5,2.4-1,3.4c-0.5-1.9-1.4-2.9-2.4-2.9
	c0,0-0.5,0-1,0c-0.5-4.3-1.9-7.2-3.4-7.7c-1,0-1.4,0.5-2.4,1.4c0-2.9-0.5-4.8-1.9-5.3c-2.4-0.5-6.7,7.2-9.1,17.8l-0.5-0.5
	c-1.4-0.5-3.4,1-4.8,3.8c-0.5,0-1.4,0-1.9-0.5l-0.5,1l0,0l-0.5,1.4c0.5-8.2-1.4-14.9-3.8-14.9c-2.9,0-5.3,6.7-5.8,14.9v0.5
	c-1.9-0.5-3.4-0.5-4.3-1c0-0.5,0-1,0-1.4v-0.5l0,0c4.8,1,0.5,0-3.8-1c-0.5-0.5-1-1-1.9-1c-0.5,0-0.5,0-1,0.5h-0.5c0-1,0-1.4-0.5-2.4
	v-0.5v-0.5l0,0c3.8,0,1.9,0-1,0h-11.5c-0.5-0.5-0.5-0.5-1-1l-0.5-0.5c-1.9-1,1-2.9-2.4-3.8c0-4.8,0-8.6-1.9-9.1
	c-1.4-0.5-3.8,2.9-5.8,8.2c-6.2-2.9-2.4,1.4-4.8,1c-0.5,1-1.4,1.9-2.4,2.9c0-1,0-1.9,0.5-1.9v-1.9c-2.4-1.4,5.8,1.4-5.3-3.4l-1,1
	c0,0,0,0-0.5,0.5v-0.5v-2.4v-1.4v-0.5v-0.5l0,0c2.9,0,1.4,0-0.5,0c0.5-6.2,1-11-1-12c-1.4-1-5.8,4.3-7.7,12
	c-3.4-1.4-8.2-2.9-3.8-1.4l0,0l0,0l0,0l0,0v0.5c0,0.5-0.5,0.5-0.5,1c-1-1-2.4-1.9-3.4-2.9c0-1.4,0.5-2.9,0.5-4.3l0.5-3.4l0.5-1.4v-1
	l0,0l0,0l0,0l0,0c1,0,1.4,0,0,0l0,0v-0.5c-1.4,0-2.4,0-3.8,0c-6.7-12.5-1.9-3.4-3.8-6.2h-0.5c-0.5,0-1,0.5-1.9,0.5
	c-0.5-9.1-1.4-14.9-3.4-14.9c-1.9,0-3.4,5.3-4.8,13c-1.4-0.5-3.4-1-5.8-1.4l0,0c-1.4-0.5-1,0,0,0l0,0l0,0l0,0l0,0l-1,2.9l-1,4.8
	c-4.3,0-8.2,0.5-3.4,0v0.5l-0.5,1.9l-0.5,3.8l-1,4.3l0,0l0,0l0,0l0,0c-18.7-3.4-5.3-1-9.6-1.4l0,0l0,0l0,0l0,0v0.5l0,0
	c-0.5,0-0.5,0-1,0c0.5,0,0,0-1,0c-0.5-1-1-1.4-1.9-1.4s-1.9,0.5-2.4,1.4c-2.4,0-4.8,0-3.8,0l0,0c-2.4,0-3.4,0,0,0l0,0v0.5v0.5v1.4
	l0,0c-1,0-1.9-0.5-2.9-0.5c-1-1.4-1.9-2.4-3.4-2.4c-1,0-1.9,0.5-2.4,1.4c-0.5,0-0.5,0,0,0c-0.5,0.5-1,1.4-1.4,2.9c0,0,0,0-0.5,0
	s-1.9-0.5-3.4-0.5h-0.5c-0.5,0-1,0-1.4,0c-1,0-1.4,0-1.9-0.5c-2.4-0.5-4.3-0.5-1,0l0,0v1l-0.5,2.9v1c-0.5,1-1,1.4-1.4,2.4
	c0-0.5,0-0.5,0-1c1.4-5.3,0-10.6-2.4-11.5c-2.4-1-5.3,2.9-6.7,8.6c-1.4,0.5-2.4,0.5-3.4,0.5H144l0,0h-0.5c-1-0.5-2.9-1-5.3-1.4
	c0.5-6.7,1.4-11.5-1-12.5c-1.9-1-8.2,5.3-8.6,14.9c0-1.4,0-3.4,0-5.3c-1.9-1-2.9-1-3.4-1c-0.5-1-1.4-1.9-2.4-2.9c0-1.4,0-2.9,0-4.3
	c-1.4,0-2.4,0-3.4,0v-1.4v-1l0,0l0,0c-3.4,0-5.3,0-6.2,0c-0.5,0-1.4,0-1.9,0v-0.5c1,1.9-1-8.6-6.2-3.8c-0.5,0-1-0.5-1.4-0.5
	c0.5-3.4,1-6.7,1-10.6v-2.9v-1l0,0c4.8,0,0.5,0-3.8,0c-1,0-2.4,0-3.4,0c0-3.8,1.4-7.2,1.9-11v-0.5v-0.5l0,0l0,0c-3.4-1,5.3,1-2.9-1
	c0.5-8.6-2.4-14.9-4.3-14.4c-2.4,1-3.4,8.6-5.8,19.7c-1,4.3-1,8.2-0.5,11.5c-1.4,5.3-4.3,8.6-7.2,11.5c0-1.4,0-1-0.5,0
	c-0.5,0.5-1.4,1-1.9,1.4c-10.6,0,5.3,0-1.9,0l0,0l0,0l-0.5,0.5l-0.5,0.5l-0.5,1c-2.9,0-5.3,0.5-4.8,0.5l0,0l0.5,1l0.5,0.5
	c-1,0.5-1.4,0.5-2.4,1c-1.4-0.5-3.4-0.5-6.2-1.4c0-1.4,0-2.9,0-4.3c0-1.4,0-2.4-0.5-3.4c1.4,0,1,0,0,0c-0.5-5.3-2.4-9.1-4.8-9.1
	c-1.9,0-3.4,3.4-4.3,7.7c-0.5,0-1,0-0.5,0l0,0v0.5l0,0c-2.9-3.4-4.3-2.4-5.3-1c-1-2.4-1.9-4.8-1-1.9c-0.5,0-1,0-1.4,0.5
	c0-0.5,0-0.5,0-0.5v-0.5c2.9-9.6-0.5-18.2-2.9-17.8c-1.9,0.5-3.4,3.8-4.3,8.6c-0.5,0-0.5,0-1,0h-0.5c0-5.3,0.5-8.6,0-8.6
	s-1.4,2.9-2.4,8.2c-2.4-5.3-6.2-8.2-7.7-7.2c-2.4,1.4-1,6.2-0.5,13c-1.4-0.5-2.9-0.5-3.8-0.5c0.5-1.4,0.5-2.9,0.5-4.8
	c0-6.2-1.9-11-4.8-11s-4.8,4.8-4.8,11c0,2.9,0.5,5.3,1,7.2c-1-0.5-1.9-0.5-2.9-1v-2.4v-1.4v-0.5v-0.5c-3.4-0.5,5.8,0.5-3.4-0.5
	c0,0,0,0,0-0.5L4.8,537v-0.5V536l0,0c-4.3,1.9,5.3,3.4-4.8,1.9v549.1H1920z"/>
</svg>
